  0
SECTION
  2
HEADER
  9
$ANGBASE
  50
0.0
  9
$ANGDIR
  70
1
  9
$MEASUREMENT
  70
1
  0
ENDSEC
  0
SECTION
  2
TABLES
  0
TABLE
  2
LTYPE
  70
4
  0
LTYPE
  5
40F
  2
CONTINUOUS
  70
0
  3
Solid line
  72
65
  73
0
  40
0.0
  0
LTYPE
  5
410
  2
DASHDOT
 70
0
  3
Dash Dot ____ _ ____ _
 72
65
 73
4
 40
2.0
 49
1.25
 49
-0.25
 49
0.25
 49
-0.25
  0
LTYPE
  5
411
  2
DASHED
 70
0
  3
Dashed __ __ __ __ __
 72
65
 73
2
 40
0.75
 49
0.5
 49
-0.25
  0
LTYPE
  5
43B
  2
DOTTED
 70
0
  3
Dotted .  .  .  .
 72
65
 73
2
 40
0.2
 49
0.0
 49
-0.2
  0
ENDTAB
  0
TABLE
  2
STYLE
  70
4
  0
STYLE
  2
KICAD
  70
0
  40
0
  41
1
  42
1
  50
0
  71
0
  3
isocp.shx
  0
STYLE
  2
KICADB
  70
0
  40
0
  41
1
  42
1
  50
0
  71
0
  3
isocp.shx
  0
STYLE
  2
KICADI
  70
0
  40
0
  41
1
  42
1
  50
15
  71
0
  3
isocp.shx
  0
STYLE
  2
KICADBI
  70
0
  40
0
  41
1
  42
1
  50
15
  71
0
  3
isocp.shx
  0
ENDTAB
  0
TABLE
  2
LAYER
  70
1
  0
LAYER
  2
BLACK
  70
0
  62
7
  6
CONTINUOUS
  0
ENDTAB
  0
ENDSEC
  0
SECTION
  2
ENTITIES
0
LINE
8
BLACK
6
CONTINUOUS
10
52.6964709999999954
20
-113.9323210000000017
11
52.8900559999999942
21
-114.0073159999999888
0
LINE
8
BLACK
6
CONTINUOUS
10
52.8900559999999942
20
-114.0073159999999888
11
53.0665639999999996
21
-114.1166059999999902
0
LINE
8
BLACK
6
CONTINUOUS
10
53.0665639999999996
20
-114.1166059999999902
11
53.2199849999999941
21
-114.2564670000000007
0
LINE
8
BLACK
6
CONTINUOUS
10
53.2199849999999941
20
-114.2564670000000007
11
53.345093999999996
21
-114.4221390000000014
0
LINE
8
BLACK
6
CONTINUOUS
10
53.345093999999996
20
-114.4221390000000014
11
53.4376309999999961
21
-114.6079779999999886
0
LINE
8
BLACK
6
CONTINUOUS
10
53.4376309999999961
20
-114.6079779999999886
11
53.4944449999999989
21
-114.8076569999999919
0
LINE
8
BLACK
6
CONTINUOUS
10
53.4944449999999989
20
-114.8076569999999919
11
53.5135999999999967
21
-115.0143750000000011
0
LINE
8
BLACK
6
CONTINUOUS
10
53.5135999999999967
20
-115.0143750000000011
11
53.4944449999999989
21
-115.2210929999999962
0
LINE
8
BLACK
6
CONTINUOUS
10
53.4944449999999989
20
-115.2210929999999962
11
53.4376309999999961
21
-115.4207719999999995
0
LINE
8
BLACK
6
CONTINUOUS
10
53.4376309999999961
20
-115.4207719999999995
11
53.345093999999996
21
-115.6066110000000009
0
LINE
8
BLACK
6
CONTINUOUS
10
53.345093999999996
20
-115.6066110000000009
11
53.2199849999999941
21
-115.7722830000000016
0
LINE
8
BLACK
6
CONTINUOUS
10
53.2199849999999941
20
-115.7722830000000016
11
53.0665639999999996
21
-115.9121439999999978
0
LINE
8
BLACK
6
CONTINUOUS
10
53.0665639999999996
20
-115.9121439999999978
11
52.8900559999999942
21
-116.0214339999999993
0
LINE
8
BLACK
6
CONTINUOUS
10
52.8900559999999942
20
-116.0214339999999993
11
52.6964709999999954
21
-116.0964290000000005
0
LINE
8
BLACK
6
CONTINUOUS
10
52.6964709999999954
20
-116.0964290000000005
11
52.4924019999999985
21
-116.1345759999999956
0
LINE
8
BLACK
6
CONTINUOUS
10
52.4924019999999985
20
-116.1345759999999956
11
52.284797999999995
21
-116.1345759999999956
0
LINE
8
BLACK
6
CONTINUOUS
10
52.284797999999995
20
-116.1345759999999956
11
52.0807289999999981
21
-116.0964290000000005
0
LINE
8
BLACK
6
CONTINUOUS
10
52.0807289999999981
20
-116.0964290000000005
11
51.8871439999999993
21
-116.0214339999999993
0
LINE
8
BLACK
6
CONTINUOUS
10
51.8871439999999993
20
-116.0214339999999993
11
51.7106360000000009
21
-115.9121439999999978
0
LINE
8
BLACK
6
CONTINUOUS
10
51.7106360000000009
20
-115.9121439999999978
11
51.5572149999999993
21
-115.7722830000000016
0
LINE
8
BLACK
6
CONTINUOUS
10
51.5572149999999993
20
-115.7722830000000016
11
51.4321059999999974
21
-115.6066110000000009
0
LINE
8
BLACK
6
CONTINUOUS
10
51.4321059999999974
20
-115.6066110000000009
11
51.3395689999999973
21
-115.4207719999999995
0
LINE
8
BLACK
6
CONTINUOUS
10
51.3395689999999973
20
-115.4207719999999995
11
51.2827549999999945
21
-115.2210929999999962
0
LINE
8
BLACK
6
CONTINUOUS
10
51.2827549999999945
20
-115.2210929999999962
11
51.2635999999999967
21
-115.0143750000000011
0
LINE
8
BLACK
6
CONTINUOUS
10
51.2635999999999967
20
-115.0143750000000011
11
51.2827549999999945
21
-114.8076569999999919
0
LINE
8
BLACK
6
CONTINUOUS
10
51.2827549999999945
20
-114.8076569999999919
11
51.3395689999999973
21
-114.6079779999999886
0
LINE
8
BLACK
6
CONTINUOUS
10
51.3395689999999973
20
-114.6079779999999886
11
51.4321059999999974
21
-114.4221390000000014
0
LINE
8
BLACK
6
CONTINUOUS
10
51.4321059999999974
20
-114.4221390000000014
11
51.5572149999999993
21
-114.2564670000000007
0
LINE
8
BLACK
6
CONTINUOUS
10
51.5572149999999993
20
-114.2564670000000007
11
51.7106360000000009
21
-114.1166059999999902
0
LINE
8
BLACK
6
CONTINUOUS
10
51.7106360000000009
20
-114.1166059999999902
11
51.8871439999999993
21
-114.0073159999999888
0
LINE
8
BLACK
6
CONTINUOUS
10
51.8871439999999993
20
-114.0073159999999888
11
52.0807289999999981
21
-113.9323210000000017
0
LINE
8
BLACK
6
CONTINUOUS
10
52.0807289999999981
20
-113.9323210000000017
11
52.284797999999995
21
-113.8941739999999925
0
LINE
8
BLACK
6
CONTINUOUS
10
52.284797999999995
20
-113.8941739999999925
11
52.4924019999999985
21
-113.8941739999999925
0
LINE
8
BLACK
6
CONTINUOUS
10
52.4924019999999985
20
-113.8941739999999925
11
52.6964709999999954
21
-113.9323210000000017
0
LINE
8
BLACK
6
CONTINUOUS
10
51.3273769999999985
20
-115.2127519999999947
11
51.3818979999999996
21
-115.4043729999999925
0
LINE
8
BLACK
6
CONTINUOUS
10
51.3818979999999996
20
-115.4043729999999925
11
51.4707009999999983
21
-115.5827139999999957
0
LINE
8
BLACK
6
CONTINUOUS
10
51.4707009999999983
20
-115.5827139999999957
11
51.590761999999998
21
-115.7416999999999945
0
LINE
8
BLACK
6
CONTINUOUS
10
51.590761999999998
20
-115.7416999999999945
11
51.7379929999999959
21
-115.8759179999999986
0
LINE
8
BLACK
6
CONTINUOUS
10
51.7379929999999959
20
-115.8759179999999986
11
51.9073789999999988
21
-115.980797999999993
0
LINE
8
BLACK
6
CONTINUOUS
10
51.9073789999999988
20
-115.980797999999993
11
52.0931519999999963
21
-116.0527669999999887
0
LINE
8
BLACK
6
CONTINUOUS
10
52.0931519999999963
20
-116.0527669999999887
11
52.2889869999999988
21
-116.0893749999999898
0
LINE
8
BLACK
6
CONTINUOUS
10
52.2889869999999988
20
-116.0893749999999898
11
52.4882129999999947
21
-116.0893749999999898
0
LINE
8
BLACK
6
CONTINUOUS
10
52.4882129999999947
20
-116.0893749999999898
11
52.6840479999999971
21
-116.0527669999999887
0
LINE
8
BLACK
6
CONTINUOUS
10
52.6840479999999971
20
-116.0527669999999887
11
52.8698209999999946
21
-115.980797999999993
0
LINE
8
BLACK
6
CONTINUOUS
10
52.8698209999999946
20
-115.980797999999993
11
53.0392069999999975
21
-115.8759179999999986
0
LINE
8
BLACK
6
CONTINUOUS
10
53.0392069999999975
20
-115.8759179999999986
11
53.1864379999999954
21
-115.7416999999999945
0
LINE
8
BLACK
6
CONTINUOUS
10
53.1864379999999954
20
-115.7416999999999945
11
53.3064989999999952
21
-115.5827139999999957
0
LINE
8
BLACK
6
CONTINUOUS
10
53.3064989999999952
20
-115.5827139999999957
11
53.3953020000000009
21
-115.4043729999999925
0
LINE
8
BLACK
6
CONTINUOUS
10
53.3953020000000009
20
-115.4043729999999925
11
53.449822999999995
21
-115.2127519999999947
0
LINE
8
BLACK
6
CONTINUOUS
10
53.449822999999995
20
-115.2127519999999947
11
53.4682049999999975
21
-115.0143750000000011
0
LINE
8
BLACK
6
CONTINUOUS
10
53.4682049999999975
20
-115.0143750000000011
11
53.449822999999995
21
-114.8159979999999933
0
LINE
8
BLACK
6
CONTINUOUS
10
53.449822999999995
20
-114.8159979999999933
11
53.3953020000000009
21
-114.6243769999999955
0
LINE
8
BLACK
6
CONTINUOUS
10
53.3953020000000009
20
-114.6243769999999955
11
53.3064989999999952
21
-114.4460359999999923
0
LINE
8
BLACK
6
CONTINUOUS
10
53.3064989999999952
20
-114.4460359999999923
11
53.1864379999999954
21
-114.2870499999999936
0
LINE
8
BLACK
6
CONTINUOUS
10
53.1864379999999954
20
-114.2870499999999936
11
53.0392069999999975
21
-114.1528319999999894
0
LINE
8
BLACK
6
CONTINUOUS
10
53.0392069999999975
20
-114.1528319999999894
11
52.8698209999999946
21
-114.0479519999999951
0
LINE
8
BLACK
6
CONTINUOUS
10
52.8698209999999946
20
-114.0479519999999951
11
52.6840479999999971
21
-113.9759829999999994
0
LINE
8
BLACK
6
CONTINUOUS
10
52.6840479999999971
20
-113.9759829999999994
11
52.4882129999999947
21
-113.9393749999999983
0
LINE
8
BLACK
6
CONTINUOUS
10
52.4882129999999947
20
-113.9393749999999983
11
52.2889869999999988
21
-113.9393749999999983
0
LINE
8
BLACK
6
CONTINUOUS
10
52.2889869999999988
20
-113.9393749999999983
11
52.0931519999999963
21
-113.9759829999999994
0
LINE
8
BLACK
6
CONTINUOUS
10
52.0931519999999963
20
-113.9759829999999994
11
51.9073789999999988
21
-114.0479519999999951
0
LINE
8
BLACK
6
CONTINUOUS
10
51.9073789999999988
20
-114.0479519999999951
11
51.7379929999999959
21
-114.1528319999999894
0
LINE
8
BLACK
6
CONTINUOUS
10
51.7379929999999959
20
-114.1528319999999894
11
51.590761999999998
21
-114.2870499999999936
0
LINE
8
BLACK
6
CONTINUOUS
10
51.590761999999998
20
-114.2870499999999936
11
51.4707009999999983
21
-114.4460359999999923
0
LINE
8
BLACK
6
CONTINUOUS
10
51.4707009999999983
20
-114.4460359999999923
11
51.3818979999999996
21
-114.6243769999999955
0
LINE
8
BLACK
6
CONTINUOUS
10
51.3818979999999996
20
-114.6243769999999955
11
51.3273769999999985
21
-114.8159979999999933
0
LINE
8
BLACK
6
CONTINUOUS
10
51.3273769999999985
20
-114.8159979999999933
11
51.3089949999999959
21
-115.0143750000000011
0
LINE
8
BLACK
6
CONTINUOUS
10
51.3089949999999959
20
-115.0143750000000011
11
51.3273769999999985
21
-115.2127519999999947
0
LINE
8
BLACK
6
CONTINUOUS
10
107.4663709999999952
20
-113.9323210000000017
11
107.659955999999994
21
-114.0073159999999888
0
LINE
8
BLACK
6
CONTINUOUS
10
107.659955999999994
20
-114.0073159999999888
11
107.8364639999999923
21
-114.1166059999999902
0
LINE
8
BLACK
6
CONTINUOUS
10
107.8364639999999923
20
-114.1166059999999902
11
107.989885000000001
21
-114.2564670000000007
0
LINE
8
BLACK
6
CONTINUOUS
10
107.989885000000001
20
-114.2564670000000007
11
108.1149939999999958
21
-114.4221390000000014
0
LINE
8
BLACK
6
CONTINUOUS
10
108.1149939999999958
20
-114.4221390000000014
11
108.2075309999999888
21
-114.6079779999999886
0
LINE
8
BLACK
6
CONTINUOUS
10
108.2075309999999888
20
-114.6079779999999886
11
108.2643449999999916
21
-114.8076569999999919
0
LINE
8
BLACK
6
CONTINUOUS
10
108.2643449999999916
20
-114.8076569999999919
11
108.2834999999999894
21
-115.0143750000000011
0
LINE
8
BLACK
6
CONTINUOUS
10
108.2834999999999894
20
-115.0143750000000011
11
108.2643449999999916
21
-115.2210929999999962
0
LINE
8
BLACK
6
CONTINUOUS
10
108.2643449999999916
20
-115.2210929999999962
11
108.2075309999999888
21
-115.4207719999999995
0
LINE
8
BLACK
6
CONTINUOUS
10
108.2075309999999888
20
-115.4207719999999995
11
108.1149939999999958
21
-115.6066110000000009
0
LINE
8
BLACK
6
CONTINUOUS
10
108.1149939999999958
20
-115.6066110000000009
11
107.989885000000001
21
-115.7722830000000016
0
LINE
8
BLACK
6
CONTINUOUS
10
107.989885000000001
20
-115.7722830000000016
11
107.8364639999999923
21
-115.9121439999999978
0
LINE
8
BLACK
6
CONTINUOUS
10
107.8364639999999923
20
-115.9121439999999978
11
107.659955999999994
21
-116.0214339999999993
0
LINE
8
BLACK
6
CONTINUOUS
10
107.659955999999994
20
-116.0214339999999993
11
107.4663709999999952
21
-116.0964290000000005
0
LINE
8
BLACK
6
CONTINUOUS
10
107.4663709999999952
20
-116.0964290000000005
11
107.2623019999999912
21
-116.1345759999999956
0
LINE
8
BLACK
6
CONTINUOUS
10
107.2623019999999912
20
-116.1345759999999956
11
107.0546980000000019
21
-116.1345759999999956
0
LINE
8
BLACK
6
CONTINUOUS
10
107.0546980000000019
20
-116.1345759999999956
11
106.8506289999999979
21
-116.0964290000000005
0
LINE
8
BLACK
6
CONTINUOUS
10
106.8506289999999979
20
-116.0964290000000005
11
106.6570439999999991
21
-116.0214339999999993
0
LINE
8
BLACK
6
CONTINUOUS
10
106.6570439999999991
20
-116.0214339999999993
11
106.4805360000000007
21
-115.9121439999999978
0
LINE
8
BLACK
6
CONTINUOUS
10
106.4805360000000007
20
-115.9121439999999978
11
106.3271149999999921
21
-115.7722830000000016
0
LINE
8
BLACK
6
CONTINUOUS
10
106.3271149999999921
20
-115.7722830000000016
11
106.2020059999999972
21
-115.6066110000000009
0
LINE
8
BLACK
6
CONTINUOUS
10
106.2020059999999972
20
-115.6066110000000009
11
106.10946899999999
21
-115.4207719999999995
0
LINE
8
BLACK
6
CONTINUOUS
10
106.10946899999999
20
-115.4207719999999995
11
106.0526550000000015
21
-115.2210929999999962
0
LINE
8
BLACK
6
CONTINUOUS
10
106.0526550000000015
20
-115.2210929999999962
11
106.0334999999999894
21
-115.0143750000000011
0
LINE
8
BLACK
6
CONTINUOUS
10
106.0334999999999894
20
-115.0143750000000011
11
106.0526550000000015
21
-114.8076569999999919
0
LINE
8
BLACK
6
CONTINUOUS
10
106.0526550000000015
20
-114.8076569999999919
11
106.10946899999999
21
-114.6079779999999886
0
LINE
8
BLACK
6
CONTINUOUS
10
106.10946899999999
20
-114.6079779999999886
11
106.2020059999999972
21
-114.4221390000000014
0
LINE
8
BLACK
6
CONTINUOUS
10
106.2020059999999972
20
-114.4221390000000014
11
106.3271149999999921
21
-114.2564670000000007
0
LINE
8
BLACK
6
CONTINUOUS
10
106.3271149999999921
20
-114.2564670000000007
11
106.4805360000000007
21
-114.1166059999999902
0
LINE
8
BLACK
6
CONTINUOUS
10
106.4805360000000007
20
-114.1166059999999902
11
106.6570439999999991
21
-114.0073159999999888
0
LINE
8
BLACK
6
CONTINUOUS
10
106.6570439999999991
20
-114.0073159999999888
11
106.8506289999999979
21
-113.9323210000000017
0
LINE
8
BLACK
6
CONTINUOUS
10
106.8506289999999979
20
-113.9323210000000017
11
107.0546980000000019
21
-113.8941739999999925
0
LINE
8
BLACK
6
CONTINUOUS
10
107.0546980000000019
20
-113.8941739999999925
11
107.2623019999999912
21
-113.8941739999999925
0
LINE
8
BLACK
6
CONTINUOUS
10
107.2623019999999912
20
-113.8941739999999925
11
107.4663709999999952
21
-113.9323210000000017
0
LINE
8
BLACK
6
CONTINUOUS
10
106.0972769999999912
20
-115.2127519999999947
11
106.1517979999999994
21
-115.4043729999999925
0
LINE
8
BLACK
6
CONTINUOUS
10
106.1517979999999994
20
-115.4043729999999925
11
106.2406009999999981
21
-115.5827139999999957
0
LINE
8
BLACK
6
CONTINUOUS
10
106.2406009999999981
20
-115.5827139999999957
11
106.3606619999999907
21
-115.7416999999999945
0
LINE
8
BLACK
6
CONTINUOUS
10
106.3606619999999907
20
-115.7416999999999945
11
106.5078929999999957
21
-115.8759179999999986
0
LINE
8
BLACK
6
CONTINUOUS
10
106.5078929999999957
20
-115.8759179999999986
11
106.6772789999999986
21
-115.980797999999993
0
LINE
8
BLACK
6
CONTINUOUS
10
106.6772789999999986
20
-115.980797999999993
11
106.8630519999999962
21
-116.0527669999999887
0
LINE
8
BLACK
6
CONTINUOUS
10
106.8630519999999962
20
-116.0527669999999887
11
107.0588869999999986
21
-116.0893749999999898
0
LINE
8
BLACK
6
CONTINUOUS
10
107.0588869999999986
20
-116.0893749999999898
11
107.2581129999999945
21
-116.0893749999999898
0
LINE
8
BLACK
6
CONTINUOUS
10
107.2581129999999945
20
-116.0893749999999898
11
107.4539479999999969
21
-116.0527669999999887
0
LINE
8
BLACK
6
CONTINUOUS
10
107.4539479999999969
20
-116.0527669999999887
11
107.6397209999999944
21
-115.980797999999993
0
LINE
8
BLACK
6
CONTINUOUS
10
107.6397209999999944
20
-115.980797999999993
11
107.8091069999999974
21
-115.8759179999999986
0
LINE
8
BLACK
6
CONTINUOUS
10
107.8091069999999974
20
-115.8759179999999986
11
107.9563379999999881
21
-115.7416999999999945
0
LINE
8
BLACK
6
CONTINUOUS
10
107.9563379999999881
20
-115.7416999999999945
11
108.076398999999995
21
-115.5827139999999957
0
LINE
8
BLACK
6
CONTINUOUS
10
108.076398999999995
20
-115.5827139999999957
11
108.1652019999999936
21
-115.4043729999999925
0
LINE
8
BLACK
6
CONTINUOUS
10
108.1652019999999936
20
-115.4043729999999925
11
108.2197230000000019
21
-115.2127519999999947
0
LINE
8
BLACK
6
CONTINUOUS
10
108.2197230000000019
20
-115.2127519999999947
11
108.2381049999999902
21
-115.0143750000000011
0
LINE
8
BLACK
6
CONTINUOUS
10
108.2381049999999902
20
-115.0143750000000011
11
108.2197230000000019
21
-114.8159979999999933
0
LINE
8
BLACK
6
CONTINUOUS
10
108.2197230000000019
20
-114.8159979999999933
11
108.1652019999999936
21
-114.6243769999999955
0
LINE
8
BLACK
6
CONTINUOUS
10
108.1652019999999936
20
-114.6243769999999955
11
108.076398999999995
21
-114.4460359999999923
0
LINE
8
BLACK
6
CONTINUOUS
10
108.076398999999995
20
-114.4460359999999923
11
107.9563379999999881
21
-114.2870499999999936
0
LINE
8
BLACK
6
CONTINUOUS
10
107.9563379999999881
20
-114.2870499999999936
11
107.8091069999999974
21
-114.1528319999999894
0
LINE
8
BLACK
6
CONTINUOUS
10
107.8091069999999974
20
-114.1528319999999894
11
107.6397209999999944
21
-114.0479519999999951
0
LINE
8
BLACK
6
CONTINUOUS
10
107.6397209999999944
20
-114.0479519999999951
11
107.4539479999999969
21
-113.9759829999999994
0
LINE
8
BLACK
6
CONTINUOUS
10
107.4539479999999969
20
-113.9759829999999994
11
107.2581129999999945
21
-113.9393749999999983
0
LINE
8
BLACK
6
CONTINUOUS
10
107.2581129999999945
20
-113.9393749999999983
11
107.0588869999999986
21
-113.9393749999999983
0
LINE
8
BLACK
6
CONTINUOUS
10
107.0588869999999986
20
-113.9393749999999983
11
106.8630519999999962
21
-113.9759829999999994
0
LINE
8
BLACK
6
CONTINUOUS
10
106.8630519999999962
20
-113.9759829999999994
11
106.6772789999999986
21
-114.0479519999999951
0
LINE
8
BLACK
6
CONTINUOUS
10
106.6772789999999986
20
-114.0479519999999951
11
106.5078929999999957
21
-114.1528319999999894
0
LINE
8
BLACK
6
CONTINUOUS
10
106.5078929999999957
20
-114.1528319999999894
11
106.3606619999999907
21
-114.2870499999999936
0
LINE
8
BLACK
6
CONTINUOUS
10
106.3606619999999907
20
-114.2870499999999936
11
106.2406009999999981
21
-114.4460359999999923
0
LINE
8
BLACK
6
CONTINUOUS
10
106.2406009999999981
20
-114.4460359999999923
11
106.1517979999999994
21
-114.6243769999999955
0
LINE
8
BLACK
6
CONTINUOUS
10
106.1517979999999994
20
-114.6243769999999955
11
106.0972769999999912
21
-114.8159979999999933
0
LINE
8
BLACK
6
CONTINUOUS
10
106.0972769999999912
20
-114.8159979999999933
11
106.0788949999999886
21
-115.0143750000000011
0
LINE
8
BLACK
6
CONTINUOUS
10
106.0788949999999886
20
-115.0143750000000011
11
106.0972769999999912
21
-115.2127519999999947
0
LINE
8
BLACK
6
CONTINUOUS
10
202.7183709999999905
20
-113.9323210000000017
11
202.9119560000000035
21
-114.0073159999999888
0
LINE
8
BLACK
6
CONTINUOUS
10
202.9119560000000035
20
-114.0073159999999888
11
203.0884639999999877
21
-114.1166059999999902
0
LINE
8
BLACK
6
CONTINUOUS
10
203.0884639999999877
20
-114.1166059999999902
11
203.2418849999999964
21
-114.2564670000000007
0
LINE
8
BLACK
6
CONTINUOUS
10
203.2418849999999964
20
-114.2564670000000007
11
203.3669939999999769
21
-114.4221390000000014
0
LINE
8
BLACK
6
CONTINUOUS
10
203.3669939999999769
20
-114.4221390000000014
11
203.4595309999999984
21
-114.6079779999999886
0
LINE
8
BLACK
6
CONTINUOUS
10
203.4595309999999984
20
-114.6079779999999886
11
203.5163450000000012
21
-114.8076569999999919
0
LINE
8
BLACK
6
CONTINUOUS
10
203.5163450000000012
20
-114.8076569999999919
11
203.5354999999999848
21
-115.0143750000000011
0
LINE
8
BLACK
6
CONTINUOUS
10
203.5354999999999848
20
-115.0143750000000011
11
203.5163450000000012
21
-115.2210929999999962
0
LINE
8
BLACK
6
CONTINUOUS
10
203.5163450000000012
20
-115.2210929999999962
11
203.4595309999999984
21
-115.4207719999999995
0
LINE
8
BLACK
6
CONTINUOUS
10
203.4595309999999984
20
-115.4207719999999995
11
203.3669939999999769
21
-115.6066110000000009
0
LINE
8
BLACK
6
CONTINUOUS
10
203.3669939999999769
20
-115.6066110000000009
11
203.2418849999999964
21
-115.7722830000000016
0
LINE
8
BLACK
6
CONTINUOUS
10
203.2418849999999964
20
-115.7722830000000016
11
203.0884639999999877
21
-115.9121439999999978
0
LINE
8
BLACK
6
CONTINUOUS
10
203.0884639999999877
20
-115.9121439999999978
11
202.9119560000000035
21
-116.0214339999999993
0
LINE
8
BLACK
6
CONTINUOUS
10
202.9119560000000035
20
-116.0214339999999993
11
202.7183709999999905
21
-116.0964290000000005
0
LINE
8
BLACK
6
CONTINUOUS
10
202.7183709999999905
20
-116.0964290000000005
11
202.5143019999999865
21
-116.1345759999999956
0
LINE
8
BLACK
6
CONTINUOUS
10
202.5143019999999865
20
-116.1345759999999956
11
202.306697999999983
21
-116.1345759999999956
0
LINE
8
BLACK
6
CONTINUOUS
10
202.306697999999983
20
-116.1345759999999956
11
202.102628999999979
21
-116.0964290000000005
0
LINE
8
BLACK
6
CONTINUOUS
10
202.102628999999979
20
-116.0964290000000005
11
201.9090439999999944
21
-116.0214339999999993
0
LINE
8
BLACK
6
CONTINUOUS
10
201.9090439999999944
20
-116.0214339999999993
11
201.7325359999999819
21
-115.9121439999999978
0
LINE
8
BLACK
6
CONTINUOUS
10
201.7325359999999819
20
-115.9121439999999978
11
201.5791150000000016
21
-115.7722830000000016
0
LINE
8
BLACK
6
CONTINUOUS
10
201.5791150000000016
20
-115.7722830000000016
11
201.4540059999999926
21
-115.6066110000000009
0
LINE
8
BLACK
6
CONTINUOUS
10
201.4540059999999926
20
-115.6066110000000009
11
201.3614689999999996
21
-115.4207719999999995
0
LINE
8
BLACK
6
CONTINUOUS
10
201.3614689999999996
20
-115.4207719999999995
11
201.3046549999999968
21
-115.2210929999999962
0
LINE
8
BLACK
6
CONTINUOUS
10
201.3046549999999968
20
-115.2210929999999962
11
201.2854999999999848
21
-115.0143750000000011
0
LINE
8
BLACK
6
CONTINUOUS
10
201.2854999999999848
20
-115.0143750000000011
11
201.3046549999999968
21
-114.8076569999999919
0
LINE
8
BLACK
6
CONTINUOUS
10
201.3046549999999968
20
-114.8076569999999919
11
201.3614689999999996
21
-114.6079779999999886
0
LINE
8
BLACK
6
CONTINUOUS
10
201.3614689999999996
20
-114.6079779999999886
11
201.4540059999999926
21
-114.4221390000000014
0
LINE
8
BLACK
6
CONTINUOUS
10
201.4540059999999926
20
-114.4221390000000014
11
201.5791150000000016
21
-114.2564670000000007
0
LINE
8
BLACK
6
CONTINUOUS
10
201.5791150000000016
20
-114.2564670000000007
11
201.7325359999999819
21
-114.1166059999999902
0
LINE
8
BLACK
6
CONTINUOUS
10
201.7325359999999819
20
-114.1166059999999902
11
201.9090439999999944
21
-114.0073159999999888
0
LINE
8
BLACK
6
CONTINUOUS
10
201.9090439999999944
20
-114.0073159999999888
11
202.102628999999979
21
-113.9323210000000017
0
LINE
8
BLACK
6
CONTINUOUS
10
202.102628999999979
20
-113.9323210000000017
11
202.306697999999983
21
-113.8941739999999925
0
LINE
8
BLACK
6
CONTINUOUS
10
202.306697999999983
20
-113.8941739999999925
11
202.5143019999999865
21
-113.8941739999999925
0
LINE
8
BLACK
6
CONTINUOUS
10
202.5143019999999865
20
-113.8941739999999925
11
202.7183709999999905
21
-113.9323210000000017
0
LINE
8
BLACK
6
CONTINUOUS
10
201.3492770000000007
20
-115.2127519999999947
11
201.4037979999999948
21
-115.4043729999999925
0
LINE
8
BLACK
6
CONTINUOUS
10
201.4037979999999948
20
-115.4043729999999925
11
201.4926009999999792
21
-115.5827139999999957
0
LINE
8
BLACK
6
CONTINUOUS
10
201.4926009999999792
20
-115.5827139999999957
11
201.6126620000000003
21
-115.7416999999999945
0
LINE
8
BLACK
6
CONTINUOUS
10
201.6126620000000003
20
-115.7416999999999945
11
201.7598929999999768
21
-115.8759179999999986
0
LINE
8
BLACK
6
CONTINUOUS
10
201.7598929999999768
20
-115.8759179999999986
11
201.9292789999999798
21
-115.980797999999993
0
LINE
8
BLACK
6
CONTINUOUS
10
201.9292789999999798
20
-115.980797999999993
11
202.1150519999999915
21
-116.0527669999999887
0
LINE
8
BLACK
6
CONTINUOUS
10
202.1150519999999915
20
-116.0527669999999887
11
202.3108869999999797
21
-116.0893749999999898
0
LINE
8
BLACK
6
CONTINUOUS
10
202.3108869999999797
20
-116.0893749999999898
11
202.5101129999999898
21
-116.0893749999999898
0
LINE
8
BLACK
6
CONTINUOUS
10
202.5101129999999898
20
-116.0893749999999898
11
202.705947999999978
21
-116.0527669999999887
0
LINE
8
BLACK
6
CONTINUOUS
10
202.705947999999978
20
-116.0527669999999887
11
202.8917209999999898
21
-115.980797999999993
0
LINE
8
BLACK
6
CONTINUOUS
10
202.8917209999999898
20
-115.980797999999993
11
203.0611069999999927
21
-115.8759179999999986
0
LINE
8
BLACK
6
CONTINUOUS
10
203.0611069999999927
20
-115.8759179999999986
11
203.2083379999999977
21
-115.7416999999999945
0
LINE
8
BLACK
6
CONTINUOUS
10
203.2083379999999977
20
-115.7416999999999945
11
203.3283989999999903
21
-115.5827139999999957
0
LINE
8
BLACK
6
CONTINUOUS
10
203.3283989999999903
20
-115.5827139999999957
11
203.4172020000000032
21
-115.4043729999999925
0
LINE
8
BLACK
6
CONTINUOUS
10
203.4172020000000032
20
-115.4043729999999925
11
203.4717229999999972
21
-115.2127519999999947
0
LINE
8
BLACK
6
CONTINUOUS
10
203.4717229999999972
20
-115.2127519999999947
11
203.4901049999999998
21
-115.0143750000000011
0
LINE
8
BLACK
6
CONTINUOUS
10
203.4901049999999998
20
-115.0143750000000011
11
203.4717229999999972
21
-114.8159979999999933
0
LINE
8
BLACK
6
CONTINUOUS
10
203.4717229999999972
20
-114.8159979999999933
11
203.4172020000000032
21
-114.6243769999999955
0
LINE
8
BLACK
6
CONTINUOUS
10
203.4172020000000032
20
-114.6243769999999955
11
203.3283989999999903
21
-114.4460359999999923
0
LINE
8
BLACK
6
CONTINUOUS
10
203.3283989999999903
20
-114.4460359999999923
11
203.2083379999999977
21
-114.2870499999999936
0
LINE
8
BLACK
6
CONTINUOUS
10
203.2083379999999977
20
-114.2870499999999936
11
203.0611069999999927
21
-114.1528319999999894
0
LINE
8
BLACK
6
CONTINUOUS
10
203.0611069999999927
20
-114.1528319999999894
11
202.8917209999999898
21
-114.0479519999999951
0
LINE
8
BLACK
6
CONTINUOUS
10
202.8917209999999898
20
-114.0479519999999951
11
202.705947999999978
21
-113.9759829999999994
0
LINE
8
BLACK
6
CONTINUOUS
10
202.705947999999978
20
-113.9759829999999994
11
202.5101129999999898
21
-113.9393749999999983
0
LINE
8
BLACK
6
CONTINUOUS
10
202.5101129999999898
20
-113.9393749999999983
11
202.3108869999999797
21
-113.9393749999999983
0
LINE
8
BLACK
6
CONTINUOUS
10
202.3108869999999797
20
-113.9393749999999983
11
202.1150519999999915
21
-113.9759829999999994
0
LINE
8
BLACK
6
CONTINUOUS
10
202.1150519999999915
20
-113.9759829999999994
11
201.9292789999999798
21
-114.0479519999999951
0
LINE
8
BLACK
6
CONTINUOUS
10
201.9292789999999798
20
-114.0479519999999951
11
201.7598929999999768
21
-114.1528319999999894
0
LINE
8
BLACK
6
CONTINUOUS
10
201.7598929999999768
20
-114.1528319999999894
11
201.6126620000000003
21
-114.2870499999999936
0
LINE
8
BLACK
6
CONTINUOUS
10
201.6126620000000003
20
-114.2870499999999936
11
201.4926009999999792
21
-114.4460359999999923
0
LINE
8
BLACK
6
CONTINUOUS
10
201.4926009999999792
20
-114.4460359999999923
11
201.4037979999999948
21
-114.6243769999999955
0
LINE
8
BLACK
6
CONTINUOUS
10
201.4037979999999948
20
-114.6243769999999955
11
201.3492770000000007
21
-114.8159979999999933
0
LINE
8
BLACK
6
CONTINUOUS
10
201.3492770000000007
20
-114.8159979999999933
11
201.3308949999999982
21
-115.0143750000000011
0
LINE
8
BLACK
6
CONTINUOUS
10
201.3308949999999982
20
-115.0143750000000011
11
201.3492770000000007
21
-115.2127519999999947
0
LINE
8
BLACK
6
CONTINUOUS
10
257.4882709999999975
20
-113.9323210000000017
11
257.681855999999982
21
-114.0073159999999888
0
LINE
8
BLACK
6
CONTINUOUS
10
257.681855999999982
20
-114.0073159999999888
11
257.8583639999999946
21
-114.1166059999999902
0
LINE
8
BLACK
6
CONTINUOUS
10
257.8583639999999946
20
-114.1166059999999902
11
258.0117849999999748
21
-114.2564670000000007
0
LINE
8
BLACK
6
CONTINUOUS
10
258.0117849999999748
20
-114.2564670000000007
11
258.1368939999999839
21
-114.4221390000000014
0
LINE
8
BLACK
6
CONTINUOUS
10
258.1368939999999839
20
-114.4221390000000014
11
258.2294309999999768
21
-114.6079779999999886
0
LINE
8
BLACK
6
CONTINUOUS
10
258.2294309999999768
20
-114.6079779999999886
11
258.2862450000000081
21
-114.8076569999999919
0
LINE
8
BLACK
6
CONTINUOUS
10
258.2862450000000081
20
-114.8076569999999919
11
258.3053999999999633
21
-115.0143750000000011
0
LINE
8
BLACK
6
CONTINUOUS
10
258.3053999999999633
20
-115.0143750000000011
11
258.2862450000000081
21
-115.2210929999999962
0
LINE
8
BLACK
6
CONTINUOUS
10
258.2862450000000081
20
-115.2210929999999962
11
258.2294309999999768
21
-115.4207719999999995
0
LINE
8
BLACK
6
CONTINUOUS
10
258.2294309999999768
20
-115.4207719999999995
11
258.1368939999999839
21
-115.6066110000000009
0
LINE
8
BLACK
6
CONTINUOUS
10
258.1368939999999839
20
-115.6066110000000009
11
258.0117849999999748
21
-115.7722830000000016
0
LINE
8
BLACK
6
CONTINUOUS
10
258.0117849999999748
20
-115.7722830000000016
11
257.8583639999999946
21
-115.9121439999999978
0
LINE
8
BLACK
6
CONTINUOUS
10
257.8583639999999946
20
-115.9121439999999978
11
257.681855999999982
21
-116.0214339999999993
0
LINE
8
BLACK
6
CONTINUOUS
10
257.681855999999982
20
-116.0214339999999993
11
257.4882709999999975
21
-116.0964290000000005
0
LINE
8
BLACK
6
CONTINUOUS
10
257.4882709999999975
20
-116.0964290000000005
11
257.2842019999999934
21
-116.1345759999999956
0
LINE
8
BLACK
6
CONTINUOUS
10
257.2842019999999934
20
-116.1345759999999956
11
257.07659799999999
21
-116.1345759999999956
0
LINE
8
BLACK
6
CONTINUOUS
10
257.07659799999999
20
-116.1345759999999956
11
256.8725289999999859
21
-116.0964290000000005
0
LINE
8
BLACK
6
CONTINUOUS
10
256.8725289999999859
20
-116.0964290000000005
11
256.6789440000000013
21
-116.0214339999999993
0
LINE
8
BLACK
6
CONTINUOUS
10
256.6789440000000013
20
-116.0214339999999993
11
256.5024359999999888
21
-115.9121439999999978
0
LINE
8
BLACK
6
CONTINUOUS
10
256.5024359999999888
20
-115.9121439999999978
11
256.3490150000000085
21
-115.7722830000000016
0
LINE
8
BLACK
6
CONTINUOUS
10
256.3490150000000085
20
-115.7722830000000016
11
256.2239059999999995
21
-115.6066110000000009
0
LINE
8
BLACK
6
CONTINUOUS
10
256.2239059999999995
20
-115.6066110000000009
11
256.1313690000000065
21
-115.4207719999999995
0
LINE
8
BLACK
6
CONTINUOUS
10
256.1313690000000065
20
-115.4207719999999995
11
256.0745549999999753
21
-115.2210929999999962
0
LINE
8
BLACK
6
CONTINUOUS
10
256.0745549999999753
20
-115.2210929999999962
11
256.0553999999999633
21
-115.0143750000000011
0
LINE
8
BLACK
6
CONTINUOUS
10
256.0553999999999633
20
-115.0143750000000011
11
256.0745549999999753
21
-114.8076569999999919
0
LINE
8
BLACK
6
CONTINUOUS
10
256.0745549999999753
20
-114.8076569999999919
11
256.1313690000000065
21
-114.6079779999999886
0
LINE
8
BLACK
6
CONTINUOUS
10
256.1313690000000065
20
-114.6079779999999886
11
256.2239059999999995
21
-114.4221390000000014
0
LINE
8
BLACK
6
CONTINUOUS
10
256.2239059999999995
20
-114.4221390000000014
11
256.3490150000000085
21
-114.2564670000000007
0
LINE
8
BLACK
6
CONTINUOUS
10
256.3490150000000085
20
-114.2564670000000007
11
256.5024359999999888
21
-114.1166059999999902
0
LINE
8
BLACK
6
CONTINUOUS
10
256.5024359999999888
20
-114.1166059999999902
11
256.6789440000000013
21
-114.0073159999999888
0
LINE
8
BLACK
6
CONTINUOUS
10
256.6789440000000013
20
-114.0073159999999888
11
256.8725289999999859
21
-113.9323210000000017
0
LINE
8
BLACK
6
CONTINUOUS
10
256.8725289999999859
20
-113.9323210000000017
11
257.07659799999999
21
-113.8941739999999925
0
LINE
8
BLACK
6
CONTINUOUS
10
257.07659799999999
20
-113.8941739999999925
11
257.2842019999999934
21
-113.8941739999999925
0
LINE
8
BLACK
6
CONTINUOUS
10
257.2842019999999934
20
-113.8941739999999925
11
257.4882709999999975
21
-113.9323210000000017
0
LINE
8
BLACK
6
CONTINUOUS
10
256.1191769999999792
20
-115.2127519999999947
11
256.1736980000000017
21
-115.4043729999999925
0
LINE
8
BLACK
6
CONTINUOUS
10
256.1736980000000017
20
-115.4043729999999925
11
256.2625009999999861
21
-115.5827139999999957
0
LINE
8
BLACK
6
CONTINUOUS
10
256.2625009999999861
20
-115.5827139999999957
11
256.3825620000000072
21
-115.7416999999999945
0
LINE
8
BLACK
6
CONTINUOUS
10
256.3825620000000072
20
-115.7416999999999945
11
256.5297929999999837
21
-115.8759179999999986
0
LINE
8
BLACK
6
CONTINUOUS
10
256.5297929999999837
20
-115.8759179999999986
11
256.6991790000000151
21
-115.980797999999993
0
LINE
8
BLACK
6
CONTINUOUS
10
256.6991790000000151
20
-115.980797999999993
11
256.8849519999999984
21
-116.0527669999999887
0
LINE
8
BLACK
6
CONTINUOUS
10
256.8849519999999984
20
-116.0527669999999887
11
257.0807869999999866
21
-116.0893749999999898
0
LINE
8
BLACK
6
CONTINUOUS
10
257.0807869999999866
20
-116.0893749999999898
11
257.2800129999999967
21
-116.0893749999999898
0
LINE
8
BLACK
6
CONTINUOUS
10
257.2800129999999967
20
-116.0893749999999898
11
257.4758479999999849
21
-116.0527669999999887
0
LINE
8
BLACK
6
CONTINUOUS
10
257.4758479999999849
20
-116.0527669999999887
11
257.6616209999999683
21
-115.980797999999993
0
LINE
8
BLACK
6
CONTINUOUS
10
257.6616209999999683
20
-115.980797999999993
11
257.8310069999999996
21
-115.8759179999999986
0
LINE
8
BLACK
6
CONTINUOUS
10
257.8310069999999996
20
-115.8759179999999986
11
257.9782379999999762
21
-115.7416999999999945
0
LINE
8
BLACK
6
CONTINUOUS
10
257.9782379999999762
20
-115.7416999999999945
11
258.0982989999999972
21
-115.5827139999999957
0
LINE
8
BLACK
6
CONTINUOUS
10
258.0982989999999972
20
-115.5827139999999957
11
258.1871019999999817
21
-115.4043729999999925
0
LINE
8
BLACK
6
CONTINUOUS
10
258.1871019999999817
20
-115.4043729999999925
11
258.2416230000000041
21
-115.2127519999999947
0
LINE
8
BLACK
6
CONTINUOUS
10
258.2416230000000041
20
-115.2127519999999947
11
258.2600049999999783
21
-115.0143750000000011
0
LINE
8
BLACK
6
CONTINUOUS
10
258.2600049999999783
20
-115.0143750000000011
11
258.2416230000000041
21
-114.8159979999999933
0
LINE
8
BLACK
6
CONTINUOUS
10
258.2416230000000041
20
-114.8159979999999933
11
258.1871019999999817
21
-114.6243769999999955
0
LINE
8
BLACK
6
CONTINUOUS
10
258.1871019999999817
20
-114.6243769999999955
11
258.0982989999999972
21
-114.4460359999999923
0
LINE
8
BLACK
6
CONTINUOUS
10
258.0982989999999972
20
-114.4460359999999923
11
257.9782379999999762
21
-114.2870499999999936
0
LINE
8
BLACK
6
CONTINUOUS
10
257.9782379999999762
20
-114.2870499999999936
11
257.8310069999999996
21
-114.1528319999999894
0
LINE
8
BLACK
6
CONTINUOUS
10
257.8310069999999996
20
-114.1528319999999894
11
257.6616209999999683
21
-114.0479519999999951
0
LINE
8
BLACK
6
CONTINUOUS
10
257.6616209999999683
20
-114.0479519999999951
11
257.4758479999999849
21
-113.9759829999999994
0
LINE
8
BLACK
6
CONTINUOUS
10
257.4758479999999849
20
-113.9759829999999994
11
257.2800129999999967
21
-113.9393749999999983
0
LINE
8
BLACK
6
CONTINUOUS
10
257.2800129999999967
20
-113.9393749999999983
11
257.0807869999999866
21
-113.9393749999999983
0
LINE
8
BLACK
6
CONTINUOUS
10
257.0807869999999866
20
-113.9393749999999983
11
256.8849519999999984
21
-113.9759829999999994
0
LINE
8
BLACK
6
CONTINUOUS
10
256.8849519999999984
20
-113.9759829999999994
11
256.6991790000000151
21
-114.0479519999999951
0
LINE
8
BLACK
6
CONTINUOUS
10
256.6991790000000151
20
-114.0479519999999951
11
256.5297929999999837
21
-114.1528319999999894
0
LINE
8
BLACK
6
CONTINUOUS
10
256.5297929999999837
20
-114.1528319999999894
11
256.3825620000000072
21
-114.2870499999999936
0
LINE
8
BLACK
6
CONTINUOUS
10
256.3825620000000072
20
-114.2870499999999936
11
256.2625009999999861
21
-114.4460359999999923
0
LINE
8
BLACK
6
CONTINUOUS
10
256.2625009999999861
20
-114.4460359999999923
11
256.1736980000000017
21
-114.6243769999999955
0
LINE
8
BLACK
6
CONTINUOUS
10
256.1736980000000017
20
-114.6243769999999955
11
256.1191769999999792
21
-114.8159979999999933
0
LINE
8
BLACK
6
CONTINUOUS
10
256.1191769999999792
20
-114.8159979999999933
11
256.1007950000000051
21
-115.0143750000000011
0
LINE
8
BLACK
6
CONTINUOUS
10
256.1007950000000051
20
-115.0143750000000011
11
256.1191769999999792
21
-115.2127519999999947
0
LINE
8
BLACK
6
CONTINUOUS
10
43.1703709999999958
20
-94.1679460000000006
11
43.3639559999999946
21
-94.2429410000000018
0
LINE
8
BLACK
6
CONTINUOUS
10
43.3639559999999946
20
-94.2429410000000018
11
43.5404640000000001
21
-94.3522309999999891
0
LINE
8
BLACK
6
CONTINUOUS
10
43.5404640000000001
20
-94.3522309999999891
11
43.6938849999999945
21
-94.4920919999999995
0
LINE
8
BLACK
6
CONTINUOUS
10
43.6938849999999945
20
-94.4920919999999995
11
43.8189939999999964
21
-94.6577640000000002
0
LINE
8
BLACK
6
CONTINUOUS
10
43.8189939999999964
20
-94.6577640000000002
11
43.9115309999999965
21
-94.8436030000000017
0
LINE
8
BLACK
6
CONTINUOUS
10
43.9115309999999965
20
-94.8436030000000017
11
43.9683449999999993
21
-95.0432819999999907
0
LINE
8
BLACK
6
CONTINUOUS
10
43.9683449999999993
20
-95.0432819999999907
11
43.9874999999999972
21
-95.25
0
LINE
8
BLACK
6
CONTINUOUS
10
43.9874999999999972
20
-95.25
11
43.9683449999999993
21
-95.4567179999999951
0
LINE
8
BLACK
6
CONTINUOUS
10
43.9683449999999993
20
-95.4567179999999951
11
43.9115309999999965
21
-95.6563969999999983
0
LINE
8
BLACK
6
CONTINUOUS
10
43.9115309999999965
20
-95.6563969999999983
11
43.8189939999999964
21
-95.8422359999999998
0
LINE
8
BLACK
6
CONTINUOUS
10
43.8189939999999964
20
-95.8422359999999998
11
43.6938849999999945
21
-96.0079080000000005
0
LINE
8
BLACK
6
CONTINUOUS
10
43.6938849999999945
20
-96.0079080000000005
11
43.5404640000000001
21
-96.1477689999999967
0
LINE
8
BLACK
6
CONTINUOUS
10
43.5404640000000001
20
-96.1477689999999967
11
43.3639559999999946
21
-96.2570589999999982
0
LINE
8
BLACK
6
CONTINUOUS
10
43.3639559999999946
20
-96.2570589999999982
11
43.1703709999999958
21
-96.3320539999999994
0
LINE
8
BLACK
6
CONTINUOUS
10
43.1703709999999958
20
-96.3320539999999994
11
42.9663019999999989
21
-96.3702009999999945
0
LINE
8
BLACK
6
CONTINUOUS
10
42.9663019999999989
20
-96.3702009999999945
11
42.7586979999999954
21
-96.3702009999999945
0
LINE
8
BLACK
6
CONTINUOUS
10
42.7586979999999954
20
-96.3702009999999945
11
42.5546289999999985
21
-96.3320539999999994
0
LINE
8
BLACK
6
CONTINUOUS
10
42.5546289999999985
20
-96.3320539999999994
11
42.3610439999999997
21
-96.2570589999999982
0
LINE
8
BLACK
6
CONTINUOUS
10
42.3610439999999997
20
-96.2570589999999982
11
42.1845360000000014
21
-96.1477689999999967
0
LINE
8
BLACK
6
CONTINUOUS
10
42.1845360000000014
20
-96.1477689999999967
11
42.0311149999999998
21
-96.0079080000000005
0
LINE
8
BLACK
6
CONTINUOUS
10
42.0311149999999998
20
-96.0079080000000005
11
41.9060059999999979
21
-95.8422359999999998
0
LINE
8
BLACK
6
CONTINUOUS
10
41.9060059999999979
20
-95.8422359999999998
11
41.8134689999999978
21
-95.6563969999999983
0
LINE
8
BLACK
6
CONTINUOUS
10
41.8134689999999978
20
-95.6563969999999983
11
41.756654999999995
21
-95.4567179999999951
0
LINE
8
BLACK
6
CONTINUOUS
10
41.756654999999995
20
-95.4567179999999951
11
41.7374999999999972
21
-95.25
0
LINE
8
BLACK
6
CONTINUOUS
10
41.7374999999999972
20
-95.25
11
41.756654999999995
21
-95.0432819999999907
0
LINE
8
BLACK
6
CONTINUOUS
10
41.756654999999995
20
-95.0432819999999907
11
41.8134689999999978
21
-94.8436030000000017
0
LINE
8
BLACK
6
CONTINUOUS
10
41.8134689999999978
20
-94.8436030000000017
11
41.9060059999999979
21
-94.6577640000000002
0
LINE
8
BLACK
6
CONTINUOUS
10
41.9060059999999979
20
-94.6577640000000002
11
42.0311149999999998
21
-94.4920919999999995
0
LINE
8
BLACK
6
CONTINUOUS
10
42.0311149999999998
20
-94.4920919999999995
11
42.1845360000000014
21
-94.3522309999999891
0
LINE
8
BLACK
6
CONTINUOUS
10
42.1845360000000014
20
-94.3522309999999891
11
42.3610439999999997
21
-94.2429410000000018
0
LINE
8
BLACK
6
CONTINUOUS
10
42.3610439999999997
20
-94.2429410000000018
11
42.5546289999999985
21
-94.1679460000000006
0
LINE
8
BLACK
6
CONTINUOUS
10
42.5546289999999985
20
-94.1679460000000006
11
42.7586979999999954
21
-94.1297989999999913
0
LINE
8
BLACK
6
CONTINUOUS
10
42.7586979999999954
20
-94.1297989999999913
11
42.9663019999999989
21
-94.1297989999999913
0
LINE
8
BLACK
6
CONTINUOUS
10
42.9663019999999989
20
-94.1297989999999913
11
43.1703709999999958
21
-94.1679460000000006
0
LINE
8
BLACK
6
CONTINUOUS
10
41.8012769999999989
20
-95.4483769999999936
11
41.8557980000000001
21
-95.6399979999999914
0
LINE
8
BLACK
6
CONTINUOUS
10
41.8557980000000001
20
-95.6399979999999914
11
41.9446009999999987
21
-95.8183389999999946
0
LINE
8
BLACK
6
CONTINUOUS
10
41.9446009999999987
20
-95.8183389999999946
11
42.0646619999999984
21
-95.9773249999999933
0
LINE
8
BLACK
6
CONTINUOUS
10
42.0646619999999984
20
-95.9773249999999933
11
42.2118929999999963
21
-96.1115429999999975
0
LINE
8
BLACK
6
CONTINUOUS
10
42.2118929999999963
20
-96.1115429999999975
11
42.3812789999999993
21
-96.2164229999999918
0
LINE
8
BLACK
6
CONTINUOUS
10
42.3812789999999993
20
-96.2164229999999918
11
42.5670519999999968
21
-96.2883920000000018
0
LINE
8
BLACK
6
CONTINUOUS
10
42.5670519999999968
20
-96.2883920000000018
11
42.7628869999999992
21
-96.3249999999999886
0
LINE
8
BLACK
6
CONTINUOUS
10
42.7628869999999992
20
-96.3249999999999886
11
42.9621129999999951
21
-96.3249999999999886
0
LINE
8
BLACK
6
CONTINUOUS
10
42.9621129999999951
20
-96.3249999999999886
11
43.1579479999999975
21
-96.2883920000000018
0
LINE
8
BLACK
6
CONTINUOUS
10
43.1579479999999975
20
-96.2883920000000018
11
43.3437209999999951
21
-96.2164229999999918
0
LINE
8
BLACK
6
CONTINUOUS
10
43.3437209999999951
20
-96.2164229999999918
11
43.513106999999998
21
-96.1115429999999975
0
LINE
8
BLACK
6
CONTINUOUS
10
43.513106999999998
20
-96.1115429999999975
11
43.6603379999999959
21
-95.9773249999999933
0
LINE
8
BLACK
6
CONTINUOUS
10
43.6603379999999959
20
-95.9773249999999933
11
43.7803989999999956
21
-95.8183389999999946
0
LINE
8
BLACK
6
CONTINUOUS
10
43.7803989999999956
20
-95.8183389999999946
11
43.8692020000000014
21
-95.6399979999999914
0
LINE
8
BLACK
6
CONTINUOUS
10
43.8692020000000014
20
-95.6399979999999914
11
43.9237229999999954
21
-95.4483769999999936
0
LINE
8
BLACK
6
CONTINUOUS
10
43.9237229999999954
20
-95.4483769999999936
11
43.942104999999998
21
-95.25
0
LINE
8
BLACK
6
CONTINUOUS
10
43.942104999999998
20
-95.25
11
43.9237229999999954
21
-95.0516229999999922
0
LINE
8
BLACK
6
CONTINUOUS
10
43.9237229999999954
20
-95.0516229999999922
11
43.8692020000000014
21
-94.8600019999999944
0
LINE
8
BLACK
6
CONTINUOUS
10
43.8692020000000014
20
-94.8600019999999944
11
43.7803989999999956
21
-94.6816609999999912
0
LINE
8
BLACK
6
CONTINUOUS
10
43.7803989999999956
20
-94.6816609999999912
11
43.6603379999999959
21
-94.5226749999999925
0
LINE
8
BLACK
6
CONTINUOUS
10
43.6603379999999959
20
-94.5226749999999925
11
43.513106999999998
21
-94.3884570000000025
0
LINE
8
BLACK
6
CONTINUOUS
10
43.513106999999998
20
-94.3884570000000025
11
43.3437209999999951
21
-94.283576999999994
0
LINE
8
BLACK
6
CONTINUOUS
10
43.3437209999999951
20
-94.283576999999994
11
43.1579479999999975
21
-94.2116079999999982
0
LINE
8
BLACK
6
CONTINUOUS
10
43.1579479999999975
20
-94.2116079999999982
11
42.9621129999999951
21
-94.1749999999999972
0
LINE
8
BLACK
6
CONTINUOUS
10
42.9621129999999951
20
-94.1749999999999972
11
42.7628869999999992
21
-94.1749999999999972
0
LINE
8
BLACK
6
CONTINUOUS
10
42.7628869999999992
20
-94.1749999999999972
11
42.5670519999999968
21
-94.2116079999999982
0
LINE
8
BLACK
6
CONTINUOUS
10
42.5670519999999968
20
-94.2116079999999982
11
42.3812789999999993
21
-94.283576999999994
0
LINE
8
BLACK
6
CONTINUOUS
10
42.3812789999999993
20
-94.283576999999994
11
42.2118929999999963
21
-94.3884570000000025
0
LINE
8
BLACK
6
CONTINUOUS
10
42.2118929999999963
20
-94.3884570000000025
11
42.0646619999999984
21
-94.5226749999999925
0
LINE
8
BLACK
6
CONTINUOUS
10
42.0646619999999984
20
-94.5226749999999925
11
41.9446009999999987
21
-94.6816609999999912
0
LINE
8
BLACK
6
CONTINUOUS
10
41.9446009999999987
20
-94.6816609999999912
11
41.8557980000000001
21
-94.8600019999999944
0
LINE
8
BLACK
6
CONTINUOUS
10
41.8557980000000001
20
-94.8600019999999944
11
41.8012769999999989
21
-95.0516229999999922
0
LINE
8
BLACK
6
CONTINUOUS
10
41.8012769999999989
20
-95.0516229999999922
11
41.7828949999999963
21
-95.25
0
LINE
8
BLACK
6
CONTINUOUS
10
41.7828949999999963
20
-95.25
11
41.8012769999999989
21
-95.4483769999999936
0
LINE
8
BLACK
6
CONTINUOUS
10
267.0134709999999814
20
-94.1679460000000006
11
267.2070559999999659
21
-94.2429410000000018
0
LINE
8
BLACK
6
CONTINUOUS
10
267.2070559999999659
20
-94.2429410000000018
11
267.3835639999999785
21
-94.3522309999999891
0
LINE
8
BLACK
6
CONTINUOUS
10
267.3835639999999785
20
-94.3522309999999891
11
267.5369850000000156
21
-94.4920919999999995
0
LINE
8
BLACK
6
CONTINUOUS
10
267.5369850000000156
20
-94.4920919999999995
11
267.6620939999999678
21
-94.6577640000000002
0
LINE
8
BLACK
6
CONTINUOUS
10
267.6620939999999678
20
-94.6577640000000002
11
267.7546309999999607
21
-94.8436030000000017
0
LINE
8
BLACK
6
CONTINUOUS
10
267.7546309999999607
20
-94.8436030000000017
11
267.811444999999992
21
-95.0432819999999907
0
LINE
8
BLACK
6
CONTINUOUS
10
267.811444999999992
20
-95.0432819999999907
11
267.830600000000004
21
-95.25
0
LINE
8
BLACK
6
CONTINUOUS
10
267.830600000000004
20
-95.25
11
267.811444999999992
21
-95.4567179999999951
0
LINE
8
BLACK
6
CONTINUOUS
10
267.811444999999992
20
-95.4567179999999951
11
267.7546309999999607
21
-95.6563969999999983
0
LINE
8
BLACK
6
CONTINUOUS
10
267.7546309999999607
20
-95.6563969999999983
11
267.6620939999999678
21
-95.8422359999999998
0
LINE
8
BLACK
6
CONTINUOUS
10
267.6620939999999678
20
-95.8422359999999998
11
267.5369850000000156
21
-96.0079080000000005
0
LINE
8
BLACK
6
CONTINUOUS
10
267.5369850000000156
20
-96.0079080000000005
11
267.3835639999999785
21
-96.1477689999999967
0
LINE
8
BLACK
6
CONTINUOUS
10
267.3835639999999785
20
-96.1477689999999967
11
267.2070559999999659
21
-96.2570589999999982
0
LINE
8
BLACK
6
CONTINUOUS
10
267.2070559999999659
20
-96.2570589999999982
11
267.0134709999999814
21
-96.3320539999999994
0
LINE
8
BLACK
6
CONTINUOUS
10
267.0134709999999814
20
-96.3320539999999994
11
266.8094019999999773
21
-96.3702009999999945
0
LINE
8
BLACK
6
CONTINUOUS
10
266.8094019999999773
20
-96.3702009999999945
11
266.6017979999999739
21
-96.3702009999999945
0
LINE
8
BLACK
6
CONTINUOUS
10
266.6017979999999739
20
-96.3702009999999945
11
266.3977289999999698
21
-96.3320539999999994
0
LINE
8
BLACK
6
CONTINUOUS
10
266.3977289999999698
20
-96.3320539999999994
11
266.2041439999999852
21
-96.2570589999999982
0
LINE
8
BLACK
6
CONTINUOUS
10
266.2041439999999852
20
-96.2570589999999982
11
266.0276359999999727
21
-96.1477689999999967
0
LINE
8
BLACK
6
CONTINUOUS
10
266.0276359999999727
20
-96.1477689999999967
11
265.8742149999999924
21
-96.0079080000000005
0
LINE
8
BLACK
6
CONTINUOUS
10
265.8742149999999924
20
-96.0079080000000005
11
265.7491059999999834
21
-95.8422359999999998
0
LINE
8
BLACK
6
CONTINUOUS
10
265.7491059999999834
20
-95.8422359999999998
11
265.6565689999999904
21
-95.6563969999999983
0
LINE
8
BLACK
6
CONTINUOUS
10
265.6565689999999904
20
-95.6563969999999983
11
265.599755000000016
21
-95.4567179999999951
0
LINE
8
BLACK
6
CONTINUOUS
10
265.599755000000016
20
-95.4567179999999951
11
265.580600000000004
21
-95.25
0
LINE
8
BLACK
6
CONTINUOUS
10
265.580600000000004
20
-95.25
11
265.599755000000016
21
-95.0432819999999907
0
LINE
8
BLACK
6
CONTINUOUS
10
265.599755000000016
20
-95.0432819999999907
11
265.6565689999999904
21
-94.8436030000000017
0
LINE
8
BLACK
6
CONTINUOUS
10
265.6565689999999904
20
-94.8436030000000017
11
265.7491059999999834
21
-94.6577640000000002
0
LINE
8
BLACK
6
CONTINUOUS
10
265.7491059999999834
20
-94.6577640000000002
11
265.8742149999999924
21
-94.4920919999999995
0
LINE
8
BLACK
6
CONTINUOUS
10
265.8742149999999924
20
-94.4920919999999995
11
266.0276359999999727
21
-94.3522309999999891
0
LINE
8
BLACK
6
CONTINUOUS
10
266.0276359999999727
20
-94.3522309999999891
11
266.2041439999999852
21
-94.2429410000000018
0
LINE
8
BLACK
6
CONTINUOUS
10
266.2041439999999852
20
-94.2429410000000018
11
266.3977289999999698
21
-94.1679460000000006
0
LINE
8
BLACK
6
CONTINUOUS
10
266.3977289999999698
20
-94.1679460000000006
11
266.6017979999999739
21
-94.1297989999999913
0
LINE
8
BLACK
6
CONTINUOUS
10
266.6017979999999739
20
-94.1297989999999913
11
266.8094019999999773
21
-94.1297989999999913
0
LINE
8
BLACK
6
CONTINUOUS
10
266.8094019999999773
20
-94.1297989999999913
11
267.0134709999999814
21
-94.1679460000000006
0
LINE
8
BLACK
6
CONTINUOUS
10
265.6443769999999631
20
-95.4483769999999936
11
265.6988979999999856
21
-95.6399979999999914
0
LINE
8
BLACK
6
CONTINUOUS
10
265.6988979999999856
20
-95.6399979999999914
11
265.78770099999997
21
-95.8183389999999946
0
LINE
8
BLACK
6
CONTINUOUS
10
265.78770099999997
20
-95.8183389999999946
11
265.9077619999999911
21
-95.9773249999999933
0
LINE
8
BLACK
6
CONTINUOUS
10
265.9077619999999911
20
-95.9773249999999933
11
266.0549929999999677
21
-96.1115429999999975
0
LINE
8
BLACK
6
CONTINUOUS
10
266.0549929999999677
20
-96.1115429999999975
11
266.224378999999999
21
-96.2164229999999918
0
LINE
8
BLACK
6
CONTINUOUS
10
266.224378999999999
20
-96.2164229999999918
11
266.4101519999999823
21
-96.2883920000000018
0
LINE
8
BLACK
6
CONTINUOUS
10
266.4101519999999823
20
-96.2883920000000018
11
266.6059869999999705
21
-96.3249999999999886
0
LINE
8
BLACK
6
CONTINUOUS
10
266.6059869999999705
20
-96.3249999999999886
11
266.8052129999999806
21
-96.3249999999999886
0
LINE
8
BLACK
6
CONTINUOUS
10
266.8052129999999806
20
-96.3249999999999886
11
267.0010479999999689
21
-96.2883920000000018
0
LINE
8
BLACK
6
CONTINUOUS
10
267.0010479999999689
20
-96.2883920000000018
11
267.186821000000009
21
-96.2164229999999918
0
LINE
8
BLACK
6
CONTINUOUS
10
267.186821000000009
20
-96.2164229999999918
11
267.3562069999999835
21
-96.1115429999999975
0
LINE
8
BLACK
6
CONTINUOUS
10
267.3562069999999835
20
-96.1115429999999975
11
267.5034379999999601
21
-95.9773249999999933
0
LINE
8
BLACK
6
CONTINUOUS
10
267.5034379999999601
20
-95.9773249999999933
11
267.6234989999999812
21
-95.8183389999999946
0
LINE
8
BLACK
6
CONTINUOUS
10
267.6234989999999812
20
-95.8183389999999946
11
267.7123019999999656
21
-95.6399979999999914
0
LINE
8
BLACK
6
CONTINUOUS
10
267.7123019999999656
20
-95.6399979999999914
11
267.766822999999988
21
-95.4483769999999936
0
LINE
8
BLACK
6
CONTINUOUS
10
267.766822999999988
20
-95.4483769999999936
11
267.7852049999999622
21
-95.25
0
LINE
8
BLACK
6
CONTINUOUS
10
267.7852049999999622
20
-95.25
11
267.766822999999988
21
-95.0516229999999922
0
LINE
8
BLACK
6
CONTINUOUS
10
267.766822999999988
20
-95.0516229999999922
11
267.7123019999999656
21
-94.8600019999999944
0
LINE
8
BLACK
6
CONTINUOUS
10
267.7123019999999656
20
-94.8600019999999944
11
267.6234989999999812
21
-94.6816609999999912
0
LINE
8
BLACK
6
CONTINUOUS
10
267.6234989999999812
20
-94.6816609999999912
11
267.5034379999999601
21
-94.5226749999999925
0
LINE
8
BLACK
6
CONTINUOUS
10
267.5034379999999601
20
-94.5226749999999925
11
267.3562069999999835
21
-94.3884570000000025
0
LINE
8
BLACK
6
CONTINUOUS
10
267.3562069999999835
20
-94.3884570000000025
11
267.186821000000009
21
-94.283576999999994
0
LINE
8
BLACK
6
CONTINUOUS
10
267.186821000000009
20
-94.283576999999994
11
267.0010479999999689
21
-94.2116079999999982
0
LINE
8
BLACK
6
CONTINUOUS
10
267.0010479999999689
20
-94.2116079999999982
11
266.8052129999999806
21
-94.1749999999999972
0
LINE
8
BLACK
6
CONTINUOUS
10
266.8052129999999806
20
-94.1749999999999972
11
266.6059869999999705
21
-94.1749999999999972
0
LINE
8
BLACK
6
CONTINUOUS
10
266.6059869999999705
20
-94.1749999999999972
11
266.4101519999999823
21
-94.2116079999999982
0
LINE
8
BLACK
6
CONTINUOUS
10
266.4101519999999823
20
-94.2116079999999982
11
266.224378999999999
21
-94.283576999999994
0
LINE
8
BLACK
6
CONTINUOUS
10
266.224378999999999
20
-94.283576999999994
11
266.0549929999999677
21
-94.3884570000000025
0
LINE
8
BLACK
6
CONTINUOUS
10
266.0549929999999677
20
-94.3884570000000025
11
265.9077619999999911
21
-94.5226749999999925
0
LINE
8
BLACK
6
CONTINUOUS
10
265.9077619999999911
20
-94.5226749999999925
11
265.78770099999997
21
-94.6816609999999912
0
LINE
8
BLACK
6
CONTINUOUS
10
265.78770099999997
20
-94.6816609999999912
11
265.6988979999999856
21
-94.8600019999999944
0
LINE
8
BLACK
6
CONTINUOUS
10
265.6988979999999856
20
-94.8600019999999944
11
265.6443769999999631
21
-95.0516229999999922
0
LINE
8
BLACK
6
CONTINUOUS
10
265.6443769999999631
20
-95.0516229999999922
11
265.625994999999989
21
-95.25
0
LINE
8
BLACK
6
CONTINUOUS
10
265.625994999999989
20
-95.25
11
265.6443769999999631
21
-95.4483769999999936
0
LINE
8
BLACK
6
CONTINUOUS
10
126.5167709999999914
20
-78.2135710000000017
11
126.7103559999999902
21
-78.288566000000003
0
LINE
8
BLACK
6
CONTINUOUS
10
126.7103559999999902
20
-78.288566000000003
11
126.8868639999999886
21
-78.3978559999999902
0
LINE
8
BLACK
6
CONTINUOUS
10
126.8868639999999886
20
-78.3978559999999902
11
127.0402849999999972
21
-78.5377170000000007
0
LINE
8
BLACK
6
CONTINUOUS
10
127.0402849999999972
20
-78.5377170000000007
11
127.165393999999992
21
-78.7033890000000014
0
LINE
8
BLACK
6
CONTINUOUS
10
127.165393999999992
20
-78.7033890000000014
11
127.2579309999999992
21
-78.8892280000000028
0
LINE
8
BLACK
6
CONTINUOUS
10
127.2579309999999992
20
-78.8892280000000028
11
127.3147449999999878
21
-79.0889069999999919
0
LINE
8
BLACK
6
CONTINUOUS
10
127.3147449999999878
20
-79.0889069999999919
11
127.3338999999999999
21
-79.2956250000000011
0
LINE
8
BLACK
6
CONTINUOUS
10
127.3338999999999999
20
-79.2956250000000011
11
127.3147449999999878
21
-79.5023429999999962
0
LINE
8
BLACK
6
CONTINUOUS
10
127.3147449999999878
20
-79.5023429999999962
11
127.2579309999999992
21
-79.7020219999999995
0
LINE
8
BLACK
6
CONTINUOUS
10
127.2579309999999992
20
-79.7020219999999995
11
127.165393999999992
21
-79.8878610000000009
0
LINE
8
BLACK
6
CONTINUOUS
10
127.165393999999992
20
-79.8878610000000009
11
127.0402849999999972
21
-80.0535330000000016
0
LINE
8
BLACK
6
CONTINUOUS
10
127.0402849999999972
20
-80.0535330000000016
11
126.8868639999999886
21
-80.1933939999999978
0
LINE
8
BLACK
6
CONTINUOUS
10
126.8868639999999886
20
-80.1933939999999978
11
126.7103559999999902
21
-80.3026839999999993
0
LINE
8
BLACK
6
CONTINUOUS
10
126.7103559999999902
20
-80.3026839999999993
11
126.5167709999999914
21
-80.3776790000000005
0
LINE
8
BLACK
6
CONTINUOUS
10
126.5167709999999914
20
-80.3776790000000005
11
126.3127019999999874
21
-80.4158259999999956
0
LINE
8
BLACK
6
CONTINUOUS
10
126.3127019999999874
20
-80.4158259999999956
11
126.1050979999999981
21
-80.4158259999999956
0
LINE
8
BLACK
6
CONTINUOUS
10
126.1050979999999981
20
-80.4158259999999956
11
125.9010289999999941
21
-80.3776790000000005
0
LINE
8
BLACK
6
CONTINUOUS
10
125.9010289999999941
20
-80.3776790000000005
11
125.7074439999999953
21
-80.3026839999999993
0
LINE
8
BLACK
6
CONTINUOUS
10
125.7074439999999953
20
-80.3026839999999993
11
125.530935999999997
21
-80.1933939999999978
0
LINE
8
BLACK
6
CONTINUOUS
10
125.530935999999997
20
-80.1933939999999978
11
125.3775149999999883
21
-80.0535330000000016
0
LINE
8
BLACK
6
CONTINUOUS
10
125.3775149999999883
20
-80.0535330000000016
11
125.2524059999999935
21
-79.8878610000000009
0
LINE
8
BLACK
6
CONTINUOUS
10
125.2524059999999935
20
-79.8878610000000009
11
125.1598690000000005
21
-79.7020219999999995
0
LINE
8
BLACK
6
CONTINUOUS
10
125.1598690000000005
20
-79.7020219999999995
11
125.1030549999999977
21
-79.5023429999999962
0
LINE
8
BLACK
6
CONTINUOUS
10
125.1030549999999977
20
-79.5023429999999962
11
125.0838999999999999
21
-79.2956250000000011
0
LINE
8
BLACK
6
CONTINUOUS
10
125.0838999999999999
20
-79.2956250000000011
11
125.1030549999999977
21
-79.0889069999999919
0
LINE
8
BLACK
6
CONTINUOUS
10
125.1030549999999977
20
-79.0889069999999919
11
125.1598690000000005
21
-78.8892280000000028
0
LINE
8
BLACK
6
CONTINUOUS
10
125.1598690000000005
20
-78.8892280000000028
11
125.2524059999999935
21
-78.7033890000000014
0
LINE
8
BLACK
6
CONTINUOUS
10
125.2524059999999935
20
-78.7033890000000014
11
125.3775149999999883
21
-78.5377170000000007
0
LINE
8
BLACK
6
CONTINUOUS
10
125.3775149999999883
20
-78.5377170000000007
11
125.530935999999997
21
-78.3978559999999902
0
LINE
8
BLACK
6
CONTINUOUS
10
125.530935999999997
20
-78.3978559999999902
11
125.7074439999999953
21
-78.288566000000003
0
LINE
8
BLACK
6
CONTINUOUS
10
125.7074439999999953
20
-78.288566000000003
11
125.9010289999999941
21
-78.2135710000000017
0
LINE
8
BLACK
6
CONTINUOUS
10
125.9010289999999941
20
-78.2135710000000017
11
126.1050979999999981
21
-78.1754239999999925
0
LINE
8
BLACK
6
CONTINUOUS
10
126.1050979999999981
20
-78.1754239999999925
11
126.3127019999999874
21
-78.1754239999999925
0
LINE
8
BLACK
6
CONTINUOUS
10
126.3127019999999874
20
-78.1754239999999925
11
126.5167709999999914
21
-78.2135710000000017
0
LINE
8
BLACK
6
CONTINUOUS
10
125.1476769999999874
20
-79.4940019999999947
11
125.2021979999999957
21
-79.6856229999999925
0
LINE
8
BLACK
6
CONTINUOUS
10
125.2021979999999957
20
-79.6856229999999925
11
125.2910009999999943
21
-79.8639639999999957
0
LINE
8
BLACK
6
CONTINUOUS
10
125.2910009999999943
20
-79.8639639999999957
11
125.4110620000000011
21
-80.0229499999999945
0
LINE
8
BLACK
6
CONTINUOUS
10
125.4110620000000011
20
-80.0229499999999945
11
125.5582929999999919
21
-80.1571679999999986
0
LINE
8
BLACK
6
CONTINUOUS
10
125.5582929999999919
20
-80.1571679999999986
11
125.7276789999999949
21
-80.262047999999993
0
LINE
8
BLACK
6
CONTINUOUS
10
125.7276789999999949
20
-80.262047999999993
11
125.9134519999999924
21
-80.3340170000000029
0
LINE
8
BLACK
6
CONTINUOUS
10
125.9134519999999924
20
-80.3340170000000029
11
126.1092869999999948
21
-80.3706249999999898
0
LINE
8
BLACK
6
CONTINUOUS
10
126.1092869999999948
20
-80.3706249999999898
11
126.3085129999999907
21
-80.3706249999999898
0
LINE
8
BLACK
6
CONTINUOUS
10
126.3085129999999907
20
-80.3706249999999898
11
126.5043479999999931
21
-80.3340170000000029
0
LINE
8
BLACK
6
CONTINUOUS
10
126.5043479999999931
20
-80.3340170000000029
11
126.6901209999999907
21
-80.262047999999993
0
LINE
8
BLACK
6
CONTINUOUS
10
126.6901209999999907
20
-80.262047999999993
11
126.8595069999999936
21
-80.1571679999999986
0
LINE
8
BLACK
6
CONTINUOUS
10
126.8595069999999936
20
-80.1571679999999986
11
127.0067379999999986
21
-80.0229499999999945
0
LINE
8
BLACK
6
CONTINUOUS
10
127.0067379999999986
20
-80.0229499999999945
11
127.1267989999999912
21
-79.8639639999999957
0
LINE
8
BLACK
6
CONTINUOUS
10
127.1267989999999912
20
-79.8639639999999957
11
127.2156019999999899
21
-79.6856229999999925
0
LINE
8
BLACK
6
CONTINUOUS
10
127.2156019999999899
20
-79.6856229999999925
11
127.2701229999999981
21
-79.4940019999999947
0
LINE
8
BLACK
6
CONTINUOUS
10
127.2701229999999981
20
-79.4940019999999947
11
127.2885050000000007
21
-79.2956250000000011
0
LINE
8
BLACK
6
CONTINUOUS
10
127.2885050000000007
20
-79.2956250000000011
11
127.2701229999999981
21
-79.0972479999999933
0
LINE
8
BLACK
6
CONTINUOUS
10
127.2701229999999981
20
-79.0972479999999933
11
127.2156019999999899
21
-78.9056269999999955
0
LINE
8
BLACK
6
CONTINUOUS
10
127.2156019999999899
20
-78.9056269999999955
11
127.1267989999999912
21
-78.7272859999999923
0
LINE
8
BLACK
6
CONTINUOUS
10
127.1267989999999912
20
-78.7272859999999923
11
127.0067379999999986
21
-78.5682999999999936
0
LINE
8
BLACK
6
CONTINUOUS
10
127.0067379999999986
20
-78.5682999999999936
11
126.8595069999999936
21
-78.4340819999999894
0
LINE
8
BLACK
6
CONTINUOUS
10
126.8595069999999936
20
-78.4340819999999894
11
126.6901209999999907
21
-78.3292019999999951
0
LINE
8
BLACK
6
CONTINUOUS
10
126.6901209999999907
20
-78.3292019999999951
11
126.5043479999999931
21
-78.2572329999999994
0
LINE
8
BLACK
6
CONTINUOUS
10
126.5043479999999931
20
-78.2572329999999994
11
126.3085129999999907
21
-78.2206249999999983
0
LINE
8
BLACK
6
CONTINUOUS
10
126.3085129999999907
20
-78.2206249999999983
11
126.1092869999999948
21
-78.2206249999999983
0
LINE
8
BLACK
6
CONTINUOUS
10
126.1092869999999948
20
-78.2206249999999983
11
125.9134519999999924
21
-78.2572329999999994
0
LINE
8
BLACK
6
CONTINUOUS
10
125.9134519999999924
20
-78.2572329999999994
11
125.7276789999999949
21
-78.3292019999999951
0
LINE
8
BLACK
6
CONTINUOUS
10
125.7276789999999949
20
-78.3292019999999951
11
125.5582929999999919
21
-78.4340819999999894
0
LINE
8
BLACK
6
CONTINUOUS
10
125.5582929999999919
20
-78.4340819999999894
11
125.4110620000000011
21
-78.5682999999999936
0
LINE
8
BLACK
6
CONTINUOUS
10
125.4110620000000011
20
-78.5682999999999936
11
125.2910009999999943
21
-78.7272859999999923
0
LINE
8
BLACK
6
CONTINUOUS
10
125.2910009999999943
20
-78.7272859999999923
11
125.2021979999999957
21
-78.9056269999999955
0
LINE
8
BLACK
6
CONTINUOUS
10
125.2021979999999957
20
-78.9056269999999955
11
125.1476769999999874
21
-79.0972479999999933
0
LINE
8
BLACK
6
CONTINUOUS
10
125.1476769999999874
20
-79.0972479999999933
11
125.129294999999999
21
-79.2956250000000011
0
LINE
8
BLACK
6
CONTINUOUS
10
125.129294999999999
20
-79.2956250000000011
11
125.1476769999999874
21
-79.4940019999999947
0
LINE
8
BLACK
6
CONTINUOUS
10
183.6679709999999943
20
-78.2135710000000017
11
183.8615559999999789
21
-78.288566000000003
0
LINE
8
BLACK
6
CONTINUOUS
10
183.8615559999999789
20
-78.288566000000003
11
184.0380639999999914
21
-78.3978559999999902
0
LINE
8
BLACK
6
CONTINUOUS
10
184.0380639999999914
20
-78.3978559999999902
11
184.1914850000000001
21
-78.5377170000000007
0
LINE
8
BLACK
6
CONTINUOUS
10
184.1914850000000001
20
-78.5377170000000007
11
184.3165939999999807
21
-78.7033890000000014
0
LINE
8
BLACK
6
CONTINUOUS
10
184.3165939999999807
20
-78.7033890000000014
11
184.4091310000000021
21
-78.8892280000000028
0
LINE
8
BLACK
6
CONTINUOUS
10
184.4091310000000021
20
-78.8892280000000028
11
184.4659450000000049
21
-79.0889069999999919
0
LINE
8
BLACK
6
CONTINUOUS
10
184.4659450000000049
20
-79.0889069999999919
11
184.4850999999999885
21
-79.2956250000000011
0
LINE
8
BLACK
6
CONTINUOUS
10
184.4850999999999885
20
-79.2956250000000011
11
184.4659450000000049
21
-79.5023429999999962
0
LINE
8
BLACK
6
CONTINUOUS
10
184.4659450000000049
20
-79.5023429999999962
11
184.4091310000000021
21
-79.7020219999999995
0
LINE
8
BLACK
6
CONTINUOUS
10
184.4091310000000021
20
-79.7020219999999995
11
184.3165939999999807
21
-79.8878610000000009
0
LINE
8
BLACK
6
CONTINUOUS
10
184.3165939999999807
20
-79.8878610000000009
11
184.1914850000000001
21
-80.0535330000000016
0
LINE
8
BLACK
6
CONTINUOUS
10
184.1914850000000001
20
-80.0535330000000016
11
184.0380639999999914
21
-80.1933939999999978
0
LINE
8
BLACK
6
CONTINUOUS
10
184.0380639999999914
20
-80.1933939999999978
11
183.8615559999999789
21
-80.3026839999999993
0
LINE
8
BLACK
6
CONTINUOUS
10
183.8615559999999789
20
-80.3026839999999993
11
183.6679709999999943
21
-80.3776790000000005
0
LINE
8
BLACK
6
CONTINUOUS
10
183.6679709999999943
20
-80.3776790000000005
11
183.4639019999999903
21
-80.4158259999999956
0
LINE
8
BLACK
6
CONTINUOUS
10
183.4639019999999903
20
-80.4158259999999956
11
183.2562979999999868
21
-80.4158259999999956
0
LINE
8
BLACK
6
CONTINUOUS
10
183.2562979999999868
20
-80.4158259999999956
11
183.0522289999999828
21
-80.3776790000000005
0
LINE
8
BLACK
6
CONTINUOUS
10
183.0522289999999828
20
-80.3776790000000005
11
182.8586439999999982
21
-80.3026839999999993
0
LINE
8
BLACK
6
CONTINUOUS
10
182.8586439999999982
20
-80.3026839999999993
11
182.6821359999999856
21
-80.1933939999999978
0
LINE
8
BLACK
6
CONTINUOUS
10
182.6821359999999856
20
-80.1933939999999978
11
182.5287150000000054
21
-80.0535330000000016
0
LINE
8
BLACK
6
CONTINUOUS
10
182.5287150000000054
20
-80.0535330000000016
11
182.4036059999999964
21
-79.8878610000000009
0
LINE
8
BLACK
6
CONTINUOUS
10
182.4036059999999964
20
-79.8878610000000009
11
182.3110690000000034
21
-79.7020219999999995
0
LINE
8
BLACK
6
CONTINUOUS
10
182.3110690000000034
20
-79.7020219999999995
11
182.2542550000000006
21
-79.5023429999999962
0
LINE
8
BLACK
6
CONTINUOUS
10
182.2542550000000006
20
-79.5023429999999962
11
182.2350999999999885
21
-79.2956250000000011
0
LINE
8
BLACK
6
CONTINUOUS
10
182.2350999999999885
20
-79.2956250000000011
11
182.2542550000000006
21
-79.0889069999999919
0
LINE
8
BLACK
6
CONTINUOUS
10
182.2542550000000006
20
-79.0889069999999919
11
182.3110690000000034
21
-78.8892280000000028
0
LINE
8
BLACK
6
CONTINUOUS
10
182.3110690000000034
20
-78.8892280000000028
11
182.4036059999999964
21
-78.7033890000000014
0
LINE
8
BLACK
6
CONTINUOUS
10
182.4036059999999964
20
-78.7033890000000014
11
182.5287150000000054
21
-78.5377170000000007
0
LINE
8
BLACK
6
CONTINUOUS
10
182.5287150000000054
20
-78.5377170000000007
11
182.6821359999999856
21
-78.3978559999999902
0
LINE
8
BLACK
6
CONTINUOUS
10
182.6821359999999856
20
-78.3978559999999902
11
182.8586439999999982
21
-78.288566000000003
0
LINE
8
BLACK
6
CONTINUOUS
10
182.8586439999999982
20
-78.288566000000003
11
183.0522289999999828
21
-78.2135710000000017
0
LINE
8
BLACK
6
CONTINUOUS
10
183.0522289999999828
20
-78.2135710000000017
11
183.2562979999999868
21
-78.1754239999999925
0
LINE
8
BLACK
6
CONTINUOUS
10
183.2562979999999868
20
-78.1754239999999925
11
183.4639019999999903
21
-78.1754239999999925
0
LINE
8
BLACK
6
CONTINUOUS
10
183.4639019999999903
20
-78.1754239999999925
11
183.6679709999999943
21
-78.2135710000000017
0
LINE
8
BLACK
6
CONTINUOUS
10
182.2988770000000045
20
-79.4940019999999947
11
182.3533979999999985
21
-79.6856229999999925
0
LINE
8
BLACK
6
CONTINUOUS
10
182.3533979999999985
20
-79.6856229999999925
11
182.442200999999983
21
-79.8639639999999957
0
LINE
8
BLACK
6
CONTINUOUS
10
182.442200999999983
20
-79.8639639999999957
11
182.562262000000004
21
-80.0229499999999945
0
LINE
8
BLACK
6
CONTINUOUS
10
182.562262000000004
20
-80.0229499999999945
11
182.7094929999999806
21
-80.1571679999999986
0
LINE
8
BLACK
6
CONTINUOUS
10
182.7094929999999806
20
-80.1571679999999986
11
182.8788789999999835
21
-80.262047999999993
0
LINE
8
BLACK
6
CONTINUOUS
10
182.8788789999999835
20
-80.262047999999993
11
183.0646519999999953
21
-80.3340170000000029
0
LINE
8
BLACK
6
CONTINUOUS
10
183.0646519999999953
20
-80.3340170000000029
11
183.2604869999999835
21
-80.3706249999999898
0
LINE
8
BLACK
6
CONTINUOUS
10
183.2604869999999835
20
-80.3706249999999898
11
183.4597129999999936
21
-80.3706249999999898
0
LINE
8
BLACK
6
CONTINUOUS
10
183.4597129999999936
20
-80.3706249999999898
11
183.6555479999999818
21
-80.3340170000000029
0
LINE
8
BLACK
6
CONTINUOUS
10
183.6555479999999818
20
-80.3340170000000029
11
183.8413209999999935
21
-80.262047999999993
0
LINE
8
BLACK
6
CONTINUOUS
10
183.8413209999999935
20
-80.262047999999993
11
184.0107069999999965
21
-80.1571679999999986
0
LINE
8
BLACK
6
CONTINUOUS
10
184.0107069999999965
20
-80.1571679999999986
11
184.1579380000000015
21
-80.0229499999999945
0
LINE
8
BLACK
6
CONTINUOUS
10
184.1579380000000015
20
-80.0229499999999945
11
184.2779989999999941
21
-79.8639639999999957
0
LINE
8
BLACK
6
CONTINUOUS
10
184.2779989999999941
20
-79.8639639999999957
11
184.3668019999999785
21
-79.6856229999999925
0
LINE
8
BLACK
6
CONTINUOUS
10
184.3668019999999785
20
-79.6856229999999925
11
184.421323000000001
21
-79.4940019999999947
0
LINE
8
BLACK
6
CONTINUOUS
10
184.421323000000001
20
-79.4940019999999947
11
184.4397050000000036
21
-79.2956250000000011
0
LINE
8
BLACK
6
CONTINUOUS
10
184.4397050000000036
20
-79.2956250000000011
11
184.421323000000001
21
-79.0972479999999933
0
LINE
8
BLACK
6
CONTINUOUS
10
184.421323000000001
20
-79.0972479999999933
11
184.3668019999999785
21
-78.9056269999999955
0
LINE
8
BLACK
6
CONTINUOUS
10
184.3668019999999785
20
-78.9056269999999955
11
184.2779989999999941
21
-78.7272859999999923
0
LINE
8
BLACK
6
CONTINUOUS
10
184.2779989999999941
20
-78.7272859999999923
11
184.1579380000000015
21
-78.5682999999999936
0
LINE
8
BLACK
6
CONTINUOUS
10
184.1579380000000015
20
-78.5682999999999936
11
184.0107069999999965
21
-78.4340819999999894
0
LINE
8
BLACK
6
CONTINUOUS
10
184.0107069999999965
20
-78.4340819999999894
11
183.8413209999999935
21
-78.3292019999999951
0
LINE
8
BLACK
6
CONTINUOUS
10
183.8413209999999935
20
-78.3292019999999951
11
183.6555479999999818
21
-78.2572329999999994
0
LINE
8
BLACK
6
CONTINUOUS
10
183.6555479999999818
20
-78.2572329999999994
11
183.4597129999999936
21
-78.2206249999999983
0
LINE
8
BLACK
6
CONTINUOUS
10
183.4597129999999936
20
-78.2206249999999983
11
183.2604869999999835
21
-78.2206249999999983
0
LINE
8
BLACK
6
CONTINUOUS
10
183.2604869999999835
20
-78.2206249999999983
11
183.0646519999999953
21
-78.2572329999999994
0
LINE
8
BLACK
6
CONTINUOUS
10
183.0646519999999953
20
-78.2572329999999994
11
182.8788789999999835
21
-78.3292019999999951
0
LINE
8
BLACK
6
CONTINUOUS
10
182.8788789999999835
20
-78.3292019999999951
11
182.7094929999999806
21
-78.4340819999999894
0
LINE
8
BLACK
6
CONTINUOUS
10
182.7094929999999806
20
-78.4340819999999894
11
182.562262000000004
21
-78.5682999999999936
0
LINE
8
BLACK
6
CONTINUOUS
10
182.562262000000004
20
-78.5682999999999936
11
182.442200999999983
21
-78.7272859999999923
0
LINE
8
BLACK
6
CONTINUOUS
10
182.442200999999983
20
-78.7272859999999923
11
182.3533979999999985
21
-78.9056269999999955
0
LINE
8
BLACK
6
CONTINUOUS
10
182.3533979999999985
20
-78.9056269999999955
11
182.2988770000000045
21
-79.0972479999999933
0
LINE
8
BLACK
6
CONTINUOUS
10
182.2988770000000045
20
-79.0972479999999933
11
182.2804950000000019
21
-79.2956250000000011
0
LINE
8
BLACK
6
CONTINUOUS
10
182.2804950000000019
20
-79.2956250000000011
11
182.2988770000000045
21
-79.4940019999999947
0
LINE
8
BLACK
6
CONTINUOUS
10
83.6533709999999928
20
-76.7848209999999938
11
83.8469559999999916
21
-76.859815999999995
0
LINE
8
BLACK
6
CONTINUOUS
10
83.8469559999999916
20
-76.859815999999995
11
84.0234639999999899
21
-76.9691059999999965
0
LINE
8
BLACK
6
CONTINUOUS
10
84.0234639999999899
20
-76.9691059999999965
11
84.1768849999999986
21
-77.1089669999999927
0
LINE
8
BLACK
6
CONTINUOUS
10
84.1768849999999986
20
-77.1089669999999927
11
84.3019939999999934
21
-77.2746389999999934
0
LINE
8
BLACK
6
CONTINUOUS
10
84.3019939999999934
20
-77.2746389999999934
11
84.3945310000000006
21
-77.4604779999999948
0
LINE
8
BLACK
6
CONTINUOUS
10
84.3945310000000006
20
-77.4604779999999948
11
84.4513449999999892
21
-77.6601569999999981
0
LINE
8
BLACK
6
CONTINUOUS
10
84.4513449999999892
20
-77.6601569999999981
11
84.4705000000000013
21
-77.8668749999999932
0
LINE
8
BLACK
6
CONTINUOUS
10
84.4705000000000013
20
-77.8668749999999932
11
84.4513449999999892
21
-78.0735930000000025
0
LINE
8
BLACK
6
CONTINUOUS
10
84.4513449999999892
20
-78.0735930000000025
11
84.3945310000000006
21
-78.2732719999999915
0
LINE
8
BLACK
6
CONTINUOUS
10
84.3945310000000006
20
-78.2732719999999915
11
84.3019939999999934
21
-78.4591109999999929
0
LINE
8
BLACK
6
CONTINUOUS
10
84.3019939999999934
20
-78.4591109999999929
11
84.1768849999999986
21
-78.6247829999999936
0
LINE
8
BLACK
6
CONTINUOUS
10
84.1768849999999986
20
-78.6247829999999936
11
84.0234639999999899
21
-78.7646439999999899
0
LINE
8
BLACK
6
CONTINUOUS
10
84.0234639999999899
20
-78.7646439999999899
11
83.8469559999999916
21
-78.8739339999999913
0
LINE
8
BLACK
6
CONTINUOUS
10
83.8469559999999916
20
-78.8739339999999913
11
83.6533709999999928
21
-78.9489289999999926
0
LINE
8
BLACK
6
CONTINUOUS
10
83.6533709999999928
20
-78.9489289999999926
11
83.449302000000003
21
-78.9870760000000018
0
LINE
8
BLACK
6
CONTINUOUS
10
83.449302000000003
20
-78.9870760000000018
11
83.2416979999999995
21
-78.9870760000000018
0
LINE
8
BLACK
6
CONTINUOUS
10
83.2416979999999995
20
-78.9870760000000018
11
83.0376289999999955
21
-78.9489289999999926
0
LINE
8
BLACK
6
CONTINUOUS
10
83.0376289999999955
20
-78.9489289999999926
11
82.8440439999999967
21
-78.8739339999999913
0
LINE
8
BLACK
6
CONTINUOUS
10
82.8440439999999967
20
-78.8739339999999913
11
82.6675359999999984
21
-78.7646439999999899
0
LINE
8
BLACK
6
CONTINUOUS
10
82.6675359999999984
20
-78.7646439999999899
11
82.5141149999999897
21
-78.6247829999999936
0
LINE
8
BLACK
6
CONTINUOUS
10
82.5141149999999897
20
-78.6247829999999936
11
82.3890059999999949
21
-78.4591109999999929
0
LINE
8
BLACK
6
CONTINUOUS
10
82.3890059999999949
20
-78.4591109999999929
11
82.2964690000000019
21
-78.2732719999999915
0
LINE
8
BLACK
6
CONTINUOUS
10
82.2964690000000019
20
-78.2732719999999915
11
82.2396549999999991
21
-78.0735930000000025
0
LINE
8
BLACK
6
CONTINUOUS
10
82.2396549999999991
20
-78.0735930000000025
11
82.2205000000000013
21
-77.8668749999999932
0
LINE
8
BLACK
6
CONTINUOUS
10
82.2205000000000013
20
-77.8668749999999932
11
82.2396549999999991
21
-77.6601569999999981
0
LINE
8
BLACK
6
CONTINUOUS
10
82.2396549999999991
20
-77.6601569999999981
11
82.2964690000000019
21
-77.4604779999999948
0
LINE
8
BLACK
6
CONTINUOUS
10
82.2964690000000019
20
-77.4604779999999948
11
82.3890059999999949
21
-77.2746389999999934
0
LINE
8
BLACK
6
CONTINUOUS
10
82.3890059999999949
20
-77.2746389999999934
11
82.5141149999999897
21
-77.1089669999999927
0
LINE
8
BLACK
6
CONTINUOUS
10
82.5141149999999897
20
-77.1089669999999927
11
82.6675359999999984
21
-76.9691059999999965
0
LINE
8
BLACK
6
CONTINUOUS
10
82.6675359999999984
20
-76.9691059999999965
11
82.8440439999999967
21
-76.859815999999995
0
LINE
8
BLACK
6
CONTINUOUS
10
82.8440439999999967
20
-76.859815999999995
11
83.0376289999999955
21
-76.7848209999999938
0
LINE
8
BLACK
6
CONTINUOUS
10
83.0376289999999955
20
-76.7848209999999938
11
83.2416979999999995
21
-76.7466739999999987
0
LINE
8
BLACK
6
CONTINUOUS
10
83.2416979999999995
20
-76.7466739999999987
11
83.449302000000003
21
-76.7466739999999987
0
LINE
8
BLACK
6
CONTINUOUS
10
83.449302000000003
20
-76.7466739999999987
11
83.6533709999999928
21
-76.7848209999999938
0
LINE
8
BLACK
6
CONTINUOUS
10
82.284277000000003
20
-78.065252000000001
11
82.338797999999997
21
-78.2568729999999988
0
LINE
8
BLACK
6
CONTINUOUS
10
82.338797999999997
20
-78.2568729999999988
11
82.4276009999999957
21
-78.435214000000002
0
LINE
8
BLACK
6
CONTINUOUS
10
82.4276009999999957
20
-78.435214000000002
11
82.5476620000000025
21
-78.5942000000000007
0
LINE
8
BLACK
6
CONTINUOUS
10
82.5476620000000025
20
-78.5942000000000007
11
82.6948929999999933
21
-78.7284179999999907
0
LINE
8
BLACK
6
CONTINUOUS
10
82.6948929999999933
20
-78.7284179999999907
11
82.8642789999999962
21
-78.8332979999999992
0
LINE
8
BLACK
6
CONTINUOUS
10
82.8642789999999962
20
-78.8332979999999992
11
83.0500519999999938
21
-78.9052669999999949
0
LINE
8
BLACK
6
CONTINUOUS
10
83.0500519999999938
20
-78.9052669999999949
11
83.2458869999999962
21
-78.941874999999996
0
LINE
8
BLACK
6
CONTINUOUS
10
83.2458869999999962
20
-78.941874999999996
11
83.4451129999999921
21
-78.941874999999996
0
LINE
8
BLACK
6
CONTINUOUS
10
83.4451129999999921
20
-78.941874999999996
11
83.6409479999999945
21
-78.9052669999999949
0
LINE
8
BLACK
6
CONTINUOUS
10
83.6409479999999945
20
-78.9052669999999949
11
83.826720999999992
21
-78.8332979999999992
0
LINE
8
BLACK
6
CONTINUOUS
10
83.826720999999992
20
-78.8332979999999992
11
83.996106999999995
21
-78.7284179999999907
0
LINE
8
BLACK
6
CONTINUOUS
10
83.996106999999995
20
-78.7284179999999907
11
84.143338
21
-78.5942000000000007
0
LINE
8
BLACK
6
CONTINUOUS
10
84.143338
20
-78.5942000000000007
11
84.2633989999999926
21
-78.435214000000002
0
LINE
8
BLACK
6
CONTINUOUS
10
84.2633989999999926
20
-78.435214000000002
11
84.3522019999999912
21
-78.2568729999999988
0
LINE
8
BLACK
6
CONTINUOUS
10
84.3522019999999912
20
-78.2568729999999988
11
84.4067229999999995
21
-78.065252000000001
0
LINE
8
BLACK
6
CONTINUOUS
10
84.4067229999999995
20
-78.065252000000001
11
84.4251050000000021
21
-77.8668749999999932
0
LINE
8
BLACK
6
CONTINUOUS
10
84.4251050000000021
20
-77.8668749999999932
11
84.4067229999999995
21
-77.6684979999999996
0
LINE
8
BLACK
6
CONTINUOUS
10
84.4067229999999995
20
-77.6684979999999996
11
84.3522019999999912
21
-77.4768770000000018
0
LINE
8
BLACK
6
CONTINUOUS
10
84.3522019999999912
20
-77.4768770000000018
11
84.2633989999999926
21
-77.2985359999999986
0
LINE
8
BLACK
6
CONTINUOUS
10
84.2633989999999926
20
-77.2985359999999986
11
84.143338
21
-77.1395499999999998
0
LINE
8
BLACK
6
CONTINUOUS
10
84.143338
20
-77.1395499999999998
11
83.996106999999995
21
-77.0053319999999957
0
LINE
8
BLACK
6
CONTINUOUS
10
83.996106999999995
20
-77.0053319999999957
11
83.826720999999992
21
-76.9004520000000014
0
LINE
8
BLACK
6
CONTINUOUS
10
83.826720999999992
20
-76.9004520000000014
11
83.6409479999999945
21
-76.8284829999999914
0
LINE
8
BLACK
6
CONTINUOUS
10
83.6409479999999945
20
-76.8284829999999914
11
83.4451129999999921
21
-76.7918749999999903
0
LINE
8
BLACK
6
CONTINUOUS
10
83.4451129999999921
20
-76.7918749999999903
11
83.2458869999999962
21
-76.7918749999999903
0
LINE
8
BLACK
6
CONTINUOUS
10
83.2458869999999962
20
-76.7918749999999903
11
83.0500519999999938
21
-76.8284829999999914
0
LINE
8
BLACK
6
CONTINUOUS
10
83.0500519999999938
20
-76.8284829999999914
11
82.8642789999999962
21
-76.9004520000000014
0
LINE
8
BLACK
6
CONTINUOUS
10
82.8642789999999962
20
-76.9004520000000014
11
82.6948929999999933
21
-77.0053319999999957
0
LINE
8
BLACK
6
CONTINUOUS
10
82.6948929999999933
20
-77.0053319999999957
11
82.5476620000000025
21
-77.1395499999999998
0
LINE
8
BLACK
6
CONTINUOUS
10
82.5476620000000025
20
-77.1395499999999998
11
82.4276009999999957
21
-77.2985359999999986
0
LINE
8
BLACK
6
CONTINUOUS
10
82.4276009999999957
20
-77.2985359999999986
11
82.338797999999997
21
-77.4768770000000018
0
LINE
8
BLACK
6
CONTINUOUS
10
82.338797999999997
20
-77.4768770000000018
11
82.284277000000003
21
-77.6684979999999996
0
LINE
8
BLACK
6
CONTINUOUS
10
82.284277000000003
20
-77.6684979999999996
11
82.2658950000000004
21
-77.8668749999999932
0
LINE
8
BLACK
6
CONTINUOUS
10
82.2658950000000004
20
-77.8668749999999932
11
82.284277000000003
21
-78.065252000000001
0
LINE
8
BLACK
6
CONTINUOUS
10
236.056570999999991
20
-76.7848209999999938
11
236.2501559999999756
21
-76.859815999999995
0
LINE
8
BLACK
6
CONTINUOUS
10
236.2501559999999756
20
-76.859815999999995
11
236.4266639999999882
21
-76.9691059999999965
0
LINE
8
BLACK
6
CONTINUOUS
10
236.4266639999999882
20
-76.9691059999999965
11
236.5800849999999969
21
-77.1089669999999927
0
LINE
8
BLACK
6
CONTINUOUS
10
236.5800849999999969
20
-77.1089669999999927
11
236.7051939999999774
21
-77.2746389999999934
0
LINE
8
BLACK
6
CONTINUOUS
10
236.7051939999999774
20
-77.2746389999999934
11
236.7977309999999989
21
-77.4604779999999948
0
LINE
8
BLACK
6
CONTINUOUS
10
236.7977309999999989
20
-77.4604779999999948
11
236.8545450000000017
21
-77.6601569999999981
0
LINE
8
BLACK
6
CONTINUOUS
10
236.8545450000000017
20
-77.6601569999999981
11
236.8736999999999853
21
-77.8668749999999932
0
LINE
8
BLACK
6
CONTINUOUS
10
236.8736999999999853
20
-77.8668749999999932
11
236.8545450000000017
21
-78.0735930000000025
0
LINE
8
BLACK
6
CONTINUOUS
10
236.8545450000000017
20
-78.0735930000000025
11
236.7977309999999989
21
-78.2732719999999915
0
LINE
8
BLACK
6
CONTINUOUS
10
236.7977309999999989
20
-78.2732719999999915
11
236.7051939999999774
21
-78.4591109999999929
0
LINE
8
BLACK
6
CONTINUOUS
10
236.7051939999999774
20
-78.4591109999999929
11
236.5800849999999969
21
-78.6247829999999936
0
LINE
8
BLACK
6
CONTINUOUS
10
236.5800849999999969
20
-78.6247829999999936
11
236.4266639999999882
21
-78.7646439999999899
0
LINE
8
BLACK
6
CONTINUOUS
10
236.4266639999999882
20
-78.7646439999999899
11
236.2501559999999756
21
-78.8739339999999913
0
LINE
8
BLACK
6
CONTINUOUS
10
236.2501559999999756
20
-78.8739339999999913
11
236.056570999999991
21
-78.9489289999999926
0
LINE
8
BLACK
6
CONTINUOUS
10
236.056570999999991
20
-78.9489289999999926
11
235.852501999999987
21
-78.9870760000000018
0
LINE
8
BLACK
6
CONTINUOUS
10
235.852501999999987
20
-78.9870760000000018
11
235.6448979999999835
21
-78.9870760000000018
0
LINE
8
BLACK
6
CONTINUOUS
10
235.6448979999999835
20
-78.9870760000000018
11
235.4408289999999795
21
-78.9489289999999926
0
LINE
8
BLACK
6
CONTINUOUS
10
235.4408289999999795
20
-78.9489289999999926
11
235.2472439999999949
21
-78.8739339999999913
0
LINE
8
BLACK
6
CONTINUOUS
10
235.2472439999999949
20
-78.8739339999999913
11
235.0707359999999824
21
-78.7646439999999899
0
LINE
8
BLACK
6
CONTINUOUS
10
235.0707359999999824
20
-78.7646439999999899
11
234.9173150000000021
21
-78.6247829999999936
0
LINE
8
BLACK
6
CONTINUOUS
10
234.9173150000000021
20
-78.6247829999999936
11
234.7922059999999931
21
-78.4591109999999929
0
LINE
8
BLACK
6
CONTINUOUS
10
234.7922059999999931
20
-78.4591109999999929
11
234.6996690000000001
21
-78.2732719999999915
0
LINE
8
BLACK
6
CONTINUOUS
10
234.6996690000000001
20
-78.2732719999999915
11
234.6428549999999973
21
-78.0735930000000025
0
LINE
8
BLACK
6
CONTINUOUS
10
234.6428549999999973
20
-78.0735930000000025
11
234.6236999999999853
21
-77.8668749999999932
0
LINE
8
BLACK
6
CONTINUOUS
10
234.6236999999999853
20
-77.8668749999999932
11
234.6428549999999973
21
-77.6601569999999981
0
LINE
8
BLACK
6
CONTINUOUS
10
234.6428549999999973
20
-77.6601569999999981
11
234.6996690000000001
21
-77.4604779999999948
0
LINE
8
BLACK
6
CONTINUOUS
10
234.6996690000000001
20
-77.4604779999999948
11
234.7922059999999931
21
-77.2746389999999934
0
LINE
8
BLACK
6
CONTINUOUS
10
234.7922059999999931
20
-77.2746389999999934
11
234.9173150000000021
21
-77.1089669999999927
0
LINE
8
BLACK
6
CONTINUOUS
10
234.9173150000000021
20
-77.1089669999999927
11
235.0707359999999824
21
-76.9691059999999965
0
LINE
8
BLACK
6
CONTINUOUS
10
235.0707359999999824
20
-76.9691059999999965
11
235.2472439999999949
21
-76.859815999999995
0
LINE
8
BLACK
6
CONTINUOUS
10
235.2472439999999949
20
-76.859815999999995
11
235.4408289999999795
21
-76.7848209999999938
0
LINE
8
BLACK
6
CONTINUOUS
10
235.4408289999999795
20
-76.7848209999999938
11
235.6448979999999835
21
-76.7466739999999987
0
LINE
8
BLACK
6
CONTINUOUS
10
235.6448979999999835
20
-76.7466739999999987
11
235.852501999999987
21
-76.7466739999999987
0
LINE
8
BLACK
6
CONTINUOUS
10
235.852501999999987
20
-76.7466739999999987
11
236.056570999999991
21
-76.7848209999999938
0
LINE
8
BLACK
6
CONTINUOUS
10
234.6874770000000012
20
-78.065252000000001
11
234.7419979999999953
21
-78.2568729999999988
0
LINE
8
BLACK
6
CONTINUOUS
10
234.7419979999999953
20
-78.2568729999999988
11
234.8308009999999797
21
-78.435214000000002
0
LINE
8
BLACK
6
CONTINUOUS
10
234.8308009999999797
20
-78.435214000000002
11
234.9508620000000008
21
-78.5942000000000007
0
LINE
8
BLACK
6
CONTINUOUS
10
234.9508620000000008
20
-78.5942000000000007
11
235.0980929999999773
21
-78.7284179999999907
0
LINE
8
BLACK
6
CONTINUOUS
10
235.0980929999999773
20
-78.7284179999999907
11
235.2674789999999803
21
-78.8332979999999992
0
LINE
8
BLACK
6
CONTINUOUS
10
235.2674789999999803
20
-78.8332979999999992
11
235.453251999999992
21
-78.9052669999999949
0
LINE
8
BLACK
6
CONTINUOUS
10
235.453251999999992
20
-78.9052669999999949
11
235.6490869999999802
21
-78.941874999999996
0
LINE
8
BLACK
6
CONTINUOUS
10
235.6490869999999802
20
-78.941874999999996
11
235.8483129999999903
21
-78.941874999999996
0
LINE
8
BLACK
6
CONTINUOUS
10
235.8483129999999903
20
-78.941874999999996
11
236.0441479999999785
21
-78.9052669999999949
0
LINE
8
BLACK
6
CONTINUOUS
10
236.0441479999999785
20
-78.9052669999999949
11
236.2299209999999903
21
-78.8332979999999992
0
LINE
8
BLACK
6
CONTINUOUS
10
236.2299209999999903
20
-78.8332979999999992
11
236.3993069999999932
21
-78.7284179999999907
0
LINE
8
BLACK
6
CONTINUOUS
10
236.3993069999999932
20
-78.7284179999999907
11
236.5465379999999982
21
-78.5942000000000007
0
LINE
8
BLACK
6
CONTINUOUS
10
236.5465379999999982
20
-78.5942000000000007
11
236.6665989999999908
21
-78.435214000000002
0
LINE
8
BLACK
6
CONTINUOUS
10
236.6665989999999908
20
-78.435214000000002
11
236.7554019999999753
21
-78.2568729999999988
0
LINE
8
BLACK
6
CONTINUOUS
10
236.7554019999999753
20
-78.2568729999999988
11
236.8099229999999977
21
-78.065252000000001
0
LINE
8
BLACK
6
CONTINUOUS
10
236.8099229999999977
20
-78.065252000000001
11
236.8283050000000003
21
-77.8668749999999932
0
LINE
8
BLACK
6
CONTINUOUS
10
236.8283050000000003
20
-77.8668749999999932
11
236.8099229999999977
21
-77.6684979999999996
0
LINE
8
BLACK
6
CONTINUOUS
10
236.8099229999999977
20
-77.6684979999999996
11
236.7554019999999753
21
-77.4768770000000018
0
LINE
8
BLACK
6
CONTINUOUS
10
236.7554019999999753
20
-77.4768770000000018
11
236.6665989999999908
21
-77.2985359999999986
0
LINE
8
BLACK
6
CONTINUOUS
10
236.6665989999999908
20
-77.2985359999999986
11
236.5465379999999982
21
-77.1395499999999998
0
LINE
8
BLACK
6
CONTINUOUS
10
236.5465379999999982
20
-77.1395499999999998
11
236.3993069999999932
21
-77.0053319999999957
0
LINE
8
BLACK
6
CONTINUOUS
10
236.3993069999999932
20
-77.0053319999999957
11
236.2299209999999903
21
-76.9004520000000014
0
LINE
8
BLACK
6
CONTINUOUS
10
236.2299209999999903
20
-76.9004520000000014
11
236.0441479999999785
21
-76.8284829999999914
0
LINE
8
BLACK
6
CONTINUOUS
10
236.0441479999999785
20
-76.8284829999999914
11
235.8483129999999903
21
-76.7918749999999903
0
LINE
8
BLACK
6
CONTINUOUS
10
235.8483129999999903
20
-76.7918749999999903
11
235.6490869999999802
21
-76.7918749999999903
0
LINE
8
BLACK
6
CONTINUOUS
10
235.6490869999999802
20
-76.7918749999999903
11
235.453251999999992
21
-76.8284829999999914
0
LINE
8
BLACK
6
CONTINUOUS
10
235.453251999999992
20
-76.8284829999999914
11
235.2674789999999803
21
-76.9004520000000014
0
LINE
8
BLACK
6
CONTINUOUS
10
235.2674789999999803
20
-76.9004520000000014
11
235.0980929999999773
21
-77.0053319999999957
0
LINE
8
BLACK
6
CONTINUOUS
10
235.0980929999999773
20
-77.0053319999999957
11
234.9508620000000008
21
-77.1395499999999998
0
LINE
8
BLACK
6
CONTINUOUS
10
234.9508620000000008
20
-77.1395499999999998
11
234.8308009999999797
21
-77.2985359999999986
0
LINE
8
BLACK
6
CONTINUOUS
10
234.8308009999999797
20
-77.2985359999999986
11
234.7419979999999953
21
-77.4768770000000018
0
LINE
8
BLACK
6
CONTINUOUS
10
234.7419979999999953
20
-77.4768770000000018
11
234.6874770000000012
21
-77.6684979999999996
0
LINE
8
BLACK
6
CONTINUOUS
10
234.6874770000000012
20
-77.6684979999999996
11
234.6690949999999987
21
-77.8668749999999932
0
LINE
8
BLACK
6
CONTINUOUS
10
234.6690949999999987
20
-77.8668749999999932
11
234.6874770000000012
21
-78.065252000000001
0
LINE
8
BLACK
6
CONTINUOUS
10
80.5576810000000023
20
-41.0660710000000009
11
80.7512660000000011
21
-41.141065999999995
0
LINE
8
BLACK
6
CONTINUOUS
10
80.7512660000000011
20
-41.141065999999995
11
80.9277739999999994
21
-41.2503559999999965
0
LINE
8
BLACK
6
CONTINUOUS
10
80.9277739999999994
20
-41.2503559999999965
11
81.0811949999999939
21
-41.3902169999999998
0
LINE
8
BLACK
6
CONTINUOUS
10
81.0811949999999939
20
-41.3902169999999998
11
81.2063040000000029
21
-41.5558890000000005
0
LINE
8
BLACK
6
CONTINUOUS
10
81.2063040000000029
20
-41.5558890000000005
11
81.2988409999999959
21
-41.7417279999999948
0
LINE
8
BLACK
6
CONTINUOUS
10
81.2988409999999959
20
-41.7417279999999948
11
81.3556549999999987
21
-41.9414069999999981
0
LINE
8
BLACK
6
CONTINUOUS
10
81.3556549999999987
20
-41.9414069999999981
11
81.3748099999999965
21
-42.1481250000000003
0
LINE
8
BLACK
6
CONTINUOUS
10
81.3748099999999965
20
-42.1481250000000003
11
81.3556549999999987
21
-42.3548429999999954
0
LINE
8
BLACK
6
CONTINUOUS
10
81.3556549999999987
20
-42.3548429999999954
11
81.2988409999999959
21
-42.5545219999999986
0
LINE
8
BLACK
6
CONTINUOUS
10
81.2988409999999959
20
-42.5545219999999986
11
81.2063040000000029
21
-42.740361
0
LINE
8
BLACK
6
CONTINUOUS
10
81.2063040000000029
20
-42.740361
11
81.0811949999999939
21
-42.9060330000000008
0
LINE
8
BLACK
6
CONTINUOUS
10
81.0811949999999939
20
-42.9060330000000008
11
80.9277739999999994
21
-43.045893999999997
0
LINE
8
BLACK
6
CONTINUOUS
10
80.9277739999999994
20
-43.045893999999997
11
80.7512660000000011
21
-43.1551839999999984
0
LINE
8
BLACK
6
CONTINUOUS
10
80.7512660000000011
20
-43.1551839999999984
11
80.5576810000000023
21
-43.2301789999999997
0
LINE
8
BLACK
6
CONTINUOUS
10
80.5576810000000023
20
-43.2301789999999997
11
80.3536119999999983
21
-43.2683259999999947
0
LINE
8
BLACK
6
CONTINUOUS
10
80.3536119999999983
20
-43.2683259999999947
11
80.1460079999999948
21
-43.2683259999999947
0
LINE
8
BLACK
6
CONTINUOUS
10
80.1460079999999948
20
-43.2683259999999947
11
79.9419389999999908
21
-43.2301789999999997
0
LINE
8
BLACK
6
CONTINUOUS
10
79.9419389999999908
20
-43.2301789999999997
11
79.748353999999992
21
-43.1551839999999984
0
LINE
8
BLACK
6
CONTINUOUS
10
79.748353999999992
20
-43.1551839999999984
11
79.5718459999999936
21
-43.045893999999997
0
LINE
8
BLACK
6
CONTINUOUS
10
79.5718459999999936
20
-43.045893999999997
11
79.4184249999999992
21
-42.9060330000000008
0
LINE
8
BLACK
6
CONTINUOUS
10
79.4184249999999992
20
-42.9060330000000008
11
79.2933159999999901
21
-42.740361
0
LINE
8
BLACK
6
CONTINUOUS
10
79.2933159999999901
20
-42.740361
11
79.2007789999999972
21
-42.5545219999999986
0
LINE
8
BLACK
6
CONTINUOUS
10
79.2007789999999972
20
-42.5545219999999986
11
79.1439649999999943
21
-42.3548429999999954
0
LINE
8
BLACK
6
CONTINUOUS
10
79.1439649999999943
20
-42.3548429999999954
11
79.1248099999999965
21
-42.1481250000000003
0
LINE
8
BLACK
6
CONTINUOUS
10
79.1248099999999965
20
-42.1481250000000003
11
79.1439649999999943
21
-41.9414069999999981
0
LINE
8
BLACK
6
CONTINUOUS
10
79.1439649999999943
20
-41.9414069999999981
11
79.2007789999999972
21
-41.7417279999999948
0
LINE
8
BLACK
6
CONTINUOUS
10
79.2007789999999972
20
-41.7417279999999948
11
79.2933159999999901
21
-41.5558890000000005
0
LINE
8
BLACK
6
CONTINUOUS
10
79.2933159999999901
20
-41.5558890000000005
11
79.4184249999999992
21
-41.3902169999999998
0
LINE
8
BLACK
6
CONTINUOUS
10
79.4184249999999992
20
-41.3902169999999998
11
79.5718459999999936
21
-41.2503559999999965
0
LINE
8
BLACK
6
CONTINUOUS
10
79.5718459999999936
20
-41.2503559999999965
11
79.748353999999992
21
-41.141065999999995
0
LINE
8
BLACK
6
CONTINUOUS
10
79.748353999999992
20
-41.141065999999995
11
79.9419389999999908
21
-41.0660710000000009
0
LINE
8
BLACK
6
CONTINUOUS
10
79.9419389999999908
20
-41.0660710000000009
11
80.1460079999999948
21
-41.0279239999999987
0
LINE
8
BLACK
6
CONTINUOUS
10
80.1460079999999948
20
-41.0279239999999987
11
80.3536119999999983
21
-41.0279239999999987
0
LINE
8
BLACK
6
CONTINUOUS
10
80.3536119999999983
20
-41.0279239999999987
11
80.5576810000000023
21
-41.0660710000000009
0
LINE
8
BLACK
6
CONTINUOUS
10
79.1885869999999983
20
-42.346502000000001
11
79.2431079999999923
21
-42.5381229999999988
0
LINE
8
BLACK
6
CONTINUOUS
10
79.2431079999999923
20
-42.5381229999999988
11
79.331910999999991
21
-42.7164639999999949
0
LINE
8
BLACK
6
CONTINUOUS
10
79.331910999999991
20
-42.7164639999999949
11
79.4519719999999978
21
-42.8754500000000007
0
LINE
8
BLACK
6
CONTINUOUS
10
79.4519719999999978
20
-42.8754500000000007
11
79.5992030000000028
21
-43.0096679999999978
0
LINE
8
BLACK
6
CONTINUOUS
10
79.5992030000000028
20
-43.0096679999999978
11
79.7685889999999915
21
-43.1145479999999992
0
LINE
8
BLACK
6
CONTINUOUS
10
79.7685889999999915
20
-43.1145479999999992
11
79.9543620000000033
21
-43.1865169999999949
0
LINE
8
BLACK
6
CONTINUOUS
10
79.9543620000000033
20
-43.1865169999999949
11
80.1501969999999915
21
-43.223124999999996
0
LINE
8
BLACK
6
CONTINUOUS
10
80.1501969999999915
20
-43.223124999999996
11
80.3494230000000016
21
-43.223124999999996
0
LINE
8
BLACK
6
CONTINUOUS
10
80.3494230000000016
20
-43.223124999999996
11
80.5452579999999898
21
-43.1865169999999949
0
LINE
8
BLACK
6
CONTINUOUS
10
80.5452579999999898
20
-43.1865169999999949
11
80.7310310000000015
21
-43.1145479999999992
0
LINE
8
BLACK
6
CONTINUOUS
10
80.7310310000000015
20
-43.1145479999999992
11
80.9004169999999903
21
-43.0096679999999978
0
LINE
8
BLACK
6
CONTINUOUS
10
80.9004169999999903
20
-43.0096679999999978
11
81.0476479999999952
21
-42.8754500000000007
0
LINE
8
BLACK
6
CONTINUOUS
10
81.0476479999999952
20
-42.8754500000000007
11
81.1677090000000021
21
-42.7164639999999949
0
LINE
8
BLACK
6
CONTINUOUS
10
81.1677090000000021
20
-42.7164639999999949
11
81.2565120000000007
21
-42.5381229999999988
0
LINE
8
BLACK
6
CONTINUOUS
10
81.2565120000000007
20
-42.5381229999999988
11
81.3110329999999948
21
-42.346502000000001
0
LINE
8
BLACK
6
CONTINUOUS
10
81.3110329999999948
20
-42.346502000000001
11
81.3294149999999973
21
-42.1481250000000003
0
LINE
8
BLACK
6
CONTINUOUS
10
81.3294149999999973
20
-42.1481250000000003
11
81.3110329999999948
21
-41.9497479999999996
0
LINE
8
BLACK
6
CONTINUOUS
10
81.3110329999999948
20
-41.9497479999999996
11
81.2565120000000007
21
-41.7581269999999947
0
LINE
8
BLACK
6
CONTINUOUS
10
81.2565120000000007
20
-41.7581269999999947
11
81.1677090000000021
21
-41.5797859999999986
0
LINE
8
BLACK
6
CONTINUOUS
10
81.1677090000000021
20
-41.5797859999999986
11
81.0476479999999952
21
-41.4207999999999998
0
LINE
8
BLACK
6
CONTINUOUS
10
81.0476479999999952
20
-41.4207999999999998
11
80.9004169999999903
21
-41.2865819999999957
0
LINE
8
BLACK
6
CONTINUOUS
10
80.9004169999999903
20
-41.2865819999999957
11
80.7310310000000015
21
-41.1817020000000014
0
LINE
8
BLACK
6
CONTINUOUS
10
80.7310310000000015
20
-41.1817020000000014
11
80.5452579999999898
21
-41.1097329999999985
0
LINE
8
BLACK
6
CONTINUOUS
10
80.5452579999999898
20
-41.1097329999999985
11
80.3494230000000016
21
-41.0731249999999974
0
LINE
8
BLACK
6
CONTINUOUS
10
80.3494230000000016
20
-41.0731249999999974
11
80.1501969999999915
21
-41.0731249999999974
0
LINE
8
BLACK
6
CONTINUOUS
10
80.1501969999999915
20
-41.0731249999999974
11
79.9543620000000033
21
-41.1097329999999985
0
LINE
8
BLACK
6
CONTINUOUS
10
79.9543620000000033
20
-41.1097329999999985
11
79.7685889999999915
21
-41.1817020000000014
0
LINE
8
BLACK
6
CONTINUOUS
10
79.7685889999999915
20
-41.1817020000000014
11
79.5992030000000028
21
-41.2865819999999957
0
LINE
8
BLACK
6
CONTINUOUS
10
79.5992030000000028
20
-41.2865819999999957
11
79.4519719999999978
21
-41.4207999999999998
0
LINE
8
BLACK
6
CONTINUOUS
10
79.4519719999999978
20
-41.4207999999999998
11
79.331910999999991
21
-41.5797859999999986
0
LINE
8
BLACK
6
CONTINUOUS
10
79.331910999999991
20
-41.5797859999999986
11
79.2431079999999923
21
-41.7581269999999947
0
LINE
8
BLACK
6
CONTINUOUS
10
79.2431079999999923
20
-41.7581269999999947
11
79.1885869999999983
21
-41.9497479999999996
0
LINE
8
BLACK
6
CONTINUOUS
10
79.1885869999999983
20
-41.9497479999999996
11
79.1702049999999957
21
-42.1481250000000003
0
LINE
8
BLACK
6
CONTINUOUS
10
79.1702049999999957
20
-42.1481250000000003
11
79.1885869999999983
21
-42.346502000000001
0
LINE
8
BLACK
6
CONTINUOUS
10
117.9440910000000002
20
-41.0660710000000009
11
118.137675999999999
21
-41.141065999999995
0
LINE
8
BLACK
6
CONTINUOUS
10
118.137675999999999
20
-41.141065999999995
11
118.3141839999999974
21
-41.2503559999999965
0
LINE
8
BLACK
6
CONTINUOUS
10
118.3141839999999974
20
-41.2503559999999965
11
118.4676049999999918
21
-41.3902169999999998
0
LINE
8
BLACK
6
CONTINUOUS
10
118.4676049999999918
20
-41.3902169999999998
11
118.5927140000000009
21
-41.5558890000000005
0
LINE
8
BLACK
6
CONTINUOUS
10
118.5927140000000009
20
-41.5558890000000005
11
118.6852509999999938
21
-41.7417279999999948
0
LINE
8
BLACK
6
CONTINUOUS
10
118.6852509999999938
20
-41.7417279999999948
11
118.7420649999999966
21
-41.9414069999999981
0
LINE
8
BLACK
6
CONTINUOUS
10
118.7420649999999966
20
-41.9414069999999981
11
118.7612199999999945
21
-42.1481250000000003
0
LINE
8
BLACK
6
CONTINUOUS
10
118.7612199999999945
20
-42.1481250000000003
11
118.7420649999999966
21
-42.3548429999999954
0
LINE
8
BLACK
6
CONTINUOUS
10
118.7420649999999966
20
-42.3548429999999954
11
118.6852509999999938
21
-42.5545219999999986
0
LINE
8
BLACK
6
CONTINUOUS
10
118.6852509999999938
20
-42.5545219999999986
11
118.5927140000000009
21
-42.740361
0
LINE
8
BLACK
6
CONTINUOUS
10
118.5927140000000009
20
-42.740361
11
118.4676049999999918
21
-42.9060330000000008
0
LINE
8
BLACK
6
CONTINUOUS
10
118.4676049999999918
20
-42.9060330000000008
11
118.3141839999999974
21
-43.045893999999997
0
LINE
8
BLACK
6
CONTINUOUS
10
118.3141839999999974
20
-43.045893999999997
11
118.137675999999999
21
-43.1551839999999984
0
LINE
8
BLACK
6
CONTINUOUS
10
118.137675999999999
20
-43.1551839999999984
11
117.9440910000000002
21
-43.2301789999999997
0
LINE
8
BLACK
6
CONTINUOUS
10
117.9440910000000002
20
-43.2301789999999997
11
117.7400219999999962
21
-43.2683259999999947
0
LINE
8
BLACK
6
CONTINUOUS
10
117.7400219999999962
20
-43.2683259999999947
11
117.5324179999999927
21
-43.2683259999999947
0
LINE
8
BLACK
6
CONTINUOUS
10
117.5324179999999927
20
-43.2683259999999947
11
117.3283489999999887
21
-43.2301789999999997
0
LINE
8
BLACK
6
CONTINUOUS
10
117.3283489999999887
20
-43.2301789999999997
11
117.1347639999999899
21
-43.1551839999999984
0
LINE
8
BLACK
6
CONTINUOUS
10
117.1347639999999899
20
-43.1551839999999984
11
116.9582559999999916
21
-43.045893999999997
0
LINE
8
BLACK
6
CONTINUOUS
10
116.9582559999999916
20
-43.045893999999997
11
116.8048349999999971
21
-42.9060330000000008
0
LINE
8
BLACK
6
CONTINUOUS
10
116.8048349999999971
20
-42.9060330000000008
11
116.6797259999999881
21
-42.740361
0
LINE
8
BLACK
6
CONTINUOUS
10
116.6797259999999881
20
-42.740361
11
116.5871889999999951
21
-42.5545219999999986
0
LINE
8
BLACK
6
CONTINUOUS
10
116.5871889999999951
20
-42.5545219999999986
11
116.5303749999999923
21
-42.3548429999999954
0
LINE
8
BLACK
6
CONTINUOUS
10
116.5303749999999923
20
-42.3548429999999954
11
116.5112199999999945
21
-42.1481250000000003
0
LINE
8
BLACK
6
CONTINUOUS
10
116.5112199999999945
20
-42.1481250000000003
11
116.5303749999999923
21
-41.9414069999999981
0
LINE
8
BLACK
6
CONTINUOUS
10
116.5303749999999923
20
-41.9414069999999981
11
116.5871889999999951
21
-41.7417279999999948
0
LINE
8
BLACK
6
CONTINUOUS
10
116.5871889999999951
20
-41.7417279999999948
11
116.6797259999999881
21
-41.5558890000000005
0
LINE
8
BLACK
6
CONTINUOUS
10
116.6797259999999881
20
-41.5558890000000005
11
116.8048349999999971
21
-41.3902169999999998
0
LINE
8
BLACK
6
CONTINUOUS
10
116.8048349999999971
20
-41.3902169999999998
11
116.9582559999999916
21
-41.2503559999999965
0
LINE
8
BLACK
6
CONTINUOUS
10
116.9582559999999916
20
-41.2503559999999965
11
117.1347639999999899
21
-41.141065999999995
0
LINE
8
BLACK
6
CONTINUOUS
10
117.1347639999999899
20
-41.141065999999995
11
117.3283489999999887
21
-41.0660710000000009
0
LINE
8
BLACK
6
CONTINUOUS
10
117.3283489999999887
20
-41.0660710000000009
11
117.5324179999999927
21
-41.0279239999999987
0
LINE
8
BLACK
6
CONTINUOUS
10
117.5324179999999927
20
-41.0279239999999987
11
117.7400219999999962
21
-41.0279239999999987
0
LINE
8
BLACK
6
CONTINUOUS
10
117.7400219999999962
20
-41.0279239999999987
11
117.9440910000000002
21
-41.0660710000000009
0
LINE
8
BLACK
6
CONTINUOUS
10
116.5749969999999962
20
-42.346502000000001
11
116.6295179999999903
21
-42.5381229999999988
0
LINE
8
BLACK
6
CONTINUOUS
10
116.6295179999999903
20
-42.5381229999999988
11
116.7183209999999889
21
-42.7164639999999949
0
LINE
8
BLACK
6
CONTINUOUS
10
116.7183209999999889
20
-42.7164639999999949
11
116.8383819999999957
21
-42.8754500000000007
0
LINE
8
BLACK
6
CONTINUOUS
10
116.8383819999999957
20
-42.8754500000000007
11
116.9856130000000007
21
-43.0096679999999978
0
LINE
8
BLACK
6
CONTINUOUS
10
116.9856130000000007
20
-43.0096679999999978
11
117.1549989999999895
21
-43.1145479999999992
0
LINE
8
BLACK
6
CONTINUOUS
10
117.1549989999999895
20
-43.1145479999999992
11
117.3407720000000012
21
-43.1865169999999949
0
LINE
8
BLACK
6
CONTINUOUS
10
117.3407720000000012
20
-43.1865169999999949
11
117.5366069999999894
21
-43.223124999999996
0
LINE
8
BLACK
6
CONTINUOUS
10
117.5366069999999894
20
-43.223124999999996
11
117.7358329999999995
21
-43.223124999999996
0
LINE
8
BLACK
6
CONTINUOUS
10
117.7358329999999995
20
-43.223124999999996
11
117.9316679999999877
21
-43.1865169999999949
0
LINE
8
BLACK
6
CONTINUOUS
10
117.9316679999999877
20
-43.1865169999999949
11
118.1174409999999995
21
-43.1145479999999992
0
LINE
8
BLACK
6
CONTINUOUS
10
118.1174409999999995
20
-43.1145479999999992
11
118.2868269999999882
21
-43.0096679999999978
0
LINE
8
BLACK
6
CONTINUOUS
10
118.2868269999999882
20
-43.0096679999999978
11
118.4340579999999932
21
-42.8754500000000007
0
LINE
8
BLACK
6
CONTINUOUS
10
118.4340579999999932
20
-42.8754500000000007
11
118.554119
21
-42.7164639999999949
0
LINE
8
BLACK
6
CONTINUOUS
10
118.554119
20
-42.7164639999999949
11
118.6429219999999987
21
-42.5381229999999988
0
LINE
8
BLACK
6
CONTINUOUS
10
118.6429219999999987
20
-42.5381229999999988
11
118.6974429999999927
21
-42.346502000000001
0
LINE
8
BLACK
6
CONTINUOUS
10
118.6974429999999927
20
-42.346502000000001
11
118.7158249999999953
21
-42.1481250000000003
0
LINE
8
BLACK
6
CONTINUOUS
10
118.7158249999999953
20
-42.1481250000000003
11
118.6974429999999927
21
-41.9497479999999996
0
LINE
8
BLACK
6
CONTINUOUS
10
118.6974429999999927
20
-41.9497479999999996
11
118.6429219999999987
21
-41.7581269999999947
0
LINE
8
BLACK
6
CONTINUOUS
10
118.6429219999999987
20
-41.7581269999999947
11
118.554119
21
-41.5797859999999986
0
LINE
8
BLACK
6
CONTINUOUS
10
118.554119
20
-41.5797859999999986
11
118.4340579999999932
21
-41.4207999999999998
0
LINE
8
BLACK
6
CONTINUOUS
10
118.4340579999999932
20
-41.4207999999999998
11
118.2868269999999882
21
-41.2865819999999957
0
LINE
8
BLACK
6
CONTINUOUS
10
118.2868269999999882
20
-41.2865819999999957
11
118.1174409999999995
21
-41.1817020000000014
0
LINE
8
BLACK
6
CONTINUOUS
10
118.1174409999999995
20
-41.1817020000000014
11
117.9316679999999877
21
-41.1097329999999985
0
LINE
8
BLACK
6
CONTINUOUS
10
117.9316679999999877
20
-41.1097329999999985
11
117.7358329999999995
21
-41.0731249999999974
0
LINE
8
BLACK
6
CONTINUOUS
10
117.7358329999999995
20
-41.0731249999999974
11
117.5366069999999894
21
-41.0731249999999974
0
LINE
8
BLACK
6
CONTINUOUS
10
117.5366069999999894
20
-41.0731249999999974
11
117.3407720000000012
21
-41.1097329999999985
0
LINE
8
BLACK
6
CONTINUOUS
10
117.3407720000000012
20
-41.1097329999999985
11
117.1549989999999895
21
-41.1817020000000014
0
LINE
8
BLACK
6
CONTINUOUS
10
117.1549989999999895
20
-41.1817020000000014
11
116.9856130000000007
21
-41.2865819999999957
0
LINE
8
BLACK
6
CONTINUOUS
10
116.9856130000000007
20
-41.2865819999999957
11
116.8383819999999957
21
-41.4207999999999998
0
LINE
8
BLACK
6
CONTINUOUS
10
116.8383819999999957
20
-41.4207999999999998
11
116.7183209999999889
21
-41.5797859999999986
0
LINE
8
BLACK
6
CONTINUOUS
10
116.7183209999999889
20
-41.5797859999999986
11
116.6295179999999903
21
-41.7581269999999947
0
LINE
8
BLACK
6
CONTINUOUS
10
116.6295179999999903
20
-41.7581269999999947
11
116.5749969999999962
21
-41.9497479999999996
0
LINE
8
BLACK
6
CONTINUOUS
10
116.5749969999999962
20
-41.9497479999999996
11
116.5566149999999936
21
-42.1481250000000003
0
LINE
8
BLACK
6
CONTINUOUS
10
116.5566149999999936
20
-42.1481250000000003
11
116.5749969999999962
21
-42.346502000000001
0
LINE
8
BLACK
6
CONTINUOUS
10
194.1456909999999993
20
-41.0660710000000009
11
194.3392759999999839
21
-41.141065999999995
0
LINE
8
BLACK
6
CONTINUOUS
10
194.3392759999999839
20
-41.141065999999995
11
194.5157839999999965
21
-41.2503559999999965
0
LINE
8
BLACK
6
CONTINUOUS
10
194.5157839999999965
20
-41.2503559999999965
11
194.6692050000000052
21
-41.3902169999999998
0
LINE
8
BLACK
6
CONTINUOUS
10
194.6692050000000052
20
-41.3902169999999998
11
194.7943139999999858
21
-41.5558890000000005
0
LINE
8
BLACK
6
CONTINUOUS
10
194.7943139999999858
20
-41.5558890000000005
11
194.8868509999999787
21
-41.7417279999999948
0
LINE
8
BLACK
6
CONTINUOUS
10
194.8868509999999787
20
-41.7417279999999948
11
194.9436649999999815
21
-41.9414069999999981
0
LINE
8
BLACK
6
CONTINUOUS
10
194.9436649999999815
20
-41.9414069999999981
11
194.9628199999999936
21
-42.1481250000000003
0
LINE
8
BLACK
6
CONTINUOUS
10
194.9628199999999936
20
-42.1481250000000003
11
194.9436649999999815
21
-42.3548429999999954
0
LINE
8
BLACK
6
CONTINUOUS
10
194.9436649999999815
20
-42.3548429999999954
11
194.8868509999999787
21
-42.5545219999999986
0
LINE
8
BLACK
6
CONTINUOUS
10
194.8868509999999787
20
-42.5545219999999986
11
194.7943139999999858
21
-42.740361
0
LINE
8
BLACK
6
CONTINUOUS
10
194.7943139999999858
20
-42.740361
11
194.6692050000000052
21
-42.9060330000000008
0
LINE
8
BLACK
6
CONTINUOUS
10
194.6692050000000052
20
-42.9060330000000008
11
194.5157839999999965
21
-43.045893999999997
0
LINE
8
BLACK
6
CONTINUOUS
10
194.5157839999999965
20
-43.045893999999997
11
194.3392759999999839
21
-43.1551839999999984
0
LINE
8
BLACK
6
CONTINUOUS
10
194.3392759999999839
20
-43.1551839999999984
11
194.1456909999999993
21
-43.2301789999999997
0
LINE
8
BLACK
6
CONTINUOUS
10
194.1456909999999993
20
-43.2301789999999997
11
193.9416219999999953
21
-43.2683259999999947
0
LINE
8
BLACK
6
CONTINUOUS
10
193.9416219999999953
20
-43.2683259999999947
11
193.7340179999999918
21
-43.2683259999999947
0
LINE
8
BLACK
6
CONTINUOUS
10
193.7340179999999918
20
-43.2683259999999947
11
193.5299489999999878
21
-43.2301789999999997
0
LINE
8
BLACK
6
CONTINUOUS
10
193.5299489999999878
20
-43.2301789999999997
11
193.3363640000000032
21
-43.1551839999999984
0
LINE
8
BLACK
6
CONTINUOUS
10
193.3363640000000032
20
-43.1551839999999984
11
193.1598559999999907
21
-43.045893999999997
0
LINE
8
BLACK
6
CONTINUOUS
10
193.1598559999999907
20
-43.045893999999997
11
193.006434999999982
21
-42.9060330000000008
0
LINE
8
BLACK
6
CONTINUOUS
10
193.006434999999982
20
-42.9060330000000008
11
192.8813260000000014
21
-42.740361
0
LINE
8
BLACK
6
CONTINUOUS
10
192.8813260000000014
20
-42.740361
11
192.78878899999998
21
-42.5545219999999986
0
LINE
8
BLACK
6
CONTINUOUS
10
192.78878899999998
20
-42.5545219999999986
11
192.7319749999999772
21
-42.3548429999999954
0
LINE
8
BLACK
6
CONTINUOUS
10
192.7319749999999772
20
-42.3548429999999954
11
192.7128199999999936
21
-42.1481250000000003
0
LINE
8
BLACK
6
CONTINUOUS
10
192.7128199999999936
20
-42.1481250000000003
11
192.7319749999999772
21
-41.9414069999999981
0
LINE
8
BLACK
6
CONTINUOUS
10
192.7319749999999772
20
-41.9414069999999981
11
192.78878899999998
21
-41.7417279999999948
0
LINE
8
BLACK
6
CONTINUOUS
10
192.78878899999998
20
-41.7417279999999948
11
192.8813260000000014
21
-41.5558890000000005
0
LINE
8
BLACK
6
CONTINUOUS
10
192.8813260000000014
20
-41.5558890000000005
11
193.006434999999982
21
-41.3902169999999998
0
LINE
8
BLACK
6
CONTINUOUS
10
193.006434999999982
20
-41.3902169999999998
11
193.1598559999999907
21
-41.2503559999999965
0
LINE
8
BLACK
6
CONTINUOUS
10
193.1598559999999907
20
-41.2503559999999965
11
193.3363640000000032
21
-41.141065999999995
0
LINE
8
BLACK
6
CONTINUOUS
10
193.3363640000000032
20
-41.141065999999995
11
193.5299489999999878
21
-41.0660710000000009
0
LINE
8
BLACK
6
CONTINUOUS
10
193.5299489999999878
20
-41.0660710000000009
11
193.7340179999999918
21
-41.0279239999999987
0
LINE
8
BLACK
6
CONTINUOUS
10
193.7340179999999918
20
-41.0279239999999987
11
193.9416219999999953
21
-41.0279239999999987
0
LINE
8
BLACK
6
CONTINUOUS
10
193.9416219999999953
20
-41.0279239999999987
11
194.1456909999999993
21
-41.0660710000000009
0
LINE
8
BLACK
6
CONTINUOUS
10
192.7765969999999811
20
-42.346502000000001
11
192.8311180000000036
21
-42.5381229999999988
0
LINE
8
BLACK
6
CONTINUOUS
10
192.8311180000000036
20
-42.5381229999999988
11
192.919920999999988
21
-42.7164639999999949
0
LINE
8
BLACK
6
CONTINUOUS
10
192.919920999999988
20
-42.7164639999999949
11
193.0399819999999806
21
-42.8754500000000007
0
LINE
8
BLACK
6
CONTINUOUS
10
193.0399819999999806
20
-42.8754500000000007
11
193.1872129999999856
21
-43.0096679999999978
0
LINE
8
BLACK
6
CONTINUOUS
10
193.1872129999999856
20
-43.0096679999999978
11
193.3565989999999886
21
-43.1145479999999992
0
LINE
8
BLACK
6
CONTINUOUS
10
193.3565989999999886
20
-43.1145479999999992
11
193.5423720000000003
21
-43.1865169999999949
0
LINE
8
BLACK
6
CONTINUOUS
10
193.5423720000000003
20
-43.1865169999999949
11
193.7382069999999885
21
-43.223124999999996
0
LINE
8
BLACK
6
CONTINUOUS
10
193.7382069999999885
20
-43.223124999999996
11
193.9374329999999986
21
-43.223124999999996
0
LINE
8
BLACK
6
CONTINUOUS
10
193.9374329999999986
20
-43.223124999999996
11
194.1332679999999868
21
-43.1865169999999949
0
LINE
8
BLACK
6
CONTINUOUS
10
194.1332679999999868
20
-43.1865169999999949
11
194.3190409999999986
21
-43.1145479999999992
0
LINE
8
BLACK
6
CONTINUOUS
10
194.3190409999999986
20
-43.1145479999999992
11
194.4884270000000015
21
-43.0096679999999978
0
LINE
8
BLACK
6
CONTINUOUS
10
194.4884270000000015
20
-43.0096679999999978
11
194.6356579999999781
21
-42.8754500000000007
0
LINE
8
BLACK
6
CONTINUOUS
10
194.6356579999999781
20
-42.8754500000000007
11
194.7557189999999991
21
-42.7164639999999949
0
LINE
8
BLACK
6
CONTINUOUS
10
194.7557189999999991
20
-42.7164639999999949
11
194.8445219999999836
21
-42.5381229999999988
0
LINE
8
BLACK
6
CONTINUOUS
10
194.8445219999999836
20
-42.5381229999999988
11
194.8990429999999776
21
-42.346502000000001
0
LINE
8
BLACK
6
CONTINUOUS
10
194.8990429999999776
20
-42.346502000000001
11
194.9174249999999802
21
-42.1481250000000003
0
LINE
8
BLACK
6
CONTINUOUS
10
194.9174249999999802
20
-42.1481250000000003
11
194.8990429999999776
21
-41.9497479999999996
0
LINE
8
BLACK
6
CONTINUOUS
10
194.8990429999999776
20
-41.9497479999999996
11
194.8445219999999836
21
-41.7581269999999947
0
LINE
8
BLACK
6
CONTINUOUS
10
194.8445219999999836
20
-41.7581269999999947
11
194.7557189999999991
21
-41.5797859999999986
0
LINE
8
BLACK
6
CONTINUOUS
10
194.7557189999999991
20
-41.5797859999999986
11
194.6356579999999781
21
-41.4207999999999998
0
LINE
8
BLACK
6
CONTINUOUS
10
194.6356579999999781
20
-41.4207999999999998
11
194.4884270000000015
21
-41.2865819999999957
0
LINE
8
BLACK
6
CONTINUOUS
10
194.4884270000000015
20
-41.2865819999999957
11
194.3190409999999986
21
-41.1817020000000014
0
LINE
8
BLACK
6
CONTINUOUS
10
194.3190409999999986
20
-41.1817020000000014
11
194.1332679999999868
21
-41.1097329999999985
0
LINE
8
BLACK
6
CONTINUOUS
10
194.1332679999999868
20
-41.1097329999999985
11
193.9374329999999986
21
-41.0731249999999974
0
LINE
8
BLACK
6
CONTINUOUS
10
193.9374329999999986
20
-41.0731249999999974
11
193.7382069999999885
21
-41.0731249999999974
0
LINE
8
BLACK
6
CONTINUOUS
10
193.7382069999999885
20
-41.0731249999999974
11
193.5423720000000003
21
-41.1097329999999985
0
LINE
8
BLACK
6
CONTINUOUS
10
193.5423720000000003
20
-41.1097329999999985
11
193.3565989999999886
21
-41.1817020000000014
0
LINE
8
BLACK
6
CONTINUOUS
10
193.3565989999999886
20
-41.1817020000000014
11
193.1872129999999856
21
-41.2865819999999957
0
LINE
8
BLACK
6
CONTINUOUS
10
193.1872129999999856
20
-41.2865819999999957
11
193.0399819999999806
21
-41.4207999999999998
0
LINE
8
BLACK
6
CONTINUOUS
10
193.0399819999999806
20
-41.4207999999999998
11
192.919920999999988
21
-41.5797859999999986
0
LINE
8
BLACK
6
CONTINUOUS
10
192.919920999999988
20
-41.5797859999999986
11
192.8311180000000036
21
-41.7581269999999947
0
LINE
8
BLACK
6
CONTINUOUS
10
192.8311180000000036
20
-41.7581269999999947
11
192.7765969999999811
21
-41.9497479999999996
0
LINE
8
BLACK
6
CONTINUOUS
10
192.7765969999999811
20
-41.9497479999999996
11
192.7582149999999785
21
-42.1481250000000003
0
LINE
8
BLACK
6
CONTINUOUS
10
192.7582149999999785
20
-42.1481250000000003
11
192.7765969999999811
21
-42.346502000000001
0
LINE
8
BLACK
6
CONTINUOUS
10
252.0112809999999968
20
-41.0660710000000009
11
252.2048659999999813
21
-41.141065999999995
0
LINE
8
BLACK
6
CONTINUOUS
10
252.2048659999999813
20
-41.141065999999995
11
252.3813739999999939
21
-41.2503559999999965
0
LINE
8
BLACK
6
CONTINUOUS
10
252.3813739999999939
20
-41.2503559999999965
11
252.5347950000000026
21
-41.3902169999999998
0
LINE
8
BLACK
6
CONTINUOUS
10
252.5347950000000026
20
-41.3902169999999998
11
252.6599039999999832
21
-41.5558890000000005
0
LINE
8
BLACK
6
CONTINUOUS
10
252.6599039999999832
20
-41.5558890000000005
11
252.7524409999999762
21
-41.7417279999999948
0
LINE
8
BLACK
6
CONTINUOUS
10
252.7524409999999762
20
-41.7417279999999948
11
252.809254999999979
21
-41.9414069999999981
0
LINE
8
BLACK
6
CONTINUOUS
10
252.809254999999979
20
-41.9414069999999981
11
252.828409999999991
21
-42.1481250000000003
0
LINE
8
BLACK
6
CONTINUOUS
10
252.828409999999991
20
-42.1481250000000003
11
252.809254999999979
21
-42.3548429999999954
0
LINE
8
BLACK
6
CONTINUOUS
10
252.809254999999979
20
-42.3548429999999954
11
252.7524409999999762
21
-42.5545219999999986
0
LINE
8
BLACK
6
CONTINUOUS
10
252.7524409999999762
20
-42.5545219999999986
11
252.6599039999999832
21
-42.740361
0
LINE
8
BLACK
6
CONTINUOUS
10
252.6599039999999832
20
-42.740361
11
252.5347950000000026
21
-42.9060330000000008
0
LINE
8
BLACK
6
CONTINUOUS
10
252.5347950000000026
20
-42.9060330000000008
11
252.3813739999999939
21
-43.045893999999997
0
LINE
8
BLACK
6
CONTINUOUS
10
252.3813739999999939
20
-43.045893999999997
11
252.2048659999999813
21
-43.1551839999999984
0
LINE
8
BLACK
6
CONTINUOUS
10
252.2048659999999813
20
-43.1551839999999984
11
252.0112809999999968
21
-43.2301789999999997
0
LINE
8
BLACK
6
CONTINUOUS
10
252.0112809999999968
20
-43.2301789999999997
11
251.8072119999999927
21
-43.2683259999999947
0
LINE
8
BLACK
6
CONTINUOUS
10
251.8072119999999927
20
-43.2683259999999947
11
251.5996079999999893
21
-43.2683259999999947
0
LINE
8
BLACK
6
CONTINUOUS
10
251.5996079999999893
20
-43.2683259999999947
11
251.3955389999999852
21
-43.2301789999999997
0
LINE
8
BLACK
6
CONTINUOUS
10
251.3955389999999852
20
-43.2301789999999997
11
251.2019540000000006
21
-43.1551839999999984
0
LINE
8
BLACK
6
CONTINUOUS
10
251.2019540000000006
20
-43.1551839999999984
11
251.0254459999999881
21
-43.045893999999997
0
LINE
8
BLACK
6
CONTINUOUS
10
251.0254459999999881
20
-43.045893999999997
11
250.8720249999999794
21
-42.9060330000000008
0
LINE
8
BLACK
6
CONTINUOUS
10
250.8720249999999794
20
-42.9060330000000008
11
250.7469159999999988
21
-42.740361
0
LINE
8
BLACK
6
CONTINUOUS
10
250.7469159999999988
20
-42.740361
11
250.6543789999999774
21
-42.5545219999999986
0
LINE
8
BLACK
6
CONTINUOUS
10
250.6543789999999774
20
-42.5545219999999986
11
250.5975649999999746
21
-42.3548429999999954
0
LINE
8
BLACK
6
CONTINUOUS
10
250.5975649999999746
20
-42.3548429999999954
11
250.578409999999991
21
-42.1481250000000003
0
LINE
8
BLACK
6
CONTINUOUS
10
250.578409999999991
20
-42.1481250000000003
11
250.5975649999999746
21
-41.9414069999999981
0
LINE
8
BLACK
6
CONTINUOUS
10
250.5975649999999746
20
-41.9414069999999981
11
250.6543789999999774
21
-41.7417279999999948
0
LINE
8
BLACK
6
CONTINUOUS
10
250.6543789999999774
20
-41.7417279999999948
11
250.7469159999999988
21
-41.5558890000000005
0
LINE
8
BLACK
6
CONTINUOUS
10
250.7469159999999988
20
-41.5558890000000005
11
250.8720249999999794
21
-41.3902169999999998
0
LINE
8
BLACK
6
CONTINUOUS
10
250.8720249999999794
20
-41.3902169999999998
11
251.0254459999999881
21
-41.2503559999999965
0
LINE
8
BLACK
6
CONTINUOUS
10
251.0254459999999881
20
-41.2503559999999965
11
251.2019540000000006
21
-41.141065999999995
0
LINE
8
BLACK
6
CONTINUOUS
10
251.2019540000000006
20
-41.141065999999995
11
251.3955389999999852
21
-41.0660710000000009
0
LINE
8
BLACK
6
CONTINUOUS
10
251.3955389999999852
20
-41.0660710000000009
11
251.5996079999999893
21
-41.0279239999999987
0
LINE
8
BLACK
6
CONTINUOUS
10
251.5996079999999893
20
-41.0279239999999987
11
251.8072119999999927
21
-41.0279239999999987
0
LINE
8
BLACK
6
CONTINUOUS
10
251.8072119999999927
20
-41.0279239999999987
11
252.0112809999999968
21
-41.0660710000000009
0
LINE
8
BLACK
6
CONTINUOUS
10
250.6421869999999785
20
-42.346502000000001
11
250.696708000000001
21
-42.5381229999999988
0
LINE
8
BLACK
6
CONTINUOUS
10
250.696708000000001
20
-42.5381229999999988
11
250.7855109999999854
21
-42.7164639999999949
0
LINE
8
BLACK
6
CONTINUOUS
10
250.7855109999999854
20
-42.7164639999999949
11
250.9055719999999781
21
-42.8754500000000007
0
LINE
8
BLACK
6
CONTINUOUS
10
250.9055719999999781
20
-42.8754500000000007
11
251.0528029999999831
21
-43.0096679999999978
0
LINE
8
BLACK
6
CONTINUOUS
10
251.0528029999999831
20
-43.0096679999999978
11
251.222188999999986
21
-43.1145479999999992
0
LINE
8
BLACK
6
CONTINUOUS
10
251.222188999999986
20
-43.1145479999999992
11
251.4079619999999977
21
-43.1865169999999949
0
LINE
8
BLACK
6
CONTINUOUS
10
251.4079619999999977
20
-43.1865169999999949
11
251.6037969999999859
21
-43.223124999999996
0
LINE
8
BLACK
6
CONTINUOUS
10
251.6037969999999859
20
-43.223124999999996
11
251.803022999999996
21
-43.223124999999996
0
LINE
8
BLACK
6
CONTINUOUS
10
251.803022999999996
20
-43.223124999999996
11
251.9988579999999843
21
-43.1865169999999949
0
LINE
8
BLACK
6
CONTINUOUS
10
251.9988579999999843
20
-43.1865169999999949
11
252.184630999999996
21
-43.1145479999999992
0
LINE
8
BLACK
6
CONTINUOUS
10
252.184630999999996
20
-43.1145479999999992
11
252.3540169999999989
21
-43.0096679999999978
0
LINE
8
BLACK
6
CONTINUOUS
10
252.3540169999999989
20
-43.0096679999999978
11
252.5012479999999755
21
-42.8754500000000007
0
LINE
8
BLACK
6
CONTINUOUS
10
252.5012479999999755
20
-42.8754500000000007
11
252.6213089999999966
21
-42.7164639999999949
0
LINE
8
BLACK
6
CONTINUOUS
10
252.6213089999999966
20
-42.7164639999999949
11
252.710111999999981
21
-42.5381229999999988
0
LINE
8
BLACK
6
CONTINUOUS
10
252.710111999999981
20
-42.5381229999999988
11
252.764632999999975
21
-42.346502000000001
0
LINE
8
BLACK
6
CONTINUOUS
10
252.764632999999975
20
-42.346502000000001
11
252.7830149999999776
21
-42.1481250000000003
0
LINE
8
BLACK
6
CONTINUOUS
10
252.7830149999999776
20
-42.1481250000000003
11
252.764632999999975
21
-41.9497479999999996
0
LINE
8
BLACK
6
CONTINUOUS
10
252.764632999999975
20
-41.9497479999999996
11
252.710111999999981
21
-41.7581269999999947
0
LINE
8
BLACK
6
CONTINUOUS
10
252.710111999999981
20
-41.7581269999999947
11
252.6213089999999966
21
-41.5797859999999986
0
LINE
8
BLACK
6
CONTINUOUS
10
252.6213089999999966
20
-41.5797859999999986
11
252.5012479999999755
21
-41.4207999999999998
0
LINE
8
BLACK
6
CONTINUOUS
10
252.5012479999999755
20
-41.4207999999999998
11
252.3540169999999989
21
-41.2865819999999957
0
LINE
8
BLACK
6
CONTINUOUS
10
252.3540169999999989
20
-41.2865819999999957
11
252.184630999999996
21
-41.1817020000000014
0
LINE
8
BLACK
6
CONTINUOUS
10
252.184630999999996
20
-41.1817020000000014
11
251.9988579999999843
21
-41.1097329999999985
0
LINE
8
BLACK
6
CONTINUOUS
10
251.9988579999999843
20
-41.1097329999999985
11
251.803022999999996
21
-41.0731249999999974
0
LINE
8
BLACK
6
CONTINUOUS
10
251.803022999999996
20
-41.0731249999999974
11
251.6037969999999859
21
-41.0731249999999974
0
LINE
8
BLACK
6
CONTINUOUS
10
251.6037969999999859
20
-41.0731249999999974
11
251.4079619999999977
21
-41.1097329999999985
0
LINE
8
BLACK
6
CONTINUOUS
10
251.4079619999999977
20
-41.1097329999999985
11
251.222188999999986
21
-41.1817020000000014
0
LINE
8
BLACK
6
CONTINUOUS
10
251.222188999999986
20
-41.1817020000000014
11
251.0528029999999831
21
-41.2865819999999957
0
LINE
8
BLACK
6
CONTINUOUS
10
251.0528029999999831
20
-41.2865819999999957
11
250.9055719999999781
21
-41.4207999999999998
0
LINE
8
BLACK
6
CONTINUOUS
10
250.9055719999999781
20
-41.4207999999999998
11
250.7855109999999854
21
-41.5797859999999986
0
LINE
8
BLACK
6
CONTINUOUS
10
250.7855109999999854
20
-41.5797859999999986
11
250.696708000000001
21
-41.7581269999999947
0
LINE
8
BLACK
6
CONTINUOUS
10
250.696708000000001
20
-41.7581269999999947
11
250.6421869999999785
21
-41.9497479999999996
0
LINE
8
BLACK
6
CONTINUOUS
10
250.6421869999999785
20
-41.9497479999999996
11
250.623804999999976
21
-42.1481250000000003
0
LINE
8
BLACK
6
CONTINUOUS
10
250.623804999999976
20
-42.1481250000000003
11
250.6421869999999785
21
-42.346502000000001
0
LINE
8
BLACK
6
CONTINUOUS
10
41.1964889999999997
20
-39.140625
11
41.1964899999999972
21
-39.140625
0
LINE
8
BLACK
6
CONTINUOUS
10
41.1964899999999972
20
-39.140625
11
268.3725349999999708
21
-39.140625
0
LINE
8
BLACK
6
CONTINUOUS
10
268.3725349999999708
20
-39.140625
11
268.3725660000000062
21
-39.1406279999999995
0
LINE
8
BLACK
6
CONTINUOUS
10
268.3725660000000062
20
-39.1406279999999995
11
268.5822529999999801
21
-39.157119999999999
0
LINE
8
BLACK
6
CONTINUOUS
10
268.5822529999999801
20
-39.157119999999999
11
268.7868149999999901
21
-39.2062230000000014
0
LINE
8
BLACK
6
CONTINUOUS
10
268.7868149999999901
20
-39.2062230000000014
11
268.9811779999999999
21
-39.286722999999995
0
LINE
8
BLACK
6
CONTINUOUS
10
268.9811779999999999
20
-39.286722999999995
11
269.1605529999999931
21
-39.3966390000000004
0
LINE
8
BLACK
6
CONTINUOUS
10
269.1605529999999931
20
-39.3966390000000004
11
269.3205239999999776
21
-39.5332639999999955
0
LINE
8
BLACK
6
CONTINUOUS
10
269.3205239999999776
20
-39.5332639999999955
11
269.4571510000000103
21
-39.6932329999999993
0
LINE
8
BLACK
6
CONTINUOUS
10
269.4571510000000103
20
-39.6932329999999993
11
269.5670690000000036
21
-39.872606999999995
0
LINE
8
BLACK
6
CONTINUOUS
10
269.5670690000000036
20
-39.872606999999995
11
269.6475719999999683
21
-40.0669679999999957
0
LINE
8
BLACK
6
CONTINUOUS
10
269.6475719999999683
20
-40.0669679999999957
11
269.6966769999999656
21
-40.271530999999996
0
LINE
8
BLACK
6
CONTINUOUS
10
269.6966769999999656
20
-40.271530999999996
11
269.7131749999999784
21
-40.4812559999999948
0
LINE
8
BLACK
6
CONTINUOUS
10
269.7131749999999784
20
-40.4812559999999948
11
269.7131599999999594
21
-40.4812559999999948
0
LINE
8
BLACK
6
CONTINUOUS
10
269.7131599999999594
20
-40.4812559999999948
11
269.7131599999999594
21
-96.9168749999999903
0
LINE
8
BLACK
6
CONTINUOUS
10
269.7131599999999594
20
-96.9168749999999903
11
269.7131529999999771
21
-96.9169380000000018
0
LINE
8
BLACK
6
CONTINUOUS
10
269.7131529999999771
20
-96.9169380000000018
11
269.6966739999999731
21
-97.1265949999999947
0
LINE
8
BLACK
6
CONTINUOUS
10
269.6966739999999731
20
-97.1265949999999947
11
269.6475770000000125
21
-97.331167999999991
0
LINE
8
BLACK
6
CONTINUOUS
10
269.6475770000000125
20
-97.331167999999991
11
269.5670789999999784
21
-97.5255409999999898
0
LINE
8
BLACK
6
CONTINUOUS
10
269.5670789999999784
20
-97.5255409999999898
11
269.4571619999999825
21
-97.7049260000000004
0
LINE
8
BLACK
6
CONTINUOUS
10
269.4571619999999825
20
-97.7049260000000004
11
269.3205330000000117
21
-97.8649049999999932
0
LINE
8
BLACK
6
CONTINUOUS
10
269.3205330000000117
20
-97.8649049999999932
11
269.1605579999999804
21
-98.0015379999999965
0
LINE
8
BLACK
6
CONTINUOUS
10
269.1605579999999804
20
-98.0015379999999965
11
268.9811760000000049
21
-98.1114609999999914
0
LINE
8
BLACK
6
CONTINUOUS
10
268.9811760000000049
20
-98.1114609999999914
11
268.7868050000000153
21
-98.1919649999999962
0
LINE
8
BLACK
6
CONTINUOUS
10
268.7868050000000153
20
-98.1919649999999962
11
268.5822339999999713
21
-98.2410679999999985
0
LINE
8
BLACK
6
CONTINUOUS
10
268.5822339999999713
20
-98.2410679999999985
11
268.3724990000000048
21
-98.257559999999998
0
LINE
8
BLACK
6
CONTINUOUS
10
268.3724990000000048
20
-98.257559999999998
11
268.3724990000000048
21
-98.2575250000000011
0
LINE
8
BLACK
6
CONTINUOUS
10
268.3724990000000048
20
-98.2575250000000011
11
268.3724980000000073
21
-98.2575239999999894
0
LINE
8
BLACK
6
CONTINUOUS
10
268.3724980000000073
20
-98.2575239999999894
11
260.1879599999999755
21
-98.2574999999999932
0
LINE
8
BLACK
6
CONTINUOUS
10
260.1879599999999755
20
-98.2574999999999932
11
260.1879599999999755
21
-116.6812499999999915
0
LINE
8
BLACK
6
CONTINUOUS
10
260.1879599999999755
20
-116.6812499999999915
11
260.187958999999978
21
-116.6812539999999956
0
LINE
8
BLACK
6
CONTINUOUS
10
260.187958999999978
20
-116.6812539999999956
11
260.1879599999999755
21
-116.6812559999999905
0
LINE
8
BLACK
6
CONTINUOUS
10
260.1879599999999755
20
-116.6812559999999905
11
260.1714470000000006
21
-116.8909759999999949
0
LINE
8
BLACK
6
CONTINUOUS
10
260.1714470000000006
20
-116.8909759999999949
11
260.1223339999999666
21
-117.0955319999999915
0
LINE
8
BLACK
6
CONTINUOUS
10
260.1223339999999666
20
-117.0955319999999915
11
260.041829000000007
21
-117.2898869999999931
0
LINE
8
BLACK
6
CONTINUOUS
10
260.041829000000007
20
-117.2898869999999931
11
259.9319140000000061
21
-117.4692569999999989
0
LINE
8
BLACK
6
CONTINUOUS
10
259.9319140000000061
20
-117.4692569999999989
11
259.7952940000000126
21
-117.6292270000000002
0
LINE
8
BLACK
6
CONTINUOUS
10
259.7952940000000126
20
-117.6292270000000002
11
259.6353349999999978
21
-117.7658569999999969
0
LINE
8
BLACK
6
CONTINUOUS
10
259.6353349999999978
20
-117.7658569999999969
11
259.4559719999999743
21
-117.8757849999999934
0
LINE
8
BLACK
6
CONTINUOUS
10
259.4559719999999743
20
-117.8757849999999934
11
259.261622999999986
21
-117.9563039999999887
0
LINE
8
BLACK
6
CONTINUOUS
10
259.261622999999986
20
-117.9563039999999887
11
259.0570710000000076
21
-118.005431999999999
0
LINE
8
BLACK
6
CONTINUOUS
10
259.0570710000000076
20
-118.005431999999999
11
258.8473520000000008
21
-118.0219599999999929
0
LINE
8
BLACK
6
CONTINUOUS
10
258.8473520000000008
20
-118.0219599999999929
11
258.8473520000000008
21
-118.0218749999999943
0
LINE
8
BLACK
6
CONTINUOUS
10
258.8473520000000008
20
-118.0218749999999943
11
50.7217190000000002
21
-118.0627499999999941
0
LINE
8
BLACK
6
CONTINUOUS
10
50.7217190000000002
20
-118.0627499999999941
11
50.7216979999999964
21
-118.0627470000000017
0
LINE
8
BLACK
6
CONTINUOUS
10
50.7216979999999964
20
-118.0627470000000017
11
50.7216889999999978
21
-118.0627499999999941
0
LINE
8
BLACK
6
CONTINUOUS
10
50.7216889999999978
20
-118.0627499999999941
11
50.5119649999999965
21
-118.0462429999999898
0
LINE
8
BLACK
6
CONTINUOUS
10
50.5119649999999965
20
-118.0462429999999898
11
50.3074060000000003
21
-117.997130999999996
0
LINE
8
BLACK
6
CONTINUOUS
10
50.3074060000000003
20
-117.997130999999996
11
50.1130479999999991
21
-117.9166230000000013
0
LINE
8
BLACK
6
CONTINUOUS
10
50.1130479999999991
20
-117.9166230000000013
11
49.9336769999999959
21
-117.8067029999999988
0
LINE
8
BLACK
6
CONTINUOUS
10
49.9336769999999959
20
-117.8067029999999988
11
49.7737100000000012
21
-117.6700759999999946
0
LINE
8
BLACK
6
CONTINUOUS
10
49.7737100000000012
20
-117.6700759999999946
11
49.6370859999999965
21
-117.5101059999999933
0
LINE
8
BLACK
6
CONTINUOUS
10
49.6370859999999965
20
-117.5101059999999933
11
49.5271679999999961
21
-117.3307339999999925
0
LINE
8
BLACK
6
CONTINUOUS
10
49.5271679999999961
20
-117.3307339999999925
11
49.4466630000000009
21
-117.136375000000001
0
LINE
8
BLACK
6
CONTINUOUS
10
49.4466630000000009
20
-117.136375000000001
11
49.3975539999999995
21
-116.9318150000000003
0
LINE
8
BLACK
6
CONTINUOUS
10
49.3975539999999995
20
-116.9318150000000003
11
49.3810900000000004
21
-116.7226009999999974
0
LINE
8
BLACK
6
CONTINUOUS
10
49.3810900000000004
20
-116.7226009999999974
11
49.3810399999999987
21
-116.7220919999999893
0
LINE
8
BLACK
6
CONTINUOUS
10
49.3810399999999987
20
-116.7220919999999893
11
49.3810399999999987
21
-98.2574989999999957
0
LINE
8
BLACK
6
CONTINUOUS
10
49.3810399999999987
20
-98.2574989999999957
11
41.1964899999999972
21
-98.2574749999999995
0
LINE
8
BLACK
6
CONTINUOUS
10
41.1964899999999972
20
-98.2574749999999995
11
41.1964889999999997
21
-98.257474000000002
0
LINE
8
BLACK
6
CONTINUOUS
10
41.1964889999999997
20
-98.257474000000002
11
41.1964889999999997
21
-98.2574749999999995
0
LINE
8
BLACK
6
CONTINUOUS
10
41.1964889999999997
20
-98.2574749999999995
11
40.9867709999999974
21
-98.2409689999999927
0
LINE
8
BLACK
6
CONTINUOUS
10
40.9867709999999974
20
-98.2409689999999927
11
40.7822159999999982
21
-98.1918599999999913
0
LINE
8
BLACK
6
CONTINUOUS
10
40.7822159999999982
20
-98.1918599999999913
11
40.5878620000000012
21
-98.1113579999999956
0
LINE
8
BLACK
6
CONTINUOUS
10
40.5878620000000012
20
-98.1113579999999956
11
40.408493
21
-98.0014449999999897
0
LINE
8
BLACK
6
CONTINUOUS
10
40.408493
20
-98.0014449999999897
11
40.2485250000000008
21
-97.8648259999999937
0
LINE
8
BLACK
6
CONTINUOUS
10
40.2485250000000008
20
-97.8648259999999937
11
40.1118979999999965
21
-97.7048659999999956
0
LINE
8
BLACK
6
CONTINUOUS
10
40.1118979999999965
20
-97.7048659999999956
11
40.0019750000000016
21
-97.5255030000000005
0
LINE
8
BLACK
6
CONTINUOUS
10
40.0019750000000016
20
-97.5255030000000005
11
39.9214619999999982
21
-97.3311530000000005
0
LINE
8
BLACK
6
CONTINUOUS
10
39.9214619999999982
20
-97.3311530000000005
11
39.8723430000000008
21
-97.1266019999999912
0
LINE
8
BLACK
6
CONTINUOUS
10
39.8723430000000008
20
-97.1266019999999912
11
39.8558249999999958
21
-96.916883999999996
0
LINE
8
BLACK
6
CONTINUOUS
10
39.8558249999999958
20
-96.916883999999996
11
39.8558400000000006
21
-96.916883999999996
0
LINE
8
BLACK
6
CONTINUOUS
10
39.8558400000000006
20
-96.916883999999996
11
39.8558400000000006
21
-96.9168809999999894
0
LINE
8
BLACK
6
CONTINUOUS
10
39.8558400000000006
20
-96.9168809999999894
11
39.8558400000000006
21
-96.9168749999999903
0
LINE
8
BLACK
6
CONTINUOUS
10
39.8558400000000006
20
-96.9168749999999903
11
39.8558149999999998
21
-40.4812379999999976
0
LINE
8
BLACK
6
CONTINUOUS
10
39.8558149999999998
20
-40.4812379999999976
11
39.8558149999999998
21
-40.4812319999999985
0
LINE
8
BLACK
6
CONTINUOUS
10
39.8558149999999998
20
-40.4812319999999985
11
39.8558149999999998
21
-40.4812299999999965
0
LINE
8
BLACK
6
CONTINUOUS
10
39.8558149999999998
20
-40.4812299999999965
11
39.8723309999999955
21
-40.2715099999999993
0
LINE
8
BLACK
6
CONTINUOUS
10
39.8723309999999955
20
-40.2715099999999993
11
39.9214489999999955
21
-40.0669550000000001
0
LINE
8
BLACK
6
CONTINUOUS
10
39.9214489999999955
20
-40.0669550000000001
11
40.0019619999999989
21
-39.872600999999996
0
LINE
8
BLACK
6
CONTINUOUS
10
40.0019619999999989
20
-39.872600999999996
11
40.1118850000000009
21
-39.6932350000000014
0
LINE
8
BLACK
6
CONTINUOUS
10
40.1118850000000009
20
-39.6932350000000014
11
40.2485129999999955
21
-39.5332719999999966
0
LINE
8
BLACK
6
CONTINUOUS
10
40.2485129999999955
20
-39.5332719999999966
11
40.4084819999999993
21
-39.3966509999999985
0
LINE
8
BLACK
6
CONTINUOUS
10
40.4084819999999993
20
-39.3966509999999985
11
40.5878529999999955
21
-39.2867350000000002
0
LINE
8
BLACK
6
CONTINUOUS
10
40.5878529999999955
20
-39.2867350000000002
11
40.7822099999999992
21
-39.2062309999999954
0
LINE
8
BLACK
6
CONTINUOUS
10
40.7822099999999992
20
-39.2062309999999954
11
40.9867679999999979
21
-39.1571220000000011
0
LINE
8
BLACK
6
CONTINUOUS
10
40.9867679999999979
20
-39.1571220000000011
11
41.1964889999999997
21
-39.1406149999999968
0
LINE
8
BLACK
6
CONTINUOUS
10
41.1964889999999997
20
-39.1406149999999968
11
41.1964889999999997
21
-39.140625
0
LINE
8
BLACK
6
CONTINUOUS
10
41.1054469999999981
20
-39.4406159999999986
11
40.9261240000000015
21
-39.4722349999999977
0
LINE
8
BLACK
6
CONTINUOUS
10
40.9261240000000015
20
-39.4722349999999977
11
40.7550159999999977
21
-39.5345129999999969
0
LINE
8
BLACK
6
CONTINUOUS
10
40.7550159999999977
20
-39.5345129999999969
11
40.5973210000000009
21
-39.625555999999996
0
LINE
8
BLACK
6
CONTINUOUS
10
40.5973210000000009
20
-39.625555999999996
11
40.4578300000000013
21
-39.742598000000001
0
LINE
8
BLACK
6
CONTINUOUS
10
40.4578300000000013
20
-39.742598000000001
11
40.3407819999999973
21
-39.8820830000000015
0
LINE
8
BLACK
6
CONTINUOUS
10
40.3407819999999973
20
-39.8820830000000015
11
40.2497320000000016
21
-40.0397740000000013
0
LINE
8
BLACK
6
CONTINUOUS
10
40.2497320000000016
20
-40.0397740000000013
11
40.1874469999999988
21
-40.210879999999996
0
LINE
8
BLACK
6
CONTINUOUS
10
40.1874469999999988
20
-40.210879999999996
11
40.1558199999999985
21
-40.3902009999999976
0
LINE
8
BLACK
6
CONTINUOUS
10
40.1558199999999985
20
-40.3902009999999976
11
40.1558149999999969
21
-40.4812379999999976
0
LINE
8
BLACK
6
CONTINUOUS
10
40.1558149999999969
20
-40.4812379999999976
11
40.1558399999999978
21
-96.9168749999999903
0
LINE
8
BLACK
6
CONTINUOUS
10
40.1558399999999978
20
-96.9168749999999903
11
40.1558250000000001
21
-96.9170269999999903
0
LINE
8
BLACK
6
CONTINUOUS
10
40.1558250000000001
20
-96.9170269999999903
11
40.1558309999999992
21
-97.0079089999999979
0
LINE
8
BLACK
6
CONTINUOUS
10
40.1558309999999992
20
-97.0079089999999979
11
40.1874589999999969
21
-97.1872269999999929
0
LINE
8
BLACK
6
CONTINUOUS
10
40.1874589999999969
20
-97.1872269999999929
11
40.2497449999999972
21
-97.3583289999999977
0
LINE
8
BLACK
6
CONTINUOUS
10
40.2497449999999972
20
-97.3583289999999977
11
40.3407939999999954
21
-97.5160169999999908
0
LINE
8
BLACK
6
CONTINUOUS
10
40.3407939999999954
20
-97.5160169999999908
11
40.4578409999999948
21
-97.6554989999999918
0
LINE
8
BLACK
6
CONTINUOUS
10
40.4578409999999948
20
-97.6554989999999918
11
40.5973299999999995
21
-97.7725389999999948
0
LINE
8
BLACK
6
CONTINUOUS
10
40.5973299999999995
20
-97.7725389999999948
11
40.7550230000000013
21
-97.8635790000000014
0
LINE
8
BLACK
6
CONTINUOUS
10
40.7550230000000013
20
-97.8635790000000014
11
40.9261279999999985
21
-97.9258549999999985
0
LINE
8
BLACK
6
CONTINUOUS
10
40.9261279999999985
20
-97.9258549999999985
11
41.1054479999999955
21
-97.9574739999999906
0
LINE
8
BLACK
6
CONTINUOUS
10
41.1054479999999955
20
-97.9574739999999906
11
41.1964909999999946
21
-97.9574750000000023
0
LINE
8
BLACK
6
CONTINUOUS
10
41.1964909999999946
20
-97.9574750000000023
11
49.5310399999999973
21
-97.957499999999996
0
LINE
8
BLACK
6
CONTINUOUS
10
49.5310399999999973
20
-97.957499999999996
11
49.560303999999995
21
-97.9603819999999956
0
LINE
8
BLACK
6
CONTINUOUS
10
49.560303999999995
20
-97.9603819999999956
11
49.614376
21
-97.9827799999999911
0
LINE
8
BLACK
6
CONTINUOUS
10
49.614376
20
-97.9827799999999911
11
49.6557600000000008
21
-98.024163999999999
0
LINE
8
BLACK
6
CONTINUOUS
10
49.6557600000000008
20
-98.024163999999999
11
49.6781579999999963
21
-98.0782359999999898
0
LINE
8
BLACK
6
CONTINUOUS
10
49.6781579999999963
20
-98.0782359999999898
11
49.6810399999999959
21
-98.1075000000000017
0
LINE
8
BLACK
6
CONTINUOUS
10
49.6810399999999959
20
-98.1075000000000017
11
49.6810399999999959
21
-116.7220919999999893
0
LINE
8
BLACK
6
CONTINUOUS
10
49.6810399999999959
20
-116.7220919999999893
11
49.6810399999999959
21
-116.722093000000001
0
LINE
8
BLACK
6
CONTINUOUS
10
49.6810399999999959
20
-116.722093000000001
11
49.681049999999999
21
-116.722093000000001
0
LINE
8
BLACK
6
CONTINUOUS
10
49.681049999999999
20
-116.722093000000001
11
49.6810489999999945
21
-116.813137999999995
0
LINE
8
BLACK
6
CONTINUOUS
10
49.6810489999999945
20
-116.813137999999995
11
49.7126680000000007
21
-116.9924619999999891
0
LINE
8
BLACK
6
CONTINUOUS
10
49.7126680000000007
20
-116.9924619999999891
11
49.7749449999999953
21
-117.1635709999999904
0
LINE
8
BLACK
6
CONTINUOUS
10
49.7749449999999953
20
-117.1635709999999904
11
49.865988999999999
21
-117.3212659999999943
0
LINE
8
BLACK
6
CONTINUOUS
10
49.865988999999999
20
-117.3212659999999943
11
49.9830329999999989
21
-117.4607559999999893
0
LINE
8
BLACK
6
CONTINUOUS
10
49.9830329999999989
20
-117.4607559999999893
11
50.122520999999999
21
-117.5778019999999913
0
LINE
8
BLACK
6
CONTINUOUS
10
50.122520999999999
20
-117.5778019999999913
11
50.2802149999999983
21
-117.668847999999997
0
LINE
8
BLACK
6
CONTINUOUS
10
50.2802149999999983
20
-117.668847999999997
11
50.451322999999995
21
-117.7311279999999982
0
LINE
8
BLACK
6
CONTINUOUS
10
50.451322999999995
20
-117.7311279999999982
11
50.6306459999999987
21
-117.7627489999999995
0
LINE
8
BLACK
6
CONTINUOUS
10
50.6306459999999987
20
-117.7627489999999995
11
50.7216619999999949
21
-117.7627489999999995
0
LINE
8
BLACK
6
CONTINUOUS
10
50.7216619999999949
20
-117.7627489999999995
11
258.8473060000000032
21
-117.7218749999999972
0
LINE
8
BLACK
6
CONTINUOUS
10
258.8473060000000032
20
-117.7218749999999972
11
258.847313999999983
21
-117.7218749999999972
0
LINE
8
BLACK
6
CONTINUOUS
10
258.847313999999983
20
-117.7218749999999972
11
258.8473179999999729
21
-117.7218749999999972
0
LINE
8
BLACK
6
CONTINUOUS
10
258.8473179999999729
20
-117.7218749999999972
11
258.8473179999999729
21
-117.7218759999999946
0
LINE
8
BLACK
6
CONTINUOUS
10
258.8473179999999729
20
-117.7218759999999946
11
258.8481699999999819
21
-117.7219589999999982
0
LINE
8
BLACK
6
CONTINUOUS
10
258.8481699999999819
20
-117.7219589999999982
11
258.9383639999999787
21
-117.72195099999999
0
LINE
8
BLACK
6
CONTINUOUS
10
258.9383639999999787
20
-117.72195099999999
11
259.117685999999992
21
-117.6903140000000008
0
LINE
8
BLACK
6
CONTINUOUS
10
259.117685999999992
20
-117.6903140000000008
11
259.2887910000000034
21
-117.6280209999999897
0
LINE
8
BLACK
6
CONTINUOUS
10
259.2887910000000034
20
-117.6280209999999897
11
259.4464810000000057
21
-117.5369659999999925
0
LINE
8
BLACK
6
CONTINUOUS
10
259.4464810000000057
20
-117.5369659999999925
11
259.5859659999999849
21
-117.4199139999999915
0
LINE
8
BLACK
6
CONTINUOUS
10
259.5859659999999849
20
-117.4199139999999915
11
259.7030090000000087
21
-117.2804199999999923
0
LINE
8
BLACK
6
CONTINUOUS
10
259.7030090000000087
20
-117.2804199999999923
11
259.7940529999999626
21
-117.1227229999999935
0
LINE
8
BLACK
6
CONTINUOUS
10
259.7940529999999626
20
-117.1227229999999935
11
259.8563330000000065
21
-116.9516139999999922
0
LINE
8
BLACK
6
CONTINUOUS
10
259.8563330000000065
20
-116.9516139999999922
11
259.8879569999999717
21
-116.7722890000000007
0
LINE
8
BLACK
6
CONTINUOUS
10
259.8879569999999717
20
-116.7722890000000007
11
259.8879599999999641
21
-116.6812439999999924
0
LINE
8
BLACK
6
CONTINUOUS
10
259.8879599999999641
20
-116.6812439999999924
11
259.8879599999999641
21
-98.1075000000000017
0
LINE
8
BLACK
6
CONTINUOUS
10
259.8879599999999641
20
-98.1075000000000017
11
259.8908419999999637
21
-98.0782359999999898
0
LINE
8
BLACK
6
CONTINUOUS
10
259.8908419999999637
20
-98.0782359999999898
11
259.9132399999999734
21
-98.024163999999999
0
LINE
8
BLACK
6
CONTINUOUS
10
259.9132399999999734
20
-98.024163999999999
11
259.9546239999999671
21
-97.9827799999999911
0
LINE
8
BLACK
6
CONTINUOUS
10
259.9546239999999671
20
-97.9827799999999911
11
260.0086959999999863
21
-97.9603819999999956
0
LINE
8
BLACK
6
CONTINUOUS
10
260.0086959999999863
20
-97.9603819999999956
11
260.0379599999999982
21
-97.957499999999996
0
LINE
8
BLACK
6
CONTINUOUS
10
260.0379599999999982
20
-97.957499999999996
11
268.372509999999977
21
-97.9575249999999897
0
LINE
8
BLACK
6
CONTINUOUS
10
268.372509999999977
20
-97.9575249999999897
11
268.3725170000000162
21
-97.9575249999999897
0
LINE
8
BLACK
6
CONTINUOUS
10
268.3725170000000162
20
-97.9575249999999897
11
268.3725210000000061
21
-97.9575249999999897
0
LINE
8
BLACK
6
CONTINUOUS
10
268.3725210000000061
20
-97.9575249999999897
11
268.3725210000000061
21
-97.9575260000000014
0
LINE
8
BLACK
6
CONTINUOUS
10
268.3725210000000061
20
-97.9575260000000014
11
268.3728649999999902
21
-97.9575600000000009
0
LINE
8
BLACK
6
CONTINUOUS
10
268.3728649999999902
20
-97.9575600000000009
11
268.4635690000000068
21
-97.9575659999999999
0
LINE
8
BLACK
6
CONTINUOUS
10
268.4635690000000068
20
-97.9575659999999999
11
268.6428999999999974
21
-97.9259559999999993
0
LINE
8
BLACK
6
CONTINUOUS
10
268.6428999999999974
20
-97.9259559999999993
11
268.8140149999999835
21
-97.8636809999999997
0
LINE
8
BLACK
6
CONTINUOUS
10
268.8140149999999835
20
-97.8636809999999997
11
268.9717160000000149
21
-97.7726359999999914
0
LINE
8
BLACK
6
CONTINUOUS
10
268.9717160000000149
20
-97.7726359999999914
11
269.1112089999999739
21
-97.655586999999997
0
LINE
8
BLACK
6
CONTINUOUS
10
269.1112089999999739
20
-97.655586999999997
11
269.2282539999999926
21
-97.5160909999999888
0
LINE
8
BLACK
6
CONTINUOUS
10
269.2282539999999926
20
-97.5160909999999888
11
269.3192940000000135
21
-97.3583879999999908
0
LINE
8
BLACK
6
CONTINUOUS
10
269.3192940000000135
20
-97.3583879999999908
11
269.3815639999999689
21
-97.187269999999998
0
LINE
8
BLACK
6
CONTINUOUS
10
269.3815639999999689
20
-97.187269999999998
11
269.4131689999999821
21
-97.0079379999999958
0
LINE
8
BLACK
6
CONTINUOUS
10
269.4131689999999821
20
-97.0079379999999958
11
269.4131600000000049
21
-96.9168909999999926
0
LINE
8
BLACK
6
CONTINUOUS
10
269.4131600000000049
20
-96.9168909999999926
11
269.4131610000000023
21
-96.916885999999991
0
LINE
8
BLACK
6
CONTINUOUS
10
269.4131610000000023
20
-96.916885999999991
11
269.4131600000000049
21
-96.9168749999999903
0
LINE
8
BLACK
6
CONTINUOUS
10
269.4131600000000049
20
-96.9168749999999903
11
269.4131600000000049
21
-40.4812499999999957
0
LINE
8
BLACK
6
CONTINUOUS
10
269.4131600000000049
20
-40.4812499999999957
11
269.4131600000000049
21
-40.4812450000000013
0
LINE
8
BLACK
6
CONTINUOUS
10
269.4131600000000049
20
-40.4812450000000013
11
269.4131600000000049
21
-40.4812439999999967
0
LINE
8
BLACK
6
CONTINUOUS
10
269.4131600000000049
20
-40.4812439999999967
11
269.4131610000000023
21
-40.4812439999999967
0
LINE
8
BLACK
6
CONTINUOUS
10
269.4131610000000023
20
-40.4812439999999967
11
269.413174999999967
21
-40.4810969999999983
0
LINE
8
BLACK
6
CONTINUOUS
10
269.413174999999967
20
-40.4810969999999983
11
269.4131790000000137
21
-40.3902000000000001
0
LINE
8
BLACK
6
CONTINUOUS
10
269.4131790000000137
20
-40.3902000000000001
11
269.3815649999999664
21
-40.2108769999999964
0
LINE
8
BLACK
6
CONTINUOUS
10
269.3815649999999664
20
-40.2108769999999964
11
269.3192899999999668
21
-40.0397679999999951
0
LINE
8
BLACK
6
CONTINUOUS
10
269.3192899999999668
20
-40.0397679999999951
11
269.2282480000000078
21
-39.8820750000000004
0
LINE
8
BLACK
6
CONTINUOUS
10
269.2282480000000078
20
-39.8820750000000004
11
269.1112039999999865
21
-39.7425870000000003
0
LINE
8
BLACK
6
CONTINUOUS
10
269.1112039999999865
20
-39.7425870000000003
11
268.9717149999999606
21
-39.6255449999999954
0
LINE
8
BLACK
6
CONTINUOUS
10
268.9717149999999606
20
-39.6255449999999954
11
268.8140199999999709
21
-39.5345039999999983
0
LINE
8
BLACK
6
CONTINUOUS
10
268.8140199999999709
20
-39.5345039999999983
11
268.6429109999999696
21
-39.4722319999999982
0
LINE
8
BLACK
6
CONTINUOUS
10
268.6429109999999696
20
-39.4722319999999982
11
268.4635869999999613
21
-39.4406199999999956
0
LINE
8
BLACK
6
CONTINUOUS
10
268.4635869999999613
20
-39.4406199999999956
11
268.3725430000000074
21
-39.4406249999999972
0
LINE
8
BLACK
6
CONTINUOUS
10
268.3725430000000074
20
-39.4406249999999972
11
268.372540000000015
21
-39.4406239999999997
0
LINE
8
BLACK
6
CONTINUOUS
10
268.372540000000015
20
-39.4406239999999997
11
268.3725349999999708
21
-39.4406249999999972
0
LINE
8
BLACK
6
CONTINUOUS
10
268.3725349999999708
20
-39.4406249999999972
11
41.1964909999999946
21
-39.4406249999999972
0
LINE
8
BLACK
6
CONTINUOUS
10
41.1964909999999946
20
-39.4406249999999972
11
41.1964899999999972
21
-39.4406249999999972
0
LINE
8
BLACK
6
CONTINUOUS
10
41.1964899999999972
20
-39.4406249999999972
11
41.1963879999999989
21
-39.4406150000000011
0
LINE
8
BLACK
6
CONTINUOUS
10
41.1963879999999989
20
-39.4406150000000011
11
41.1054469999999981
21
-39.4406159999999986
  0
ENDSEC
  0
EOF
