M48
; DRILL file {KiCad 8.0.6} date 2025-01-11T22:10:21+0900
; FORMAT={-:-/ absolute / metric / decimal}
; #@! TF.CreationDate,2025-01-11T22:10:21+09:00
; #@! TF.GenerationSoftware,Kicad,Pcbnew,8.0.6
; #@! TF.FileFunction,Plated,1,2,PTH
FMAT,2
METRIC
; #@! TA.AperFunction,Plated,PTH,ComponentDrill
T1C0.300
; #@! TA.AperFunction,Plated,PTH,ViaDrill
T2C0.400
; #@! TA.AperFunction,Plated,PTH,ComponentDrill
T3C0.400
; #@! TA.AperFunction,Plated,PTH,ComponentDrill
T4C0.800
; #@! TA.AperFunction,Plated,PTH,ComponentDrill
T5C0.813
; #@! TA.AperFunction,Plated,PTH,ComponentDrill
T6C0.889
; #@! TA.AperFunction,Plated,PTH,ComponentDrill
T7C0.900
; #@! TA.AperFunction,Plated,PTH,ComponentDrill
T8C1.000
; #@! TA.AperFunction,Plated,PTH,ComponentDrill
T9C1.300
; #@! TA.AperFunction,Plated,PTH,ComponentDrill
T10C1.397
%
G90
G05
T2
X75.692Y-94.742
X94.825Y-94.615
X131.953Y-90.233
X133.042Y-90.243
X144.78Y-98.425
X147.32Y-95.758
X149.733Y-95.377
X150.856Y-98.459
X152.293Y-98.459
T4
X111.043Y-76.59
X111.614Y-74.831
T5
X62.36Y-64.516
X62.484Y-100.965
X69.98Y-64.516
X70.104Y-100.965
X81.661Y-64.516
X81.664Y-100.965
X89.281Y-64.516
X89.284Y-100.965
X91.186Y-64.516
X97.79Y-100.965
X98.806Y-64.516
X105.41Y-100.965
X119.885Y-83.693
X127.505Y-83.693
X135.636Y-66.167
X135.636Y-68.707
X135.636Y-71.247
X135.636Y-73.787
X135.636Y-76.327
X135.636Y-78.867
X135.636Y-81.407
X135.636Y-83.947
X135.636Y-86.487
X135.636Y-89.027
X135.636Y-91.567
X135.636Y-94.107
X135.636Y-96.647
X140.97Y-96.901
X148.59Y-96.901
X150.856Y-66.167
X150.856Y-68.707
X150.856Y-71.247
X150.856Y-73.787
X150.856Y-76.327
X150.856Y-78.867
X150.856Y-81.407
X150.856Y-83.947
X150.856Y-86.487
X150.856Y-89.027
X150.856Y-91.567
X150.856Y-94.107
X150.856Y-96.647
X153.543Y-97.282
X153.543Y-104.902
T6
X129.921Y-109.22
X129.921Y-111.76
X129.921Y-114.3
X137.541Y-101.6
X140.081Y-101.6
X142.621Y-101.6
T7
X147.701Y-108.585
X147.701Y-114.935
X152.781Y-108.585
X152.781Y-114.935
T8
X114.122Y-76.303
X116.538Y-77.088
X118.954Y-77.873
X121.369Y-78.658
T9
X130.862Y-62.484
X137.362Y-62.484
T10
X133.413Y-104.14
X133.413Y-119.38
X146.749Y-104.14
X146.749Y-119.38
T1
G00X60.574Y-79.061
M15
G01X62.274Y-79.061
M16
G05
G00X60.605Y-98.229
M15
G01X62.305Y-98.229
M16
G05
G00X65.824Y-67.611
M15
G01X67.024Y-67.611
M16
G05
G00X65.855Y-86.779
M15
G01X67.055Y-86.779
M16
G05
G00X79.763Y-79.052
M15
G01X81.463Y-79.052
M16
G05
G00X79.795Y-98.229
M15
G01X81.495Y-98.229
M16
G05
G00X85.013Y-67.602
M15
G01X86.213Y-67.602
M16
G05
G00X85.045Y-86.779
M15
G01X86.245Y-86.779
M16
G05
G00X98.884Y-79.061
M15
G01X100.584Y-79.061
M16
G05
G00X98.925Y-98.191
M15
G01X100.625Y-98.191
M16
G05
G00X104.134Y-67.611
M15
G01X105.334Y-67.611
M16
G05
G00X104.175Y-86.741
M15
G01X105.375Y-86.741
M16
G05
G00X118.069Y-98.188
M15
G01X119.769Y-98.188
M16
G05
G00X123.319Y-86.738
M15
G01X124.519Y-86.738
M16
G05
T3
G00X55.624Y-76.961
M15
G01X57.224Y-76.961
M16
G05
G00X55.655Y-96.129
M15
G01X57.255Y-96.129
M16
G05
G00X74.813Y-76.952
M15
G01X76.413Y-76.952
M16
G05
G00X74.845Y-96.129
M15
G01X76.445Y-96.129
M16
G05
G00X93.934Y-76.961
M15
G01X95.534Y-76.961
M16
G05
G00X93.975Y-96.091
M15
G01X95.575Y-96.091
M16
G05
G00X113.119Y-96.088
M15
G01X114.719Y-96.088
M16
G05
M30
