M48
; DRILL file {KiCad 8.0.6} date 2025-01-11T22:10:21+0900
; FORMAT={-:-/ absolute / metric / decimal}
; #@! TF.CreationDate,2025-01-11T22:10:21+09:00
; #@! TF.GenerationSoftware,Kicad,Pcbnew,8.0.6
; #@! TF.FileFunction,NonPlated,1,2,NPTH
FMAT,2
METRIC
; #@! TA.AperFunction,NonPlated,NPTH,ComponentDrill
T1C1.000
; #@! TA.AperFunction,NonPlated,NPTH,ComponentDrill
T2C1.700
; #@! TA.AperFunction,NonPlated,NPTH,ComponentDrill
T3C4.300
; #@! TA.AperFunction,NonPlated,NPTH,ComponentDrill
T4C5.000
%
G90
G05
T1
X66.644Y-68.961
X66.675Y-88.129
X85.833Y-68.952
X85.865Y-88.129
X104.954Y-68.961
X104.995Y-88.091
X124.139Y-88.088
T2
X55.924Y-73.161
X55.955Y-92.329
X66.924Y-73.161
X66.955Y-92.329
X75.113Y-73.152
X75.145Y-92.329
X86.113Y-73.152
X86.145Y-92.329
X94.234Y-73.161
X94.275Y-92.291
X105.234Y-73.161
X105.275Y-92.291
X113.419Y-92.288
X123.738Y-79.427
X124.419Y-92.288
T3
X52.705Y-62.484
X53.34Y-102.87
X107.442Y-62.484
X109.347Y-102.87
T4
X61.424Y-73.161
X61.455Y-92.329
X80.613Y-73.152
X80.645Y-92.329
X99.734Y-73.161
X99.775Y-92.291
X118.919Y-92.288
M30
