G04 #@! TF.GenerationSoftware,KiCad,Pcbnew,8.0.6*
G04 #@! TF.CreationDate,2025-01-11T22:07:08+09:00*
G04 #@! TF.ProjectId,original_keyboard,6f726967-696e-4616-9c5f-6b6579626f61,rev?*
G04 #@! TF.SameCoordinates,Original*
G04 #@! TF.FileFunction,Copper,L2,Bot*
G04 #@! TF.FilePolarity,Positive*
%FSLAX46Y46*%
G04 Gerber Fmt 4.6, Leading zero omitted, Abs format (unit mm)*
G04 Created by KiCad (PCBNEW 8.0.6) date 2025-01-11 22:07:08*
%MOMM*%
%LPD*%
G01*
G04 APERTURE LIST*
G04 Aperture macros list*
%AMRoundRect*
0 Rectangle with rounded corners*
0 $1 Rounding radius*
0 $2 $3 $4 $5 $6 $7 $8 $9 X,Y pos of 4 corners*
0 Add a 4 corners polygon primitive as box body*
4,1,4,$2,$3,$4,$5,$6,$7,$8,$9,$2,$3,0*
0 Add four circle primitives for the rounded corners*
1,1,$1+$1,$2,$3*
1,1,$1+$1,$4,$5*
1,1,$1+$1,$6,$7*
1,1,$1+$1,$8,$9*
0 Add four rect primitives between the rounded corners*
20,1,$1+$1,$2,$3,$4,$5,0*
20,1,$1+$1,$4,$5,$6,$7,0*
20,1,$1+$1,$6,$7,$8,$9,0*
20,1,$1+$1,$8,$9,$2,$3,0*%
%AMRotRect*
0 Rectangle, with rotation*
0 The origin of the aperture is its center*
0 $1 length*
0 $2 width*
0 $3 Rotation angle, in degrees counterclockwise*
0 Add horizontal line*
21,1,$1,$2,0,0,$3*%
G04 Aperture macros list end*
G04 #@! TA.AperFunction,WasherPad*
%ADD10C,1.900000*%
G04 #@! TD*
G04 #@! TA.AperFunction,ComponentPad*
%ADD11RoundRect,0.287500X-0.962500X-0.287500X0.962500X-0.287500X0.962500X0.287500X-0.962500X0.287500X0*%
G04 #@! TD*
G04 #@! TA.AperFunction,ComponentPad*
%ADD12RoundRect,0.375000X-1.375000X-0.375000X1.375000X-0.375000X1.375000X0.375000X-1.375000X0.375000X0*%
G04 #@! TD*
G04 #@! TA.AperFunction,ComponentPad*
%ADD13RoundRect,0.325000X-1.425000X-0.325000X1.425000X-0.325000X1.425000X0.325000X-1.425000X0.325000X0*%
G04 #@! TD*
G04 #@! TA.AperFunction,ComponentPad*
%ADD14R,1.397000X1.397000*%
G04 #@! TD*
G04 #@! TA.AperFunction,SMDPad,CuDef*
%ADD15R,1.300000X0.950000*%
G04 #@! TD*
G04 #@! TA.AperFunction,ComponentPad*
%ADD16C,1.397000*%
G04 #@! TD*
G04 #@! TA.AperFunction,ComponentPad*
%ADD17RotRect,2.000000X2.000000X72.000000*%
G04 #@! TD*
G04 #@! TA.AperFunction,ComponentPad*
%ADD18C,2.000000*%
G04 #@! TD*
G04 #@! TA.AperFunction,ComponentPad*
%ADD19C,1.600000*%
G04 #@! TD*
G04 #@! TA.AperFunction,ComponentPad*
%ADD20C,1.778000*%
G04 #@! TD*
G04 #@! TA.AperFunction,ComponentPad*
%ADD21C,2.286000*%
G04 #@! TD*
G04 #@! TA.AperFunction,WasherPad*
%ADD22C,4.500000*%
G04 #@! TD*
G04 #@! TA.AperFunction,ComponentPad*
%ADD23C,1.524000*%
G04 #@! TD*
G04 #@! TA.AperFunction,SMDPad,CuDef*
%ADD24R,0.950000X1.300000*%
G04 #@! TD*
G04 #@! TA.AperFunction,ViaPad*
%ADD25C,0.800000*%
G04 #@! TD*
G04 #@! TA.AperFunction,Conductor*
%ADD26C,0.250000*%
G04 #@! TD*
G04 #@! TA.AperFunction,Conductor*
%ADD27C,0.500000*%
G04 #@! TD*
G04 APERTURE END LIST*
D10*
X75113000Y-73152000D03*
D11*
X85613000Y-67602000D03*
D10*
X86113000Y-73152000D03*
D12*
X75613000Y-76952000D03*
D13*
X80613000Y-79052000D03*
D14*
X105410000Y-100965000D03*
D15*
X103375000Y-100965000D03*
X99825000Y-100965000D03*
D16*
X97790000Y-100965000D03*
D14*
X89284000Y-100965000D03*
D15*
X87249000Y-100965000D03*
X83699000Y-100965000D03*
D16*
X81664000Y-100965000D03*
D10*
X113419000Y-92288200D03*
D11*
X123919000Y-86738200D03*
D10*
X124419000Y-92288200D03*
D12*
X113919000Y-96088200D03*
D13*
X118919000Y-98188200D03*
D17*
X114122365Y-76303012D03*
D18*
X116538048Y-77087915D03*
X118953732Y-77872818D03*
X121369415Y-78657722D03*
D19*
X111042818Y-76590448D03*
X111614500Y-74830993D03*
D14*
X69980000Y-64516000D03*
D15*
X67945000Y-64516000D03*
X64395000Y-64516000D03*
D16*
X62360000Y-64516000D03*
D20*
X152781000Y-108585000D03*
X152781000Y-114935000D03*
X147701000Y-108585000D03*
X147701000Y-114935000D03*
X129921000Y-109220000D03*
X129921000Y-111760000D03*
X129921000Y-114300000D03*
D21*
X146748500Y-104140000D03*
X133413500Y-104140000D03*
X133413500Y-119380000D03*
X146748500Y-119380000D03*
D20*
X142621000Y-101600000D03*
X140081000Y-101600000D03*
X137541000Y-101600000D03*
D22*
X109347000Y-102870000D03*
D14*
X98806000Y-64516000D03*
D15*
X96771000Y-64516000D03*
X93221000Y-64516000D03*
D16*
X91186000Y-64516000D03*
D14*
X127505000Y-83693000D03*
D15*
X125470000Y-83693000D03*
X121920000Y-83693000D03*
D16*
X119885000Y-83693000D03*
D10*
X55955000Y-92329000D03*
D11*
X66455000Y-86779000D03*
D10*
X66955000Y-92329000D03*
D12*
X56455000Y-96129000D03*
D13*
X61455000Y-98229000D03*
D23*
X135636000Y-68707000D03*
X135636000Y-71247000D03*
X135636000Y-73787000D03*
X135636000Y-76327000D03*
X135636000Y-78867000D03*
X135636000Y-81407000D03*
X135636000Y-83947000D03*
X135636000Y-86487000D03*
X135636000Y-89027000D03*
X135636000Y-91567000D03*
X135636000Y-94107000D03*
X135636000Y-96647000D03*
X150856000Y-96647000D03*
X150856000Y-94107000D03*
X150856000Y-91567000D03*
X150856000Y-89027000D03*
X150856000Y-86487000D03*
X150856000Y-83947000D03*
X150856000Y-81407000D03*
X150856000Y-78867000D03*
X150856000Y-76327000D03*
X150856000Y-73787000D03*
X150856000Y-71247000D03*
X150856000Y-68707000D03*
X150856000Y-66167000D03*
X135636000Y-66167000D03*
D10*
X75145000Y-92329000D03*
D11*
X85645000Y-86779000D03*
D10*
X86145000Y-92329000D03*
D12*
X75645000Y-96129000D03*
D13*
X80645000Y-98229000D03*
D14*
X89281000Y-64516000D03*
D15*
X87246000Y-64516000D03*
X83696000Y-64516000D03*
D16*
X81661000Y-64516000D03*
D10*
X55924000Y-73161000D03*
D11*
X66424000Y-67611000D03*
D10*
X66924000Y-73161000D03*
D12*
X56424000Y-76961000D03*
D13*
X61424000Y-79061000D03*
D10*
X94234000Y-73161000D03*
D11*
X104734000Y-67611000D03*
D10*
X105234000Y-73161000D03*
D12*
X94734000Y-76961000D03*
D13*
X99734000Y-79061000D03*
D22*
X53340000Y-102870000D03*
D14*
X148590000Y-96901000D03*
D15*
X146555000Y-96901000D03*
X143005000Y-96901000D03*
D16*
X140970000Y-96901000D03*
D10*
X94275000Y-92291000D03*
D11*
X104775000Y-86741000D03*
D10*
X105275000Y-92291000D03*
D12*
X94775000Y-96091000D03*
D13*
X99775000Y-98191000D03*
D22*
X52705000Y-62484000D03*
D14*
X70104000Y-100965000D03*
D15*
X68069000Y-100965000D03*
X64519000Y-100965000D03*
D16*
X62484000Y-100965000D03*
D14*
X153543000Y-97282000D03*
D24*
X153543000Y-99317000D03*
X153543000Y-102867000D03*
D16*
X153543000Y-104902000D03*
D22*
X107442000Y-62484000D03*
D18*
X137362000Y-62484000D03*
X130862000Y-62484000D03*
D25*
X131953000Y-90233500D03*
X133042500Y-90243500D03*
X75692000Y-94742000D03*
X94825000Y-94615000D03*
X152293012Y-98459000D03*
X144780000Y-98425000D03*
X150856000Y-98459000D03*
X147320000Y-95758000D03*
X149733000Y-95377000D03*
D26*
X108331000Y-74041000D02*
X98806000Y-64516000D01*
X125470000Y-83693000D02*
X124200000Y-82423000D01*
X69980000Y-64516000D02*
X67945000Y-64516000D01*
X96771000Y-64516000D02*
X98806000Y-64516000D01*
X89281000Y-64516000D02*
X90304500Y-63492500D01*
X87246000Y-64516000D02*
X89281000Y-64516000D01*
X125470000Y-83693000D02*
X127505000Y-83693000D01*
X124200000Y-82423000D02*
X112649000Y-82423000D01*
X95747500Y-63492500D02*
X96771000Y-64516000D01*
X112649000Y-82423000D02*
X108331000Y-78105000D01*
X86222500Y-63492500D02*
X87246000Y-64516000D01*
X71003500Y-63492500D02*
X86222500Y-63492500D01*
X69980000Y-64516000D02*
X71003500Y-63492500D01*
X108331000Y-78105000D02*
X108331000Y-74041000D01*
X90304500Y-63492500D02*
X95747500Y-63492500D01*
X64395000Y-76090000D02*
X61424000Y-79061000D01*
X64395000Y-64516000D02*
X62360000Y-64516000D01*
X64395000Y-64516000D02*
X64395000Y-76090000D01*
X81661000Y-64516000D02*
X83696000Y-64516000D01*
X83696000Y-75969000D02*
X80613000Y-79052000D01*
X83696000Y-64516000D02*
X83696000Y-75969000D01*
X96859000Y-76186000D02*
X99734000Y-79061000D01*
X93221000Y-64516000D02*
X96859000Y-68154000D01*
X91186000Y-64516000D02*
X93221000Y-64516000D01*
X96859000Y-68154000D02*
X96859000Y-76186000D01*
X119885000Y-83693000D02*
X121920000Y-83693000D01*
X121920000Y-95187200D02*
X121794000Y-95313200D01*
X121920000Y-83693000D02*
X121920000Y-95187200D01*
X121794000Y-95313200D02*
X118919000Y-98188200D01*
X61455000Y-98229000D02*
X62484000Y-99258000D01*
X62484000Y-99258000D02*
X62484000Y-100965000D01*
X64519000Y-100965000D02*
X62484000Y-100965000D01*
X62230000Y-100838000D02*
X62360000Y-100838000D01*
X105410000Y-100965000D02*
X106080000Y-100295000D01*
X106080000Y-100295000D02*
X121574000Y-100295000D01*
X90431500Y-101988500D02*
X102351500Y-101988500D01*
X70104000Y-100965000D02*
X71127500Y-101988500D01*
X71127500Y-101988500D02*
X86225500Y-101988500D01*
X131635500Y-90233500D02*
X122618500Y-99250500D01*
X68069000Y-100965000D02*
X70104000Y-100965000D01*
X102351500Y-101988500D02*
X103375000Y-100965000D01*
X103375000Y-100965000D02*
X105410000Y-100965000D01*
X86225500Y-101988500D02*
X87249000Y-100965000D01*
X131889500Y-90233500D02*
X131635500Y-90233500D01*
X89284000Y-100965000D02*
X87249000Y-100965000D01*
X121574000Y-100295000D02*
X122618500Y-99250500D01*
X89284000Y-100965000D02*
X89408000Y-100965000D01*
X89408000Y-100965000D02*
X90431500Y-101988500D01*
X80645000Y-98229000D02*
X81664000Y-99248000D01*
X81664000Y-99248000D02*
X81664000Y-100965000D01*
X81664000Y-100965000D02*
X83699000Y-100965000D01*
X99775000Y-100915000D02*
X99825000Y-100965000D01*
X99775000Y-98191000D02*
X99775000Y-100915000D01*
X97790000Y-100965000D02*
X99825000Y-100965000D01*
X135776251Y-90170000D02*
X135241749Y-90170000D01*
X140970000Y-95363749D02*
X135776251Y-90170000D01*
X112414499Y-76981499D02*
X112414499Y-75630992D01*
X128911218Y-81523000D02*
X116956000Y-81523000D01*
X116956000Y-81523000D02*
X112414499Y-76981499D01*
X132787109Y-87715360D02*
X132787109Y-85398891D01*
X140970000Y-96901000D02*
X140970000Y-95363749D01*
X135241749Y-90170000D02*
X132787109Y-87715360D01*
X143005000Y-96901000D02*
X140970000Y-96901000D01*
X132787109Y-85398891D02*
X128911218Y-81523000D01*
X112414499Y-75630992D02*
X111614500Y-74830993D01*
X149423000Y-97734000D02*
X153091000Y-97734000D01*
X148590000Y-96901000D02*
X149423000Y-97734000D01*
X135092745Y-89210000D02*
X136073000Y-89210000D01*
X153543000Y-97282000D02*
X153543000Y-99317000D01*
X138681000Y-89027000D02*
X146555000Y-96901000D01*
X135636000Y-89027000D02*
X138681000Y-89027000D01*
X153091000Y-97734000D02*
X153543000Y-97282000D01*
X146555000Y-96901000D02*
X148590000Y-96901000D01*
X153543000Y-102867000D02*
X153543000Y-104902000D01*
X153543000Y-104902000D02*
X153543000Y-107823000D01*
X153543000Y-107823000D02*
X152781000Y-108585000D01*
D27*
X134545000Y-66167000D02*
X135636000Y-66167000D01*
X130862000Y-62484000D02*
X134545000Y-66167000D01*
D26*
X127947000Y-81973000D02*
X130238500Y-84264500D01*
X132016500Y-89217500D02*
X133042500Y-90243500D01*
X57230000Y-95354000D02*
X56455000Y-96129000D01*
X57230000Y-77767000D02*
X57230000Y-95354000D01*
X111042818Y-76590448D02*
X116425370Y-81973000D01*
X56424000Y-76961000D02*
X57230000Y-77767000D01*
X74292050Y-94742000D02*
X75692000Y-94742000D01*
X130238500Y-84264500D02*
X132016500Y-86042500D01*
X72905050Y-96129000D02*
X74292050Y-94742000D01*
X56455000Y-96129000D02*
X72905050Y-96129000D01*
X116425370Y-81973000D02*
X127947000Y-81973000D01*
X132016500Y-86042500D02*
X132016500Y-89217500D01*
X75645000Y-96129000D02*
X91997050Y-96129000D01*
X152293012Y-102341988D02*
X152293012Y-98459000D01*
X147701000Y-106934000D02*
X152293012Y-102341988D01*
X76420000Y-95354000D02*
X75645000Y-96129000D01*
X91997050Y-96129000D02*
X93511050Y-94615000D01*
X93511050Y-94615000D02*
X94825000Y-94615000D01*
X147701000Y-108585000D02*
X147701000Y-106934000D01*
X75613000Y-76952000D02*
X76420000Y-77759000D01*
X76420000Y-77759000D02*
X76420000Y-95354000D01*
X95550000Y-95316000D02*
X94775000Y-96091000D01*
X94734000Y-76961000D02*
X95550000Y-77777000D01*
X95550000Y-77777000D02*
X95550000Y-95316000D01*
X150822000Y-98425000D02*
X144780000Y-98425000D01*
X150856000Y-98459000D02*
X150822000Y-98425000D01*
X123822784Y-77780000D02*
X121805699Y-75762915D01*
X149769000Y-77780000D02*
X123822784Y-77780000D01*
X121805699Y-75762915D02*
X114662462Y-75762915D01*
X114662462Y-75762915D02*
X114122365Y-76303012D01*
X150856000Y-78867000D02*
X149769000Y-77780000D01*
X124577131Y-80320000D02*
X124244958Y-80652173D01*
X118688093Y-80652173D02*
X118014460Y-79978540D01*
X116538048Y-77087915D02*
X116538048Y-78502128D01*
X124244958Y-80652173D02*
X118688093Y-80652173D01*
X116538048Y-78502128D02*
X118014460Y-79978540D01*
X149769000Y-80320000D02*
X124577131Y-80320000D01*
X150856000Y-81407000D02*
X149769000Y-80320000D01*
X129921000Y-99822000D02*
X129921000Y-109220000D01*
X135636000Y-94107000D02*
X129921000Y-99822000D01*
X137668000Y-96647000D02*
X142621000Y-101600000D01*
X135636000Y-96647000D02*
X137668000Y-96647000D01*
D27*
X137362000Y-62484000D02*
X148665000Y-73787000D01*
X148665000Y-73787000D02*
X150856000Y-73787000D01*
D26*
X150856000Y-86487000D02*
X147320000Y-90023000D01*
X147320000Y-90023000D02*
X147320000Y-95758000D01*
X151943000Y-94557251D02*
X151943000Y-85034000D01*
X151943000Y-85034000D02*
X150856000Y-83947000D01*
X149733000Y-95377000D02*
X151123251Y-95377000D01*
X151123251Y-95377000D02*
X151943000Y-94557251D01*
M02*
