G04 #@! TF.GenerationSoftware,KiCad,Pcbnew,8.0.6*
G04 #@! TF.CreationDate,2025-01-11T22:07:08+09:00*
G04 #@! TF.ProjectId,original_keyboard,6f726967-696e-4616-9c5f-6b6579626f61,rev?*
G04 #@! TF.SameCoordinates,Original*
G04 #@! TF.FileFunction,Legend,Bot*
G04 #@! TF.FilePolarity,Positive*
%FSLAX46Y46*%
G04 Gerber Fmt 4.6, Leading zero omitted, Abs format (unit mm)*
G04 Created by KiCad (PCBNEW 8.0.6) date 2025-01-11 22:07:08*
%MOMM*%
%LPD*%
G01*
G04 APERTURE LIST*
%ADD10C,0.125000*%
%ADD11C,0.150000*%
%ADD12C,2.000000*%
G04 APERTURE END LIST*
D10*
X102338094Y-103051119D02*
X102338094Y-102051119D01*
X102338094Y-102051119D02*
X102099999Y-102051119D01*
X102099999Y-102051119D02*
X101957142Y-102098738D01*
X101957142Y-102098738D02*
X101861904Y-102193976D01*
X101861904Y-102193976D02*
X101814285Y-102289214D01*
X101814285Y-102289214D02*
X101766666Y-102479690D01*
X101766666Y-102479690D02*
X101766666Y-102622547D01*
X101766666Y-102622547D02*
X101814285Y-102813023D01*
X101814285Y-102813023D02*
X101861904Y-102908261D01*
X101861904Y-102908261D02*
X101957142Y-103003500D01*
X101957142Y-103003500D02*
X102099999Y-103051119D01*
X102099999Y-103051119D02*
X102338094Y-103051119D01*
X101433332Y-102051119D02*
X100766666Y-102051119D01*
X100766666Y-102051119D02*
X101195237Y-103051119D01*
X86212094Y-103051119D02*
X86212094Y-102051119D01*
X86212094Y-102051119D02*
X85973999Y-102051119D01*
X85973999Y-102051119D02*
X85831142Y-102098738D01*
X85831142Y-102098738D02*
X85735904Y-102193976D01*
X85735904Y-102193976D02*
X85688285Y-102289214D01*
X85688285Y-102289214D02*
X85640666Y-102479690D01*
X85640666Y-102479690D02*
X85640666Y-102622547D01*
X85640666Y-102622547D02*
X85688285Y-102813023D01*
X85688285Y-102813023D02*
X85735904Y-102908261D01*
X85735904Y-102908261D02*
X85831142Y-103003500D01*
X85831142Y-103003500D02*
X85973999Y-103051119D01*
X85973999Y-103051119D02*
X86212094Y-103051119D01*
X84783523Y-102051119D02*
X84973999Y-102051119D01*
X84973999Y-102051119D02*
X85069237Y-102098738D01*
X85069237Y-102098738D02*
X85116856Y-102146357D01*
X85116856Y-102146357D02*
X85212094Y-102289214D01*
X85212094Y-102289214D02*
X85259713Y-102479690D01*
X85259713Y-102479690D02*
X85259713Y-102860642D01*
X85259713Y-102860642D02*
X85212094Y-102955880D01*
X85212094Y-102955880D02*
X85164475Y-103003500D01*
X85164475Y-103003500D02*
X85069237Y-103051119D01*
X85069237Y-103051119D02*
X84878761Y-103051119D01*
X84878761Y-103051119D02*
X84783523Y-103003500D01*
X84783523Y-103003500D02*
X84735904Y-102955880D01*
X84735904Y-102955880D02*
X84688285Y-102860642D01*
X84688285Y-102860642D02*
X84688285Y-102622547D01*
X84688285Y-102622547D02*
X84735904Y-102527309D01*
X84735904Y-102527309D02*
X84783523Y-102479690D01*
X84783523Y-102479690D02*
X84878761Y-102432071D01*
X84878761Y-102432071D02*
X85069237Y-102432071D01*
X85069237Y-102432071D02*
X85164475Y-102479690D01*
X85164475Y-102479690D02*
X85212094Y-102527309D01*
X85212094Y-102527309D02*
X85259713Y-102622547D01*
X66908094Y-66602119D02*
X66908094Y-65602119D01*
X66908094Y-65602119D02*
X66669999Y-65602119D01*
X66669999Y-65602119D02*
X66527142Y-65649738D01*
X66527142Y-65649738D02*
X66431904Y-65744976D01*
X66431904Y-65744976D02*
X66384285Y-65840214D01*
X66384285Y-65840214D02*
X66336666Y-66030690D01*
X66336666Y-66030690D02*
X66336666Y-66173547D01*
X66336666Y-66173547D02*
X66384285Y-66364023D01*
X66384285Y-66364023D02*
X66431904Y-66459261D01*
X66431904Y-66459261D02*
X66527142Y-66554500D01*
X66527142Y-66554500D02*
X66669999Y-66602119D01*
X66669999Y-66602119D02*
X66908094Y-66602119D01*
X65384285Y-66602119D02*
X65955713Y-66602119D01*
X65669999Y-66602119D02*
X65669999Y-65602119D01*
X65669999Y-65602119D02*
X65765237Y-65744976D01*
X65765237Y-65744976D02*
X65860475Y-65840214D01*
X65860475Y-65840214D02*
X65955713Y-65887833D01*
X95734094Y-66602119D02*
X95734094Y-65602119D01*
X95734094Y-65602119D02*
X95495999Y-65602119D01*
X95495999Y-65602119D02*
X95353142Y-65649738D01*
X95353142Y-65649738D02*
X95257904Y-65744976D01*
X95257904Y-65744976D02*
X95210285Y-65840214D01*
X95210285Y-65840214D02*
X95162666Y-66030690D01*
X95162666Y-66030690D02*
X95162666Y-66173547D01*
X95162666Y-66173547D02*
X95210285Y-66364023D01*
X95210285Y-66364023D02*
X95257904Y-66459261D01*
X95257904Y-66459261D02*
X95353142Y-66554500D01*
X95353142Y-66554500D02*
X95495999Y-66602119D01*
X95495999Y-66602119D02*
X95734094Y-66602119D01*
X94829332Y-65602119D02*
X94210285Y-65602119D01*
X94210285Y-65602119D02*
X94543618Y-65983071D01*
X94543618Y-65983071D02*
X94400761Y-65983071D01*
X94400761Y-65983071D02*
X94305523Y-66030690D01*
X94305523Y-66030690D02*
X94257904Y-66078309D01*
X94257904Y-66078309D02*
X94210285Y-66173547D01*
X94210285Y-66173547D02*
X94210285Y-66411642D01*
X94210285Y-66411642D02*
X94257904Y-66506880D01*
X94257904Y-66506880D02*
X94305523Y-66554500D01*
X94305523Y-66554500D02*
X94400761Y-66602119D01*
X94400761Y-66602119D02*
X94686475Y-66602119D01*
X94686475Y-66602119D02*
X94781713Y-66554500D01*
X94781713Y-66554500D02*
X94829332Y-66506880D01*
X124433094Y-85779119D02*
X124433094Y-84779119D01*
X124433094Y-84779119D02*
X124194999Y-84779119D01*
X124194999Y-84779119D02*
X124052142Y-84826738D01*
X124052142Y-84826738D02*
X123956904Y-84921976D01*
X123956904Y-84921976D02*
X123909285Y-85017214D01*
X123909285Y-85017214D02*
X123861666Y-85207690D01*
X123861666Y-85207690D02*
X123861666Y-85350547D01*
X123861666Y-85350547D02*
X123909285Y-85541023D01*
X123909285Y-85541023D02*
X123956904Y-85636261D01*
X123956904Y-85636261D02*
X124052142Y-85731500D01*
X124052142Y-85731500D02*
X124194999Y-85779119D01*
X124194999Y-85779119D02*
X124433094Y-85779119D01*
X123004523Y-85112452D02*
X123004523Y-85779119D01*
X123242618Y-84731500D02*
X123480713Y-85445785D01*
X123480713Y-85445785D02*
X122861666Y-85445785D01*
X86209094Y-66602119D02*
X86209094Y-65602119D01*
X86209094Y-65602119D02*
X85970999Y-65602119D01*
X85970999Y-65602119D02*
X85828142Y-65649738D01*
X85828142Y-65649738D02*
X85732904Y-65744976D01*
X85732904Y-65744976D02*
X85685285Y-65840214D01*
X85685285Y-65840214D02*
X85637666Y-66030690D01*
X85637666Y-66030690D02*
X85637666Y-66173547D01*
X85637666Y-66173547D02*
X85685285Y-66364023D01*
X85685285Y-66364023D02*
X85732904Y-66459261D01*
X85732904Y-66459261D02*
X85828142Y-66554500D01*
X85828142Y-66554500D02*
X85970999Y-66602119D01*
X85970999Y-66602119D02*
X86209094Y-66602119D01*
X85256713Y-65697357D02*
X85209094Y-65649738D01*
X85209094Y-65649738D02*
X85113856Y-65602119D01*
X85113856Y-65602119D02*
X84875761Y-65602119D01*
X84875761Y-65602119D02*
X84780523Y-65649738D01*
X84780523Y-65649738D02*
X84732904Y-65697357D01*
X84732904Y-65697357D02*
X84685285Y-65792595D01*
X84685285Y-65792595D02*
X84685285Y-65887833D01*
X84685285Y-65887833D02*
X84732904Y-66030690D01*
X84732904Y-66030690D02*
X85304332Y-66602119D01*
X85304332Y-66602119D02*
X84685285Y-66602119D01*
X145394094Y-95833119D02*
X145394094Y-94833119D01*
X145394094Y-94833119D02*
X145155999Y-94833119D01*
X145155999Y-94833119D02*
X145013142Y-94880738D01*
X145013142Y-94880738D02*
X144917904Y-94975976D01*
X144917904Y-94975976D02*
X144870285Y-95071214D01*
X144870285Y-95071214D02*
X144822666Y-95261690D01*
X144822666Y-95261690D02*
X144822666Y-95404547D01*
X144822666Y-95404547D02*
X144870285Y-95595023D01*
X144870285Y-95595023D02*
X144917904Y-95690261D01*
X144917904Y-95690261D02*
X145013142Y-95785500D01*
X145013142Y-95785500D02*
X145155999Y-95833119D01*
X145155999Y-95833119D02*
X145394094Y-95833119D01*
X144346475Y-95833119D02*
X144155999Y-95833119D01*
X144155999Y-95833119D02*
X144060761Y-95785500D01*
X144060761Y-95785500D02*
X144013142Y-95737880D01*
X144013142Y-95737880D02*
X143917904Y-95595023D01*
X143917904Y-95595023D02*
X143870285Y-95404547D01*
X143870285Y-95404547D02*
X143870285Y-95023595D01*
X143870285Y-95023595D02*
X143917904Y-94928357D01*
X143917904Y-94928357D02*
X143965523Y-94880738D01*
X143965523Y-94880738D02*
X144060761Y-94833119D01*
X144060761Y-94833119D02*
X144251237Y-94833119D01*
X144251237Y-94833119D02*
X144346475Y-94880738D01*
X144346475Y-94880738D02*
X144394094Y-94928357D01*
X144394094Y-94928357D02*
X144441713Y-95023595D01*
X144441713Y-95023595D02*
X144441713Y-95261690D01*
X144441713Y-95261690D02*
X144394094Y-95356928D01*
X144394094Y-95356928D02*
X144346475Y-95404547D01*
X144346475Y-95404547D02*
X144251237Y-95452166D01*
X144251237Y-95452166D02*
X144060761Y-95452166D01*
X144060761Y-95452166D02*
X143965523Y-95404547D01*
X143965523Y-95404547D02*
X143917904Y-95356928D01*
X143917904Y-95356928D02*
X143870285Y-95261690D01*
X67032094Y-103051119D02*
X67032094Y-102051119D01*
X67032094Y-102051119D02*
X66793999Y-102051119D01*
X66793999Y-102051119D02*
X66651142Y-102098738D01*
X66651142Y-102098738D02*
X66555904Y-102193976D01*
X66555904Y-102193976D02*
X66508285Y-102289214D01*
X66508285Y-102289214D02*
X66460666Y-102479690D01*
X66460666Y-102479690D02*
X66460666Y-102622547D01*
X66460666Y-102622547D02*
X66508285Y-102813023D01*
X66508285Y-102813023D02*
X66555904Y-102908261D01*
X66555904Y-102908261D02*
X66651142Y-103003500D01*
X66651142Y-103003500D02*
X66793999Y-103051119D01*
X66793999Y-103051119D02*
X67032094Y-103051119D01*
X65555904Y-102051119D02*
X66032094Y-102051119D01*
X66032094Y-102051119D02*
X66079713Y-102527309D01*
X66079713Y-102527309D02*
X66032094Y-102479690D01*
X66032094Y-102479690D02*
X65936856Y-102432071D01*
X65936856Y-102432071D02*
X65698761Y-102432071D01*
X65698761Y-102432071D02*
X65603523Y-102479690D01*
X65603523Y-102479690D02*
X65555904Y-102527309D01*
X65555904Y-102527309D02*
X65508285Y-102622547D01*
X65508285Y-102622547D02*
X65508285Y-102860642D01*
X65508285Y-102860642D02*
X65555904Y-102955880D01*
X65555904Y-102955880D02*
X65603523Y-103003500D01*
X65603523Y-103003500D02*
X65698761Y-103051119D01*
X65698761Y-103051119D02*
X65936856Y-103051119D01*
X65936856Y-103051119D02*
X66032094Y-103003500D01*
X66032094Y-103003500D02*
X66079713Y-102955880D01*
X155629119Y-99877714D02*
X154629119Y-99877714D01*
X154629119Y-99877714D02*
X154629119Y-100115809D01*
X154629119Y-100115809D02*
X154676738Y-100258666D01*
X154676738Y-100258666D02*
X154771976Y-100353904D01*
X154771976Y-100353904D02*
X154867214Y-100401523D01*
X154867214Y-100401523D02*
X155057690Y-100449142D01*
X155057690Y-100449142D02*
X155200547Y-100449142D01*
X155200547Y-100449142D02*
X155391023Y-100401523D01*
X155391023Y-100401523D02*
X155486261Y-100353904D01*
X155486261Y-100353904D02*
X155581500Y-100258666D01*
X155581500Y-100258666D02*
X155629119Y-100115809D01*
X155629119Y-100115809D02*
X155629119Y-99877714D01*
X155629119Y-101401523D02*
X155629119Y-100830095D01*
X155629119Y-101115809D02*
X154629119Y-101115809D01*
X154629119Y-101115809D02*
X154771976Y-101020571D01*
X154771976Y-101020571D02*
X154867214Y-100925333D01*
X154867214Y-100925333D02*
X154914833Y-100830095D01*
X154629119Y-102020571D02*
X154629119Y-102115809D01*
X154629119Y-102115809D02*
X154676738Y-102211047D01*
X154676738Y-102211047D02*
X154724357Y-102258666D01*
X154724357Y-102258666D02*
X154819595Y-102306285D01*
X154819595Y-102306285D02*
X155010071Y-102353904D01*
X155010071Y-102353904D02*
X155248166Y-102353904D01*
X155248166Y-102353904D02*
X155438642Y-102306285D01*
X155438642Y-102306285D02*
X155533880Y-102258666D01*
X155533880Y-102258666D02*
X155581500Y-102211047D01*
X155581500Y-102211047D02*
X155629119Y-102115809D01*
X155629119Y-102115809D02*
X155629119Y-102020571D01*
X155629119Y-102020571D02*
X155581500Y-101925333D01*
X155581500Y-101925333D02*
X155533880Y-101877714D01*
X155533880Y-101877714D02*
X155438642Y-101830095D01*
X155438642Y-101830095D02*
X155248166Y-101782476D01*
X155248166Y-101782476D02*
X155010071Y-101782476D01*
X155010071Y-101782476D02*
X154819595Y-101830095D01*
X154819595Y-101830095D02*
X154724357Y-101877714D01*
X154724357Y-101877714D02*
X154676738Y-101925333D01*
X154676738Y-101925333D02*
X154629119Y-102020571D01*
D11*
X98900000Y-100215000D02*
X98900000Y-101715000D01*
X98900000Y-101715000D02*
X104300000Y-101715000D01*
X101100000Y-100465000D02*
X102000000Y-100965000D01*
X101100000Y-101465000D02*
X101100000Y-100465000D01*
X102000000Y-100965000D02*
X101100000Y-101465000D01*
X102100000Y-101465000D02*
X102100000Y-100465000D01*
X104300000Y-100215000D02*
X98900000Y-100215000D01*
X104300000Y-101715000D02*
X104300000Y-100215000D01*
X82774000Y-100215000D02*
X82774000Y-101715000D01*
X82774000Y-101715000D02*
X88174000Y-101715000D01*
X84974000Y-100465000D02*
X85874000Y-100965000D01*
X84974000Y-101465000D02*
X84974000Y-100465000D01*
X85874000Y-100965000D02*
X84974000Y-101465000D01*
X85974000Y-101465000D02*
X85974000Y-100465000D01*
X88174000Y-100215000D02*
X82774000Y-100215000D01*
X88174000Y-101715000D02*
X88174000Y-100215000D01*
X63470000Y-63766000D02*
X63470000Y-65266000D01*
X63470000Y-65266000D02*
X68870000Y-65266000D01*
X65670000Y-64016000D02*
X66570000Y-64516000D01*
X65670000Y-65016000D02*
X65670000Y-64016000D01*
X66570000Y-64516000D02*
X65670000Y-65016000D01*
X66670000Y-65016000D02*
X66670000Y-64016000D01*
X68870000Y-63766000D02*
X63470000Y-63766000D01*
X68870000Y-65266000D02*
X68870000Y-63766000D01*
X92296000Y-63766000D02*
X92296000Y-65266000D01*
X92296000Y-65266000D02*
X97696000Y-65266000D01*
X94496000Y-64016000D02*
X95396000Y-64516000D01*
X94496000Y-65016000D02*
X94496000Y-64016000D01*
X95396000Y-64516000D02*
X94496000Y-65016000D01*
X95496000Y-65016000D02*
X95496000Y-64016000D01*
X97696000Y-63766000D02*
X92296000Y-63766000D01*
X97696000Y-65266000D02*
X97696000Y-63766000D01*
X120995000Y-82943000D02*
X120995000Y-84443000D01*
X120995000Y-84443000D02*
X126395000Y-84443000D01*
X123195000Y-83193000D02*
X124095000Y-83693000D01*
X123195000Y-84193000D02*
X123195000Y-83193000D01*
X124095000Y-83693000D02*
X123195000Y-84193000D01*
X124195000Y-84193000D02*
X124195000Y-83193000D01*
X126395000Y-82943000D02*
X120995000Y-82943000D01*
X126395000Y-84443000D02*
X126395000Y-82943000D01*
X82771000Y-63766000D02*
X82771000Y-65266000D01*
X82771000Y-65266000D02*
X88171000Y-65266000D01*
X84971000Y-64016000D02*
X85871000Y-64516000D01*
X84971000Y-65016000D02*
X84971000Y-64016000D01*
X85871000Y-64516000D02*
X84971000Y-65016000D01*
X85971000Y-65016000D02*
X85971000Y-64016000D01*
X88171000Y-63766000D02*
X82771000Y-63766000D01*
X88171000Y-65266000D02*
X88171000Y-63766000D01*
X142080000Y-96151000D02*
X142080000Y-97651000D01*
X142080000Y-97651000D02*
X147480000Y-97651000D01*
X144280000Y-96401000D02*
X145180000Y-96901000D01*
X144280000Y-97401000D02*
X144280000Y-96401000D01*
X145180000Y-96901000D02*
X144280000Y-97401000D01*
X145280000Y-97401000D02*
X145280000Y-96401000D01*
X147480000Y-96151000D02*
X142080000Y-96151000D01*
X147480000Y-97651000D02*
X147480000Y-96151000D01*
X63594000Y-100215000D02*
X63594000Y-101715000D01*
X63594000Y-101715000D02*
X68994000Y-101715000D01*
X65794000Y-100465000D02*
X66694000Y-100965000D01*
X65794000Y-101465000D02*
X65794000Y-100465000D01*
X66694000Y-100965000D02*
X65794000Y-101465000D01*
X66794000Y-101465000D02*
X66794000Y-100465000D01*
X68994000Y-100215000D02*
X63594000Y-100215000D01*
X68994000Y-101715000D02*
X68994000Y-100215000D01*
X152793000Y-98392000D02*
X152793000Y-103792000D01*
X152793000Y-103792000D02*
X154293000Y-103792000D01*
X153043000Y-101592000D02*
X153543000Y-100692000D01*
X153543000Y-100692000D02*
X154043000Y-101592000D01*
X154043000Y-100592000D02*
X153043000Y-100592000D01*
X154043000Y-101592000D02*
X153043000Y-101592000D01*
X154293000Y-98392000D02*
X152793000Y-98392000D01*
X154293000Y-103792000D02*
X154293000Y-98392000D01*
D12*
X137362000Y-62484000D03*
X130862000Y-62484000D03*
M02*
