M48
; DRILL file {KiCad 8.0.6} date 2025-02-17T10:52:28+0900
; FORMAT={-:-/ absolute / metric / decimal}
; #@! TF.CreationDate,2025-02-17T10:52:28+09:00
; #@! TF.GenerationSoftware,Kicad,Pcbnew,8.0.6
; #@! TF.FileFunction,NonPlated,1,2,NPTH
FMAT,2
METRIC
; #@! TA.AperFunction,NonPlated,NPTH,ComponentDrill
T1C1.800
; #@! TA.AperFunction,NonPlated,NPTH,ComponentDrill
T2C2.000
; #@! TA.AperFunction,NonPlated,NPTH,ComponentDrill
T3C3.000
; #@! TA.AperFunction,NonPlated,NPTH,ComponentDrill
T4C3.050
; #@! TA.AperFunction,NonPlated,NPTH,ComponentDrill
T5C4.000
; #@! TA.AperFunction,NonPlated,NPTH,ComponentDrill
T6C4.300
%
G90
G05
T1
X121.12Y-107.156
X131.28Y-107.156
X178.28Y-107.156
X188.44Y-107.156
T2
X44.92Y-50.0
X47.3Y-69.05
X49.68Y-88.1
X54.451Y-107.156
X55.08Y-50.0
X57.46Y-69.05
X59.84Y-88.1
X63.976Y-50.0
X64.611Y-107.156
X68.739Y-69.056
X73.492Y-88.106
X73.501Y-107.156
X74.136Y-50.0
X78.899Y-69.056
X83.026Y-50.0
X83.652Y-88.106
X83.661Y-107.156
X87.789Y-69.056
X92.551Y-88.106
X92.551Y-107.156
X93.186Y-50.0
X97.949Y-69.056
X102.076Y-50.006
X102.711Y-88.106
X102.711Y-107.156
X106.839Y-69.056
X111.601Y-88.106
X112.236Y-50.006
X116.999Y-69.056
X121.126Y-50.006
X121.761Y-88.106
X125.889Y-69.056
X130.651Y-88.106
X131.286Y-50.006
X136.049Y-69.056
X140.176Y-50.006
X140.811Y-88.106
X144.939Y-69.056
X149.701Y-88.106
X149.701Y-107.156
X150.336Y-50.006
X155.099Y-69.056
X159.226Y-50.0
X159.861Y-88.106
X159.861Y-107.156
X163.989Y-69.056
X168.751Y-88.106
X169.386Y-50.0
X174.149Y-69.056
X178.276Y-50.006
X178.911Y-88.106
X183.039Y-69.056
X187.801Y-88.106
X188.436Y-50.006
X193.199Y-69.056
X197.326Y-50.006
X197.961Y-88.106
X202.089Y-69.056
X206.851Y-88.106
X206.851Y-107.156
X207.486Y-50.006
X212.249Y-69.056
X216.376Y-50.006
X217.011Y-88.106
X217.011Y-107.156
X221.139Y-69.056
X225.901Y-88.106
X225.901Y-107.156
X226.536Y-50.006
X231.299Y-69.056
X235.426Y-50.006
X236.061Y-88.106
X236.061Y-107.156
X244.951Y-107.156
X245.586Y-50.006
X247.34Y-69.056
X249.714Y-88.106
X254.476Y-50.0
X255.111Y-107.156
X257.5Y-69.056
X259.874Y-88.106
X264.636Y-50.0
T3
X46.19Y-47.46
X48.57Y-66.51
X50.95Y-85.56
X52.54Y-44.92
X54.92Y-63.97
X55.721Y-104.616
X57.3Y-83.02
X62.071Y-102.076
X65.246Y-47.46
X70.009Y-66.516
X71.596Y-44.92
X74.763Y-85.566
X74.771Y-104.616
X76.359Y-63.976
X81.112Y-83.026
X81.121Y-102.076
X84.296Y-47.46
X89.059Y-66.516
X90.646Y-44.92
X93.821Y-85.566
X93.821Y-104.616
X95.409Y-63.976
X100.171Y-83.026
X100.171Y-102.076
X103.346Y-47.466
X108.109Y-66.516
X109.696Y-44.926
X112.871Y-85.566
X114.459Y-63.976
X119.221Y-83.026
X122.39Y-104.616
X122.396Y-47.466
X127.159Y-66.516
X128.74Y-102.076
X128.746Y-44.926
X131.921Y-85.566
X133.509Y-63.976
X138.271Y-83.026
X141.446Y-47.466
X146.209Y-66.516
X147.796Y-44.926
X150.971Y-85.566
X150.971Y-104.616
X152.559Y-63.976
X157.321Y-83.026
X157.321Y-102.076
X160.496Y-47.46
X165.259Y-66.516
X166.846Y-44.92
X170.021Y-85.566
X171.609Y-63.976
X176.371Y-83.026
X179.546Y-47.466
X179.55Y-104.616
X184.309Y-66.516
X185.896Y-44.926
X185.9Y-102.076
X189.071Y-85.566
X190.659Y-63.976
X195.421Y-83.026
X198.596Y-47.466
X203.359Y-66.516
X204.946Y-44.926
X208.121Y-85.566
X208.121Y-104.616
X209.709Y-63.976
X214.471Y-83.026
X214.471Y-102.076
X217.646Y-47.466
X222.409Y-66.516
X223.996Y-44.926
X227.171Y-85.566
X227.171Y-104.616
X228.759Y-63.976
X233.521Y-83.026
X233.521Y-102.076
X236.696Y-47.466
X243.046Y-44.926
X246.221Y-104.616
X248.61Y-66.516
X250.984Y-85.566
X252.571Y-102.076
X254.96Y-63.976
X255.746Y-47.46
X257.334Y-83.026
X262.096Y-44.92
T4
X114.3Y-100.156
X138.1Y-100.156
X171.46Y-100.156
X195.26Y-100.156
T5
X50.0Y-50.0
X52.38Y-69.05
X54.76Y-88.1
X59.531Y-107.156
X69.056Y-50.0
X73.819Y-69.056
X78.572Y-88.106
X78.581Y-107.156
X88.106Y-50.0
X92.869Y-69.056
X97.631Y-88.106
X97.631Y-107.156
X107.156Y-50.006
X111.919Y-69.056
X114.3Y-115.396
X116.681Y-88.106
X126.2Y-107.156
X126.206Y-50.006
X130.969Y-69.056
X135.731Y-88.106
X138.1Y-115.396
X145.256Y-50.006
X150.019Y-69.056
X154.781Y-88.106
X154.781Y-107.156
X164.306Y-50.0
X169.069Y-69.056
X171.46Y-115.396
X173.831Y-88.106
X183.356Y-50.006
X183.36Y-107.156
X188.119Y-69.056
X192.881Y-88.106
X195.26Y-115.396
X202.406Y-50.006
X207.169Y-69.056
X211.931Y-88.106
X211.931Y-107.156
X221.456Y-50.006
X226.219Y-69.056
X230.981Y-88.106
X230.981Y-107.156
X240.506Y-50.006
X250.031Y-107.156
X252.42Y-69.056
X254.794Y-88.106
X259.556Y-50.0
T6
X42.863Y-95.25
X52.389Y-115.014
X80.25Y-42.148
X83.346Y-77.867
X107.158Y-115.014
X117.636Y-42.148
X126.209Y-79.296
X183.36Y-79.296
X193.838Y-42.148
X202.41Y-115.014
X235.749Y-77.867
X251.703Y-42.148
X257.18Y-115.014
X266.706Y-95.25
M30
