M48
; DRILL file {KiCad 8.0.6} date 2025-02-17T10:52:28+0900
; FORMAT={-:-/ absolute / metric / decimal}
; #@! TF.CreationDate,2025-02-17T10:52:28+09:00
; #@! TF.GenerationSoftware,Kicad,Pcbnew,8.0.6
; #@! TF.FileFunction,Plated,1,2,PTH
FMAT,2
METRIC
; #@! TA.AperFunction,Plated,PTH,ViaDrill
T1C0.300
; #@! TA.AperFunction,Plated,PTH,ComponentDrill
T2C0.813
; #@! TA.AperFunction,Plated,PTH,ComponentDrill
T3C1.300
%
G90
G05
T1
X61.987Y-59.0
X62.75Y-54.5
X63.25Y-60.25
X63.25Y-61.05
X63.25Y-61.85
X64.013Y-56.487
X64.75Y-59.0
X64.75Y-60.25
X64.75Y-61.05
X64.75Y-61.85
X65.98Y-55.15
X69.0Y-55.15
X71.5Y-73.75
X71.5Y-75.75
X71.5Y-92.5
X71.5Y-94.5
X85.0Y-59.0
X85.0Y-60.25
X85.0Y-61.05
X85.0Y-61.85
X85.75Y-54.5
X85.75Y-56.5
X86.5Y-59.0
X86.5Y-60.25
X86.5Y-61.05
X86.5Y-61.85
X90.5Y-74.0
X90.5Y-75.5
X90.75Y-92.5
X90.75Y-94.25
X104.0Y-59.0
X104.0Y-60.25
X104.0Y-61.05
X104.75Y-54.75
X104.75Y-56.25
X105.5Y-59.0
X105.5Y-60.25
X105.5Y-61.05
X109.5Y-73.925
X109.5Y-75.25
X119.25Y-93.0
X119.25Y-94.5
X123.0Y-59.0
X123.0Y-60.25
X123.75Y-54.75
X123.75Y-56.25
X124.5Y-59.0
X124.5Y-60.25
X128.75Y-74.0
X129.066Y-75.816
X133.5Y-92.925
X134.75Y-94.25
X142.25Y-60.25
X143.0Y-55.0
X143.0Y-56.5
X143.75Y-60.25
X147.75Y-74.0
X147.75Y-75.5
X152.75Y-93.0
X154.25Y-94.5
X162.0Y-54.75
X162.0Y-56.5
X166.75Y-74.0
X166.75Y-75.5
X171.75Y-93.0
X173.25Y-94.5
X176.356Y-50.106
X181.0Y-54.75
X181.0Y-56.75
X181.119Y-69.294
X185.98Y-75.73
X190.75Y-93.0
X192.25Y-94.5
X195.406Y-50.156
X200.0Y-54.75
X200.0Y-56.5
X204.75Y-73.75
X204.75Y-75.5
X209.25Y-93.0
X210.75Y-94.5
X214.456Y-51.0
X219.0Y-54.75
X219.0Y-56.5
X223.25Y-73.75
X223.25Y-75.75
X233.5Y-50.5
T2
X42.292Y-42.286
X42.292Y-57.506
X44.832Y-42.286
X44.832Y-57.506
X47.372Y-42.286
X47.372Y-57.506
X49.912Y-42.286
X49.912Y-57.506
X52.452Y-42.286
X52.452Y-57.506
X54.992Y-42.286
X54.992Y-57.506
X57.0Y-47.69
X57.0Y-55.31
X57.532Y-42.286
X57.532Y-57.506
X60.072Y-42.286
X60.072Y-57.506
X61.0Y-68.965
X61.0Y-76.585
X62.612Y-42.286
X62.612Y-57.506
X64.0Y-88.19
X64.0Y-95.81
X65.152Y-42.286
X65.152Y-57.506
X67.692Y-42.286
X67.692Y-57.506
X68.0Y-107.19
X68.0Y-114.81
X70.232Y-42.286
X70.232Y-57.506
X72.772Y-42.286
X72.772Y-57.506
X77.0Y-50.19
X77.0Y-57.81
X82.0Y-66.805
X82.0Y-74.425
X87.0Y-87.965
X87.0Y-95.585
X87.0Y-106.965
X87.0Y-114.585
X96.0Y-50.0
X96.0Y-57.62
X101.0Y-68.965
X101.0Y-76.585
X106.0Y-88.19
X106.0Y-95.81
X107.158Y-103.584
X107.158Y-111.204
X115.0Y-49.965
X115.0Y-57.585
X120.0Y-69.19
X120.0Y-76.81
X125.0Y-88.0
X125.0Y-95.62
X134.0Y-50.19
X134.0Y-57.81
X134.0Y-107.19
X134.0Y-114.81
X139.0Y-69.19
X139.0Y-76.81
X144.0Y-87.965
X144.0Y-95.585
X153.0Y-50.19
X153.0Y-57.81
X158.0Y-69.19
X158.0Y-76.81
X163.0Y-88.19
X163.0Y-95.81
X163.0Y-107.19
X163.0Y-114.81
X172.0Y-50.19
X172.0Y-57.81
X177.0Y-69.19
X177.0Y-76.81
X182.0Y-88.19
X182.0Y-95.81
X191.0Y-49.965
X191.0Y-57.585
X191.0Y-107.19
X191.0Y-114.81
X196.0Y-69.19
X196.0Y-76.81
X201.0Y-88.19
X201.0Y-95.81
X210.0Y-50.19
X210.0Y-57.81
X215.0Y-69.19
X215.0Y-76.81
X220.0Y-88.19
X220.0Y-95.81
X220.0Y-107.19
X220.0Y-114.81
X229.0Y-50.19
X229.0Y-57.81
X234.32Y-67.151
X234.32Y-74.771
X239.0Y-88.19
X239.0Y-95.81
X239.0Y-106.965
X239.0Y-114.585
X249.0Y-50.415
X249.0Y-58.035
X249.322Y-110.728
X256.942Y-110.728
X261.0Y-68.965
X261.0Y-76.585
X263.0Y-88.19
X263.0Y-95.81
X266.7Y-49.965
X266.7Y-57.585
T3
X42.149Y-70.569
X42.149Y-77.069
M30
