%TF.GenerationSoftware,KiCad,Pcbnew,8.0.6*%
%TF.CreationDate,2025-02-17T10:52:22+09:00*%
%TF.ProjectId,assemble,61737365-6d62-46c6-952e-6b696361645f,rev?*%
%TF.SameCoordinates,Original*%
%TF.FileFunction,Soldermask,Top*%
%TF.FilePolarity,Negative*%
%FSLAX46Y46*%
G04 Gerber Fmt 4.6, Leading zero omitted, Abs format (unit mm)*
G04 Created by KiCad (PCBNEW 8.0.6) date 2025-02-17 10:52:22*
%MOMM*%
%LPD*%
G01*
G04 APERTURE LIST*
%ADD10R,1.397000X1.397000*%
%ADD11C,1.397000*%
%ADD12C,2.000000*%
%ADD13C,3.000000*%
%ADD14C,4.000000*%
%ADD15C,4.500000*%
%ADD16C,3.050000*%
%ADD17C,1.800000*%
%ADD18C,1.524000*%
G04 APERTURE END LIST*
D10*
%TO.C,D2*%
X61000000Y-68965000D03*
D11*
X61000000Y-76585000D03*
%TD*%
D10*
%TO.C,D27*%
X182000000Y-95810000D03*
D11*
X182000000Y-88190000D03*
%TD*%
D12*
%TO.C,SW32*%
X187801250Y-88106250D03*
D13*
X189071250Y-85566250D03*
D14*
X192881250Y-88106250D03*
D13*
X195421250Y-83026250D03*
D12*
X197961250Y-88106250D03*
%TD*%
D10*
%TO.C,D23*%
X163000000Y-95810000D03*
D11*
X163000000Y-88190000D03*
%TD*%
D15*
%TO.C,Ref\u002A\u002A*%
X126208900Y-79295625D03*
%TD*%
D10*
%TO.C,D26*%
X177000000Y-76810000D03*
D11*
X177000000Y-69190000D03*
%TD*%
D15*
%TO.C,Ref\u002A\u002A*%
X117636220Y-42148125D03*
%TD*%
D12*
%TO.C,SW35*%
X202088750Y-69056250D03*
D13*
X203358750Y-66516250D03*
D14*
X207168750Y-69056250D03*
D13*
X209708750Y-63976250D03*
D12*
X212248750Y-69056250D03*
%TD*%
D10*
%TO.C,D8*%
X87000000Y-114585000D03*
D11*
X87000000Y-106965000D03*
%TD*%
D12*
%TO.C,SW22*%
X140176250Y-50006250D03*
D13*
X141446250Y-47466250D03*
D14*
X145256250Y-50006250D03*
D13*
X147796250Y-44926250D03*
D12*
X150336250Y-50006250D03*
%TD*%
D16*
%TO.C,SW25*%
X171460000Y-100156250D03*
D14*
X171460000Y-115396250D03*
D17*
X178280000Y-107156250D03*
D13*
X179550000Y-104616250D03*
D14*
X183360000Y-107156250D03*
D13*
X185900000Y-102076250D03*
D17*
X188440000Y-107156250D03*
D16*
X195260000Y-100156250D03*
D14*
X195260000Y-115396250D03*
%TD*%
D10*
%TO.C,D13*%
X115000000Y-57585000D03*
D11*
X115000000Y-49965000D03*
%TD*%
D10*
%TO.C,D1*%
X57000000Y-47690000D03*
D11*
X57000000Y-55310000D03*
%TD*%
D10*
%TO.C,D7*%
X87000000Y-95585000D03*
D11*
X87000000Y-87965000D03*
%TD*%
D12*
%TO.C,SW10*%
X83026250Y-50000000D03*
D13*
X84296250Y-47460000D03*
D14*
X88106250Y-50000000D03*
D13*
X90646250Y-44920000D03*
D12*
X93186250Y-50000000D03*
%TD*%
D10*
%TO.C,D31*%
X201000000Y-95810000D03*
D11*
X201000000Y-88190000D03*
%TD*%
D10*
%TO.C,D37*%
X229000000Y-57810000D03*
D11*
X229000000Y-50190000D03*
%TD*%
D10*
%TO.C,D34*%
X215000000Y-76810000D03*
D11*
X215000000Y-69190000D03*
%TD*%
D10*
%TO.C,D30*%
X196000000Y-76810000D03*
D11*
X196000000Y-69190000D03*
%TD*%
D10*
%TO.C,D32*%
X239000000Y-114585000D03*
D11*
X239000000Y-106965000D03*
%TD*%
D12*
%TO.C,SW7*%
X68738750Y-69056250D03*
D13*
X70008750Y-66516250D03*
D14*
X73818750Y-69056250D03*
D13*
X76358750Y-63976250D03*
D12*
X78898750Y-69056250D03*
%TD*%
D10*
%TO.C,D9*%
X96000000Y-57620000D03*
D11*
X96000000Y-50000000D03*
%TD*%
D15*
%TO.C,Ref\u002A\u002A*%
X83345500Y-77866875D03*
%TD*%
D10*
%TO.C,D21*%
X153000000Y-57810000D03*
D11*
X153000000Y-50190000D03*
%TD*%
D15*
%TO.C,Ref\u002A\u002A*%
X266705600Y-95250000D03*
%TD*%
D10*
%TO.C,D19*%
X144000000Y-95585000D03*
D11*
X144000000Y-87965000D03*
%TD*%
D10*
%TO.C,D40*%
X263000000Y-95810000D03*
D11*
X263000000Y-88190000D03*
%TD*%
D10*
%TO.C,D36*%
X249322190Y-110728125D03*
D11*
X256942190Y-110728125D03*
%TD*%
D10*
%TO.C,D20*%
X163000000Y-114810000D03*
D11*
X163000000Y-107190000D03*
%TD*%
D12*
%TO.C,SW29*%
X206851250Y-107156250D03*
D13*
X208121250Y-104616250D03*
D14*
X211931250Y-107156250D03*
D13*
X214471250Y-102076250D03*
D12*
X217011250Y-107156250D03*
%TD*%
%TO.C,SW11*%
X87788750Y-69056250D03*
D13*
X89058750Y-66516250D03*
D14*
X92868750Y-69056250D03*
D13*
X95408750Y-63976250D03*
D12*
X97948750Y-69056250D03*
%TD*%
D10*
%TO.C,D10*%
X101000000Y-76585000D03*
D11*
X101000000Y-68965000D03*
%TD*%
D10*
%TO.C,D16*%
X134000000Y-114810000D03*
D11*
X134000000Y-107190000D03*
%TD*%
D12*
%TO.C,SW40*%
X225901250Y-88106250D03*
D13*
X227171250Y-85566250D03*
D14*
X230981250Y-88106250D03*
D13*
X233521250Y-83026250D03*
D12*
X236061250Y-88106250D03*
%TD*%
%TO.C,SW15*%
X106838750Y-69056250D03*
D13*
X108108750Y-66516250D03*
D14*
X111918750Y-69056250D03*
D13*
X114458750Y-63976250D03*
D12*
X116998750Y-69056250D03*
%TD*%
D15*
%TO.C,Ref\u002A\u002A*%
X52388600Y-115014375D03*
%TD*%
D10*
%TO.C,D43*%
X261000000Y-76585000D03*
D11*
X261000000Y-68965000D03*
%TD*%
D12*
%TO.C,SW37*%
X244951250Y-107156250D03*
D13*
X246221250Y-104616250D03*
D14*
X250031250Y-107156250D03*
D13*
X252571250Y-102076250D03*
D12*
X255111250Y-107156250D03*
%TD*%
%TO.C,SW1*%
X42149010Y-77068750D03*
X42149010Y-70568750D03*
%TD*%
%TO.C,SW16*%
X111601250Y-88106250D03*
D13*
X112871250Y-85566250D03*
D14*
X116681250Y-88106250D03*
D13*
X119221250Y-83026250D03*
D12*
X121761250Y-88106250D03*
%TD*%
D10*
%TO.C,D14*%
X120000000Y-76810000D03*
D11*
X120000000Y-69190000D03*
%TD*%
D12*
%TO.C,SW24*%
X149701250Y-88106250D03*
D13*
X150971250Y-85566250D03*
D14*
X154781250Y-88106250D03*
D13*
X157321250Y-83026250D03*
D12*
X159861250Y-88106250D03*
%TD*%
D10*
%TO.C,D39*%
X239000000Y-95810000D03*
D11*
X239000000Y-88190000D03*
%TD*%
D12*
%TO.C,SW23*%
X144938750Y-69056250D03*
D13*
X146208750Y-66516250D03*
D14*
X150018750Y-69056250D03*
D13*
X152558750Y-63976250D03*
D12*
X155098750Y-69056250D03*
%TD*%
%TO.C,SW38*%
X216376250Y-50006250D03*
D13*
X217646250Y-47466250D03*
D14*
X221456250Y-50006250D03*
D13*
X223996250Y-44926250D03*
D12*
X226536250Y-50006250D03*
%TD*%
D10*
%TO.C,D42*%
X266700000Y-57585000D03*
D11*
X266700000Y-49965000D03*
%TD*%
D12*
%TO.C,SW13*%
X92551250Y-107156250D03*
D13*
X93821250Y-104616250D03*
D14*
X97631250Y-107156250D03*
D13*
X100171250Y-102076250D03*
D12*
X102711250Y-107156250D03*
%TD*%
%TO.C,SW20*%
X130651250Y-88106250D03*
D13*
X131921250Y-85566250D03*
D14*
X135731250Y-88106250D03*
D13*
X138271250Y-83026250D03*
D12*
X140811250Y-88106250D03*
%TD*%
%TO.C,SW9*%
X73501250Y-107156250D03*
D13*
X74771250Y-104616250D03*
D14*
X78581250Y-107156250D03*
D13*
X81121250Y-102076250D03*
D12*
X83661250Y-107156250D03*
%TD*%
%TO.C,SW39*%
X221138750Y-69056250D03*
D13*
X222408750Y-66516250D03*
D14*
X226218750Y-69056250D03*
D13*
X228758750Y-63976250D03*
D12*
X231298750Y-69056250D03*
%TD*%
D10*
%TO.C,D11*%
X106000000Y-95810000D03*
D11*
X106000000Y-88190000D03*
%TD*%
D10*
%TO.C,D4*%
X68000000Y-107190000D03*
D11*
X68000000Y-114810000D03*
%TD*%
D10*
%TO.C,D12*%
X107158500Y-111204375D03*
D11*
X107158500Y-103584375D03*
%TD*%
D10*
%TO.C,D28*%
X220000000Y-114810000D03*
D11*
X220000000Y-107190000D03*
%TD*%
D10*
%TO.C,D29*%
X191000000Y-57585000D03*
D11*
X191000000Y-49965000D03*
%TD*%
D12*
%TO.C,SW12*%
X92551250Y-88106250D03*
D13*
X93821250Y-85566250D03*
D14*
X97631250Y-88106250D03*
D13*
X100171250Y-83026250D03*
D12*
X102711250Y-88106250D03*
%TD*%
D10*
%TO.C,D24*%
X191000000Y-114810000D03*
D11*
X191000000Y-107190000D03*
%TD*%
D10*
%TO.C,D38*%
X234319920Y-74771250D03*
D11*
X234319920Y-67151250D03*
%TD*%
D15*
%TO.C,Ref\u002A\u002A*%
X235748700Y-77866875D03*
%TD*%
D12*
%TO.C,SW2*%
X44920000Y-50000000D03*
D13*
X46190000Y-47460000D03*
D14*
X50000000Y-50000000D03*
D13*
X52540000Y-44920000D03*
D12*
X55080000Y-50000000D03*
%TD*%
D15*
%TO.C,Ref\u002A\u002A*%
X251703410Y-42148125D03*
%TD*%
D10*
%TO.C,D33*%
X210000000Y-57810000D03*
D11*
X210000000Y-50190000D03*
%TD*%
D12*
%TO.C,SW36*%
X206851250Y-88106250D03*
D13*
X208121250Y-85566250D03*
D14*
X211931250Y-88106250D03*
D13*
X214471250Y-83026250D03*
D12*
X217011250Y-88106250D03*
%TD*%
D15*
%TO.C,Ref\u002A\u002A*%
X107158500Y-115014375D03*
%TD*%
D12*
%TO.C,SW21*%
X149701250Y-107156250D03*
D13*
X150971250Y-104616250D03*
D14*
X154781250Y-107156250D03*
D13*
X157321250Y-102076250D03*
D12*
X159861250Y-107156250D03*
%TD*%
%TO.C,SW27*%
X163988750Y-69056250D03*
D13*
X165258750Y-66516250D03*
D14*
X169068750Y-69056250D03*
D13*
X171608750Y-63976250D03*
D12*
X174148750Y-69056250D03*
%TD*%
%TO.C,SW33*%
X225901250Y-107156250D03*
D13*
X227171250Y-104616250D03*
D14*
X230981250Y-107156250D03*
D13*
X233521250Y-102076250D03*
D12*
X236061250Y-107156250D03*
%TD*%
%TO.C,SW41*%
X249713750Y-88106250D03*
D13*
X250983750Y-85566250D03*
D14*
X254793750Y-88106250D03*
D13*
X257333750Y-83026250D03*
D12*
X259873750Y-88106250D03*
%TD*%
%TO.C,SW31*%
X183038750Y-69056250D03*
D13*
X184308750Y-66516250D03*
D14*
X188118750Y-69056250D03*
D13*
X190658750Y-63976250D03*
D12*
X193198750Y-69056250D03*
%TD*%
D10*
%TO.C,D3*%
X64000000Y-88190000D03*
D11*
X64000000Y-95810000D03*
%TD*%
D12*
%TO.C,SW5*%
X54451250Y-107156250D03*
D13*
X55721250Y-104616250D03*
D14*
X59531250Y-107156250D03*
D13*
X62071250Y-102076250D03*
D12*
X64611250Y-107156250D03*
%TD*%
%TO.C,SW19*%
X125888750Y-69056250D03*
D13*
X127158750Y-66516250D03*
D14*
X130968750Y-69056250D03*
D13*
X133508750Y-63976250D03*
D12*
X136048750Y-69056250D03*
%TD*%
D15*
%TO.C,Ref\u002A\u002A*%
X42863400Y-95250000D03*
%TD*%
%TO.C,Ref\u002A\u002A*%
X80249810Y-42148125D03*
%TD*%
D10*
%TO.C,D5*%
X77000000Y-57810000D03*
D11*
X77000000Y-50190000D03*
%TD*%
D10*
%TO.C,D35*%
X220000000Y-95810000D03*
D11*
X220000000Y-88190000D03*
%TD*%
D12*
%TO.C,SW4*%
X49680000Y-88100000D03*
D13*
X50950000Y-85560000D03*
D14*
X54760000Y-88100000D03*
D13*
X57300000Y-83020000D03*
D12*
X59840000Y-88100000D03*
%TD*%
%TO.C,SW42*%
X235426250Y-50006250D03*
D13*
X236696250Y-47466250D03*
D14*
X240506250Y-50006250D03*
D13*
X243046250Y-44926250D03*
D12*
X245586250Y-50006250D03*
%TD*%
D10*
%TO.C,D6*%
X82000000Y-74425000D03*
D11*
X82000000Y-66805000D03*
%TD*%
D15*
%TO.C,Ref\u002A\u002A*%
X193837820Y-42148125D03*
%TD*%
D12*
%TO.C,SW30*%
X178276250Y-50006250D03*
D13*
X179546250Y-47466250D03*
D14*
X183356250Y-50006250D03*
D13*
X185896250Y-44926250D03*
D12*
X188436250Y-50006250D03*
%TD*%
D15*
%TO.C,Ref\u002A\u002A*%
X257180425Y-115014375D03*
%TD*%
D12*
%TO.C,SW3*%
X47300000Y-69050000D03*
D13*
X48570000Y-66510000D03*
D14*
X52380000Y-69050000D03*
D13*
X54920000Y-63970000D03*
D12*
X57460000Y-69050000D03*
%TD*%
D10*
%TO.C,D18*%
X139000000Y-76810000D03*
D11*
X139000000Y-69190000D03*
%TD*%
D10*
%TO.C,D15*%
X125000000Y-95620000D03*
D11*
X125000000Y-88000000D03*
%TD*%
D12*
%TO.C,SW26*%
X159226250Y-50000000D03*
D13*
X160496250Y-47460000D03*
D14*
X164306250Y-50000000D03*
D13*
X166846250Y-44920000D03*
D12*
X169386250Y-50000000D03*
%TD*%
D15*
%TO.C,Ref\u002A\u002A*%
X183360100Y-79295625D03*
%TD*%
D12*
%TO.C,SW18*%
X121126250Y-50006250D03*
D13*
X122396250Y-47466250D03*
D14*
X126206250Y-50006250D03*
D13*
X128746250Y-44926250D03*
D12*
X131286250Y-50006250D03*
%TD*%
D15*
%TO.C,Ref\u002A\u002A*%
X202410500Y-115014375D03*
%TD*%
D10*
%TO.C,D41*%
X249000000Y-58035000D03*
D11*
X249000000Y-50415000D03*
%TD*%
D10*
%TO.C,D17*%
X134000000Y-57810000D03*
D11*
X134000000Y-50190000D03*
%TD*%
D12*
%TO.C,SW44*%
X247340000Y-69056250D03*
D13*
X248610000Y-66516250D03*
D14*
X252420000Y-69056250D03*
D13*
X254960000Y-63976250D03*
D12*
X257500000Y-69056250D03*
%TD*%
%TO.C,SW14*%
X102076250Y-50006250D03*
D13*
X103346250Y-47466250D03*
D14*
X107156250Y-50006250D03*
D13*
X109696250Y-44926250D03*
D12*
X112236250Y-50006250D03*
%TD*%
%TO.C,SW8*%
X73492500Y-88106250D03*
D13*
X74762500Y-85566250D03*
D14*
X78572500Y-88106250D03*
D13*
X81112500Y-83026250D03*
D12*
X83652500Y-88106250D03*
%TD*%
D10*
%TO.C,D22*%
X158000000Y-76810000D03*
D11*
X158000000Y-69190000D03*
%TD*%
D12*
%TO.C,SW43*%
X254476250Y-50000000D03*
D13*
X255746250Y-47460000D03*
D14*
X259556250Y-50000000D03*
D13*
X262096250Y-44920000D03*
D12*
X264636250Y-50000000D03*
%TD*%
%TO.C,SW34*%
X197326250Y-50006250D03*
D13*
X198596250Y-47466250D03*
D14*
X202406250Y-50006250D03*
D13*
X204946250Y-44926250D03*
D12*
X207486250Y-50006250D03*
%TD*%
%TO.C,SW6*%
X63976250Y-50000000D03*
D13*
X65246250Y-47460000D03*
D14*
X69056250Y-50000000D03*
D13*
X71596250Y-44920000D03*
D12*
X74136250Y-50000000D03*
%TD*%
D16*
%TO.C,SW17*%
X114300000Y-100156250D03*
D14*
X114300000Y-115396250D03*
D17*
X121120000Y-107156250D03*
D13*
X122390000Y-104616250D03*
D14*
X126200000Y-107156250D03*
D13*
X128740000Y-102076250D03*
D17*
X131280000Y-107156250D03*
D16*
X138100000Y-100156250D03*
D14*
X138100000Y-115396250D03*
%TD*%
D10*
%TO.C,D25*%
X172000000Y-57810000D03*
D11*
X172000000Y-50190000D03*
%TD*%
D12*
%TO.C,SW28*%
X168751250Y-88106250D03*
D13*
X170021250Y-85566250D03*
D14*
X173831250Y-88106250D03*
D13*
X176371250Y-83026250D03*
D12*
X178911250Y-88106250D03*
%TD*%
D18*
%TO.C,U1*%
X44832000Y-42286400D03*
X47372000Y-42286400D03*
X49912000Y-42286400D03*
X52452000Y-42286400D03*
X54992000Y-42286400D03*
X57532000Y-42286400D03*
X60072000Y-42286400D03*
X62612000Y-42286400D03*
X65152000Y-42286400D03*
X67692000Y-42286400D03*
X70232000Y-42286400D03*
X72772000Y-42286400D03*
X72772000Y-57506400D03*
X70232000Y-57506400D03*
X67692000Y-57506400D03*
X65152000Y-57506400D03*
X62612000Y-57506400D03*
X60072000Y-57506400D03*
X57532000Y-57506400D03*
X54992000Y-57506400D03*
X52452000Y-57506400D03*
X49912000Y-57506400D03*
X47372000Y-57506400D03*
X44832000Y-57506400D03*
X42292000Y-57506400D03*
X42292000Y-42286400D03*
%TD*%
M02*
