%TF.GenerationSoftware,KiCad,Pcbnew,8.0.6*%
%TF.CreationDate,2025-02-17T10:52:22+09:00*%
%TF.ProjectId,assemble,61737365-6d62-46c6-952e-6b696361645f,rev?*%
%TF.SameCoordinates,Original*%
%TF.FileFunction,Copper,L1,Top*%
%TF.FilePolarity,Positive*%
%FSLAX46Y46*%
G04 Gerber Fmt 4.6, Leading zero omitted, Abs format (unit mm)*
G04 Created by KiCad (PCBNEW 8.0.6) date 2025-02-17 10:52:22*
%MOMM*%
%LPD*%
G01*
G04 APERTURE LIST*
%TA.AperFunction,ComponentPad*%
%ADD10R,1.397000X1.397000*%
%TD*%
%TA.AperFunction,ComponentPad*%
%ADD11C,1.397000*%
%TD*%
%TA.AperFunction,WasherPad*%
%ADD12C,4.500000*%
%TD*%
%TA.AperFunction,ComponentPad*%
%ADD13C,2.000000*%
%TD*%
%TA.AperFunction,ComponentPad*%
%ADD14C,1.524000*%
%TD*%
%TA.AperFunction,ViaPad*%
%ADD15C,0.600000*%
%TD*%
%TA.AperFunction,Conductor*%
%ADD16C,0.250000*%
%TD*%
%TA.AperFunction,Conductor*%
%ADD17C,0.500000*%
%TD*%
G04 APERTURE END LIST*
D10*
%TO.P,D2,1,K*%
%TO.N,Row1*%
X61000000Y-68965000D03*
D11*
%TO.P,D2,2,A*%
%TO.N,Net-(D2-A)*%
X61000000Y-76585000D03*
%TD*%
D10*
%TO.P,D27,1,K*%
%TO.N,Row2*%
X182000000Y-95810000D03*
D11*
%TO.P,D27,2,A*%
%TO.N,Net-(D27-A)*%
X182000000Y-88190000D03*
%TD*%
D10*
%TO.P,D23,1,K*%
%TO.N,Row2*%
X163000000Y-95810000D03*
D11*
%TO.P,D23,2,A*%
%TO.N,Net-(D23-A)*%
X163000000Y-88190000D03*
%TD*%
D12*
%TO.P,Ref\u002A\u002A,*%
%TO.N,*%
X126208900Y-79295625D03*
%TD*%
D10*
%TO.P,D26,1,K*%
%TO.N,Row1*%
X177000000Y-76810000D03*
D11*
%TO.P,D26,2,A*%
%TO.N,Net-(D26-A)*%
X177000000Y-69190000D03*
%TD*%
D12*
%TO.P,Ref\u002A\u002A,*%
%TO.N,*%
X117636220Y-42148125D03*
%TD*%
D10*
%TO.P,D8,1,K*%
%TO.N,Row3*%
X87000000Y-114585000D03*
D11*
%TO.P,D8,2,A*%
%TO.N,Net-(D8-A)*%
X87000000Y-106965000D03*
%TD*%
D10*
%TO.P,D13,1,K*%
%TO.N,Row0*%
X115000000Y-57585000D03*
D11*
%TO.P,D13,2,A*%
%TO.N,Net-(D13-A)*%
X115000000Y-49965000D03*
%TD*%
D10*
%TO.P,D1,1,K*%
%TO.N,Row0*%
X57000000Y-47690000D03*
D11*
%TO.P,D1,2,A*%
%TO.N,Net-(D1-A)*%
X57000000Y-55310000D03*
%TD*%
D10*
%TO.P,D7,1,K*%
%TO.N,Row2*%
X87000000Y-95585000D03*
D11*
%TO.P,D7,2,A*%
%TO.N,Net-(D7-A)*%
X87000000Y-87965000D03*
%TD*%
D10*
%TO.P,D31,1,K*%
%TO.N,Row2*%
X201000000Y-95810000D03*
D11*
%TO.P,D31,2,A*%
%TO.N,Net-(D31-A)*%
X201000000Y-88190000D03*
%TD*%
D10*
%TO.P,D37,1,K*%
%TO.N,Row0*%
X229000000Y-57810000D03*
D11*
%TO.P,D37,2,A*%
%TO.N,Net-(D37-A)*%
X229000000Y-50190000D03*
%TD*%
D10*
%TO.P,D34,1,K*%
%TO.N,Row1*%
X215000000Y-76810000D03*
D11*
%TO.P,D34,2,A*%
%TO.N,Net-(D34-A)*%
X215000000Y-69190000D03*
%TD*%
D10*
%TO.P,D30,1,K*%
%TO.N,Row1*%
X196000000Y-76810000D03*
D11*
%TO.P,D30,2,A*%
%TO.N,Net-(D30-A)*%
X196000000Y-69190000D03*
%TD*%
D10*
%TO.P,D32,1,K*%
%TO.N,Row3*%
X239000000Y-114585000D03*
D11*
%TO.P,D32,2,A*%
%TO.N,Net-(D32-A)*%
X239000000Y-106965000D03*
%TD*%
D10*
%TO.P,D9,1,K*%
%TO.N,Row0*%
X96000000Y-57620000D03*
D11*
%TO.P,D9,2,A*%
%TO.N,Net-(D9-A)*%
X96000000Y-50000000D03*
%TD*%
D12*
%TO.P,Ref\u002A\u002A,*%
%TO.N,*%
X83345500Y-77866875D03*
%TD*%
D10*
%TO.P,D21,1,K*%
%TO.N,Row0*%
X153000000Y-57810000D03*
D11*
%TO.P,D21,2,A*%
%TO.N,Net-(D21-A)*%
X153000000Y-50190000D03*
%TD*%
D12*
%TO.P,Ref\u002A\u002A,*%
%TO.N,*%
X266705600Y-95250000D03*
%TD*%
D10*
%TO.P,D19,1,K*%
%TO.N,Row2*%
X144000000Y-95585000D03*
D11*
%TO.P,D19,2,A*%
%TO.N,Net-(D19-A)*%
X144000000Y-87965000D03*
%TD*%
D10*
%TO.P,D40,1,K*%
%TO.N,Row3*%
X263000000Y-95810000D03*
D11*
%TO.P,D40,2,A*%
%TO.N,Net-(D40-A)*%
X263000000Y-88190000D03*
%TD*%
D10*
%TO.P,D36,1,K*%
%TO.N,Row3*%
X249322190Y-110728125D03*
D11*
%TO.P,D36,2,A*%
%TO.N,Net-(D36-A)*%
X256942190Y-110728125D03*
%TD*%
D10*
%TO.P,D20,1,K*%
%TO.N,Row3*%
X163000000Y-114810000D03*
D11*
%TO.P,D20,2,A*%
%TO.N,Net-(D20-A)*%
X163000000Y-107190000D03*
%TD*%
D10*
%TO.P,D10,1,K*%
%TO.N,Row1*%
X101000000Y-76585000D03*
D11*
%TO.P,D10,2,A*%
%TO.N,Net-(D10-A)*%
X101000000Y-68965000D03*
%TD*%
D10*
%TO.P,D16,1,K*%
%TO.N,Row3*%
X134000000Y-114810000D03*
D11*
%TO.P,D16,2,A*%
%TO.N,Net-(D16-A)*%
X134000000Y-107190000D03*
%TD*%
D12*
%TO.P,Ref\u002A\u002A,*%
%TO.N,*%
X52388600Y-115014375D03*
%TD*%
D10*
%TO.P,D43,1,K*%
%TO.N,Row2*%
X261000000Y-76585000D03*
D11*
%TO.P,D43,2,A*%
%TO.N,Net-(D43-A)*%
X261000000Y-68965000D03*
%TD*%
D13*
%TO.P,SW1,1,1*%
%TO.N,Reset*%
X42149010Y-77068750D03*
%TO.P,SW1,2,2*%
%TO.N,GND*%
X42149010Y-70568750D03*
%TD*%
D10*
%TO.P,D14,1,K*%
%TO.N,Row1*%
X120000000Y-76810000D03*
D11*
%TO.P,D14,2,A*%
%TO.N,Net-(D14-A)*%
X120000000Y-69190000D03*
%TD*%
D10*
%TO.P,D39,1,K*%
%TO.N,Row2*%
X239000000Y-95810000D03*
D11*
%TO.P,D39,2,A*%
%TO.N,Net-(D39-A)*%
X239000000Y-88190000D03*
%TD*%
D10*
%TO.P,D42,1,K*%
%TO.N,Row1*%
X266700000Y-57585000D03*
D11*
%TO.P,D42,2,A*%
%TO.N,Net-(D42-A)*%
X266700000Y-49965000D03*
%TD*%
D10*
%TO.P,D11,1,K*%
%TO.N,Row2*%
X106000000Y-95810000D03*
D11*
%TO.P,D11,2,A*%
%TO.N,Net-(D11-A)*%
X106000000Y-88190000D03*
%TD*%
D10*
%TO.P,D4,1,K*%
%TO.N,Row3*%
X68000000Y-107190000D03*
D11*
%TO.P,D4,2,A*%
%TO.N,Net-(D4-A)*%
X68000000Y-114810000D03*
%TD*%
D10*
%TO.P,D12,1,K*%
%TO.N,Row3*%
X107158500Y-111204375D03*
D11*
%TO.P,D12,2,A*%
%TO.N,Net-(D12-A)*%
X107158500Y-103584375D03*
%TD*%
D10*
%TO.P,D28,1,K*%
%TO.N,Row3*%
X220000000Y-114810000D03*
D11*
%TO.P,D28,2,A*%
%TO.N,Net-(D28-A)*%
X220000000Y-107190000D03*
%TD*%
D10*
%TO.P,D29,1,K*%
%TO.N,Row0*%
X191000000Y-57585000D03*
D11*
%TO.P,D29,2,A*%
%TO.N,Net-(D29-A)*%
X191000000Y-49965000D03*
%TD*%
D10*
%TO.P,D24,1,K*%
%TO.N,Row3*%
X191000000Y-114810000D03*
D11*
%TO.P,D24,2,A*%
%TO.N,Net-(D24-A)*%
X191000000Y-107190000D03*
%TD*%
D10*
%TO.P,D38,1,K*%
%TO.N,Row1*%
X234319920Y-74771250D03*
D11*
%TO.P,D38,2,A*%
%TO.N,Net-(D38-A)*%
X234319920Y-67151250D03*
%TD*%
D12*
%TO.P,Ref\u002A\u002A,*%
%TO.N,*%
X235748700Y-77866875D03*
%TD*%
%TO.P,Ref\u002A\u002A,*%
%TO.N,*%
X251703410Y-42148125D03*
%TD*%
D10*
%TO.P,D33,1,K*%
%TO.N,Row0*%
X210000000Y-57810000D03*
D11*
%TO.P,D33,2,A*%
%TO.N,Net-(D33-A)*%
X210000000Y-50190000D03*
%TD*%
D12*
%TO.P,Ref\u002A\u002A,*%
%TO.N,*%
X107158500Y-115014375D03*
%TD*%
D10*
%TO.P,D3,1,K*%
%TO.N,Row2*%
X64000000Y-88190000D03*
D11*
%TO.P,D3,2,A*%
%TO.N,Net-(D3-A)*%
X64000000Y-95810000D03*
%TD*%
D12*
%TO.P,Ref\u002A\u002A,*%
%TO.N,*%
X42863400Y-95250000D03*
%TD*%
%TO.P,Ref\u002A\u002A,*%
%TO.N,*%
X80249810Y-42148125D03*
%TD*%
D10*
%TO.P,D5,1,K*%
%TO.N,Row0*%
X77000000Y-57810000D03*
D11*
%TO.P,D5,2,A*%
%TO.N,Net-(D5-A)*%
X77000000Y-50190000D03*
%TD*%
D10*
%TO.P,D35,1,K*%
%TO.N,Row2*%
X220000000Y-95810000D03*
D11*
%TO.P,D35,2,A*%
%TO.N,Net-(D35-A)*%
X220000000Y-88190000D03*
%TD*%
D10*
%TO.P,D6,1,K*%
%TO.N,Row1*%
X82000000Y-74425000D03*
D11*
%TO.P,D6,2,A*%
%TO.N,Net-(D6-A)*%
X82000000Y-66805000D03*
%TD*%
D12*
%TO.P,Ref\u002A\u002A,*%
%TO.N,*%
X193837820Y-42148125D03*
%TD*%
%TO.P,Ref\u002A\u002A,*%
%TO.N,*%
X257180425Y-115014375D03*
%TD*%
D10*
%TO.P,D18,1,K*%
%TO.N,Row1*%
X139000000Y-76810000D03*
D11*
%TO.P,D18,2,A*%
%TO.N,Net-(D18-A)*%
X139000000Y-69190000D03*
%TD*%
D10*
%TO.P,D15,1,K*%
%TO.N,Row2*%
X125000000Y-95620000D03*
D11*
%TO.P,D15,2,A*%
%TO.N,Net-(D15-A)*%
X125000000Y-88000000D03*
%TD*%
D12*
%TO.P,Ref\u002A\u002A,*%
%TO.N,*%
X183360100Y-79295625D03*
%TD*%
%TO.P,Ref\u002A\u002A,*%
%TO.N,*%
X202410500Y-115014375D03*
%TD*%
D10*
%TO.P,D41,1,K*%
%TO.N,Row0*%
X249000000Y-58035000D03*
D11*
%TO.P,D41,2,A*%
%TO.N,Net-(D41-A)*%
X249000000Y-50415000D03*
%TD*%
D10*
%TO.P,D17,1,K*%
%TO.N,Row0*%
X134000000Y-57810000D03*
D11*
%TO.P,D17,2,A*%
%TO.N,Net-(D17-A)*%
X134000000Y-50190000D03*
%TD*%
D10*
%TO.P,D22,1,K*%
%TO.N,Row1*%
X158000000Y-76810000D03*
D11*
%TO.P,D22,2,A*%
%TO.N,Net-(D22-A)*%
X158000000Y-69190000D03*
%TD*%
D10*
%TO.P,D25,1,K*%
%TO.N,Row0*%
X172000000Y-57810000D03*
D11*
%TO.P,D25,2,A*%
%TO.N,Net-(D25-A)*%
X172000000Y-50190000D03*
%TD*%
D14*
%TO.P,U1,1,D3/PIN1*%
%TO.N,unconnected-(U1-D3{slash}PIN1-Pad1)*%
X44832000Y-42286400D03*
%TO.P,U1,2,D2/PIN2*%
%TO.N,unconnected-(U1-D2{slash}PIN2-Pad2)*%
X47372000Y-42286400D03*
%TO.P,U1,3,GND*%
%TO.N,GND*%
X49912000Y-42286400D03*
%TO.P,U1,4,GND*%
X52452000Y-42286400D03*
%TO.P,U1,5,D1/PIN5/SDA*%
%TO.N,unconnected-(U1-D1{slash}PIN5{slash}SDA-Pad5)*%
X54992000Y-42286400D03*
%TO.P,U1,6,D0/PIN6/SCL*%
%TO.N,Row0*%
X57532000Y-42286400D03*
%TO.P,U1,7,D4/PIN7*%
%TO.N,Row1*%
X60072000Y-42286400D03*
%TO.P,U1,8,C6/PIN8*%
%TO.N,Row2*%
X62612000Y-42286400D03*
%TO.P,U1,9,D7/PIN9*%
%TO.N,Row3*%
X65152000Y-42286400D03*
%TO.P,U1,10,E6/PIN10*%
%TO.N,Col0*%
X67692000Y-42286400D03*
%TO.P,U1,11,B4/PIN11*%
%TO.N,Col1*%
X70232000Y-42286400D03*
%TO.P,U1,12,B5/PIN12*%
%TO.N,Col2*%
X72772000Y-42286400D03*
%TO.P,U1,13,B6/PIN13*%
%TO.N,Col10*%
X72772000Y-57506400D03*
%TO.P,U1,14,B2/PIN14*%
%TO.N,Col9*%
X70232000Y-57506400D03*
%TO.P,U1,15,B3/PIN15*%
%TO.N,Col8*%
X67692000Y-57506400D03*
%TO.P,U1,16,B1/PIN16*%
%TO.N,Col7*%
X65152000Y-57506400D03*
%TO.P,U1,17,F7/PIN17*%
%TO.N,Col6*%
X62612000Y-57506400D03*
%TO.P,U1,18,F6/PIN18*%
%TO.N,Col5*%
X60072000Y-57506400D03*
%TO.P,U1,19,F5/PIN19*%
%TO.N,Col4*%
X57532000Y-57506400D03*
%TO.P,U1,20,F4/PIN20*%
%TO.N,Col3*%
X54992000Y-57506400D03*
%TO.P,U1,21,VCC*%
%TO.N,VCC*%
X52452000Y-57506400D03*
%TO.P,U1,22,RST*%
%TO.N,Reset*%
X49912000Y-57506400D03*
%TO.P,U1,23,GND*%
%TO.N,GND*%
X47372000Y-57506400D03*
%TO.P,U1,24,RAW*%
%TO.N,unconnected-(U1-RAW-Pad24)*%
X44832000Y-57506400D03*
%TO.P,U1,25,BAT+*%
%TO.N,unconnected-(U1-BAT+-Pad25)*%
X42292000Y-57506400D03*
%TO.P,U1,26,BAT-*%
%TO.N,GND*%
X42292000Y-42286400D03*
%TD*%
D15*
%TO.N,Col1*%
X71500000Y-94500000D03*
X71500000Y-73750000D03*
X64013368Y-56486632D03*
X71500000Y-75750000D03*
X62750000Y-54500000D03*
X71500000Y-92500000D03*
%TO.N,Col2*%
X90750000Y-94250000D03*
X85750000Y-56500000D03*
X90750000Y-92500000D03*
X90500000Y-75500000D03*
X90500000Y-74000000D03*
X85750000Y-54500000D03*
%TO.N,Col3*%
X63250000Y-61850006D03*
X86500000Y-61850006D03*
X119250000Y-93000000D03*
X119250000Y-94500000D03*
X104750000Y-56250000D03*
X109500000Y-73925000D03*
X109500000Y-75250000D03*
X104750000Y-54750000D03*
X64750000Y-61850006D03*
X85000000Y-61850006D03*
%TO.N,Col4*%
X63250000Y-61050003D03*
X133500000Y-92925000D03*
X104000000Y-61050003D03*
X123750000Y-54750000D03*
X64750000Y-61050003D03*
X129066460Y-75816460D03*
X123750000Y-56250000D03*
X85000000Y-61050003D03*
X105500000Y-61050003D03*
X86500000Y-61050003D03*
X128750000Y-74000000D03*
X134750000Y-94250000D03*
%TO.N,Col5*%
X86500000Y-59000000D03*
X124500000Y-59000000D03*
X85000000Y-59000000D03*
X154250000Y-94500000D03*
X152750000Y-93000000D03*
X147750000Y-74000000D03*
X143000000Y-56500000D03*
X64750000Y-59000000D03*
X123000000Y-59000000D03*
X147750000Y-75500000D03*
X61987000Y-59000000D03*
X143000000Y-55000000D03*
X104000000Y-59000000D03*
X105500000Y-59000000D03*
%TO.N,Col6*%
X142250000Y-60250000D03*
X143750000Y-60250000D03*
X64750000Y-60250000D03*
X166750000Y-74000000D03*
X85000000Y-60250000D03*
X123000000Y-60250000D03*
X173250000Y-94500000D03*
X162000000Y-54750000D03*
X63250000Y-60250000D03*
X105500000Y-60250000D03*
X162000000Y-56500000D03*
X171750000Y-93000000D03*
X104000000Y-60250000D03*
X124500000Y-60250000D03*
X166750000Y-75500000D03*
X86500000Y-60250000D03*
%TO.N,Col7*%
X65980000Y-55150000D03*
X190750000Y-93000000D03*
X69000000Y-55150000D03*
X181000000Y-56750000D03*
X181118750Y-69294375D03*
X181000000Y-54750000D03*
X185979530Y-75729530D03*
X192250000Y-94500000D03*
X176356250Y-50106250D03*
%TO.N,Col8*%
X200000000Y-54750000D03*
X195406250Y-50156250D03*
X204750000Y-75500000D03*
X209250000Y-93000000D03*
X210750000Y-94500000D03*
X204750000Y-73750000D03*
X200000000Y-56500000D03*
%TO.N,Col10*%
X233500000Y-50500000D03*
%TO.N,Col9*%
X223250000Y-75750000D03*
X219000000Y-54750000D03*
X223250000Y-73750000D03*
X214456250Y-51000000D03*
X219000000Y-56500000D03*
%TD*%
D16*
%TO.N,Row1*%
X60072000Y-42286400D02*
X58750000Y-43608400D01*
X58750000Y-43608400D02*
X58750000Y-66715000D01*
X58750000Y-66715000D02*
X61000000Y-68965000D01*
%TO.N,Row2*%
X64000000Y-64000000D02*
X64000000Y-88190000D01*
X62612000Y-42286400D02*
X61250000Y-43648400D01*
X61250000Y-61250000D02*
X64000000Y-64000000D01*
X61250000Y-43648400D02*
X61250000Y-61250000D01*
%TO.N,Row3*%
X67121250Y-44255650D02*
X65152000Y-42286400D01*
X66605000Y-48752900D02*
X67121250Y-48236650D01*
X67121250Y-48236650D02*
X67121250Y-44255650D01*
X66605000Y-105795000D02*
X66605000Y-48752900D01*
X68000000Y-107190000D02*
X66605000Y-105795000D01*
D17*
%TO.N,GND*%
X48700000Y-43498400D02*
X43504000Y-43498400D01*
X43504000Y-43498400D02*
X42292000Y-42286400D01*
X52500000Y-52378400D02*
X47372000Y-57506400D01*
X52452000Y-42286400D02*
X49912000Y-42286400D01*
X52500000Y-48964466D02*
X52500000Y-52378400D01*
X49912000Y-42286400D02*
X49912000Y-46376466D01*
X49912000Y-42286400D02*
X48700000Y-43498400D01*
X49912000Y-46376466D02*
X52500000Y-48964466D01*
D16*
%TO.N,Col1*%
X62750000Y-54500000D02*
X64013368Y-55763368D01*
X71500000Y-73750000D02*
X71500000Y-75750000D01*
X64013368Y-55763368D02*
X64013368Y-56486632D01*
X71500000Y-92500000D02*
X71500000Y-94175000D01*
%TO.N,Col2*%
X90500000Y-74000000D02*
X90500000Y-75500000D01*
X85750000Y-54500000D02*
X85750000Y-56500000D01*
X90750000Y-92500000D02*
X90750000Y-94250000D01*
%TO.N,Col3*%
X119250000Y-93000000D02*
X119250000Y-94500000D01*
X109500000Y-73925000D02*
X109500000Y-75250000D01*
X104750000Y-54750000D02*
X104750000Y-56250000D01*
X85000000Y-61850006D02*
X86500000Y-61850006D01*
X63250000Y-61850006D02*
X64750000Y-61850006D01*
%TO.N,Col4*%
X129066460Y-74316460D02*
X129066460Y-75816460D01*
X128750000Y-74000000D02*
X129066460Y-74316460D01*
X133500000Y-93000000D02*
X134750000Y-94250000D01*
X123750000Y-54750000D02*
X123750000Y-56250000D01*
X133500000Y-92925000D02*
X133500000Y-93000000D01*
X105500000Y-61050003D02*
X104000000Y-61050003D01*
X86500000Y-61050003D02*
X85000000Y-61050003D01*
X64750000Y-61050003D02*
X63250000Y-61050003D01*
%TO.N,Col5*%
X61987000Y-59000000D02*
X64750000Y-59000000D01*
X85000000Y-59000000D02*
X86500000Y-59000000D01*
X143000000Y-55000000D02*
X143000000Y-56500000D01*
X147750000Y-74000000D02*
X147750000Y-75500000D01*
X123000000Y-59000000D02*
X124500000Y-59000000D01*
X152750000Y-93000000D02*
X154250000Y-94500000D01*
X104000000Y-59000000D02*
X105500000Y-59000000D01*
%TO.N,Col6*%
X142250000Y-60250000D02*
X143750000Y-60250000D01*
X85000000Y-60250000D02*
X86500000Y-60250000D01*
X162000000Y-54750000D02*
X162000000Y-56500000D01*
X104000000Y-60250000D02*
X105500000Y-60250000D01*
X166750000Y-74000000D02*
X166750000Y-75500000D01*
X171750000Y-93000000D02*
X173250000Y-94500000D01*
X123000000Y-60250000D02*
X124500000Y-60250000D01*
X63250000Y-60250000D02*
X64750000Y-60250000D01*
%TO.N,Col7*%
X181000000Y-54750000D02*
X181000000Y-56750000D01*
X181118750Y-69294375D02*
X181118750Y-70868750D01*
X71625000Y-52525000D02*
X173937500Y-52525000D01*
X190750000Y-93000000D02*
X192250000Y-94500000D01*
X69000000Y-55150000D02*
X71625000Y-52525000D01*
X65980000Y-55150000D02*
X65152000Y-55978000D01*
X173937500Y-52525000D02*
X176356250Y-50106250D01*
X181118750Y-70868750D02*
X185979530Y-75729530D01*
X65152000Y-55978000D02*
X65152000Y-57506400D01*
%TO.N,Col8*%
X72223400Y-52975000D02*
X192587500Y-52975000D01*
X200000000Y-54750000D02*
X200000000Y-56500000D01*
X192587500Y-52975000D02*
X195406250Y-50156250D01*
X204750000Y-73750000D02*
X204750000Y-75500000D01*
X67692000Y-57506400D02*
X72223400Y-52975000D01*
X209250000Y-93000000D02*
X210750000Y-94500000D01*
%TO.N,Col10*%
X230125000Y-53875000D02*
X233500000Y-50500000D01*
X76403400Y-53875000D02*
X85750000Y-53875000D01*
X85750000Y-53875000D02*
X230125000Y-53875000D01*
X72772000Y-57506400D02*
X76403400Y-53875000D01*
%TO.N,Col9*%
X219000000Y-54750000D02*
X219000000Y-56500000D01*
X223250000Y-73750000D02*
X223250000Y-75750000D01*
X212031250Y-53425000D02*
X74313400Y-53425000D01*
X74313400Y-53425000D02*
X70232000Y-57506400D01*
X214456250Y-51000000D02*
X212031250Y-53425000D01*
%TD*%
M02*
