%TF.GenerationSoftware,KiCad,Pcbnew,8.0.6*%
%TF.CreationDate,2025-02-17T10:53:08+09:00*%
%TF.ProjectId,top,746f702e-6b69-4636-9164-5f7063625858,rev?*%
%TF.SameCoordinates,Original*%
%TF.FileFunction,Profile,NP*%
%FSLAX46Y46*%
G04 Gerber Fmt 4.6, Leading zero omitted, Abs format (unit mm)*
G04 Created by KiCad (PCBNEW 8.0.6) date 2025-02-17 10:53:08*
%MOMM*%
%LPD*%
G01*
G04 APERTURE LIST*
%TA.AperFunction,Profile*%
%ADD10C,0.300000*%
%TD*%
%TA.AperFunction,Profile*%
%ADD11C,0.150000*%
%TD*%
%TA.AperFunction,Profile*%
%ADD12C,0.120000*%
%TD*%
G04 APERTURE END LIST*
D10*
X269563160Y-96916875D02*
G75*
G02*
X268372510Y-98107560I-1190560J-125D01*
G01*
X258847335Y-117871875D02*
X50721690Y-117912750D01*
X268372510Y-98107525D02*
X260037960Y-98107500D01*
X41196490Y-39290625D02*
X268372535Y-39290625D01*
X260037960Y-98107500D02*
X260037960Y-116681250D01*
X49531040Y-116722092D02*
X49531040Y-98107500D01*
X50721690Y-117912750D02*
G75*
G02*
X49531050Y-116722092I10J1190650D01*
G01*
X269563160Y-40481250D02*
X269563160Y-96916875D01*
X40005840Y-96916875D02*
X40005815Y-40481238D01*
X260037960Y-116681250D02*
G75*
G02*
X258847335Y-117871960I-1190760J50D01*
G01*
X49531040Y-98107500D02*
X41196490Y-98107475D01*
X40005815Y-40481238D02*
G75*
G02*
X41196490Y-39290615I1190685J-62D01*
G01*
X41196490Y-98107475D02*
G75*
G02*
X40005825Y-96916875I10J1190675D01*
G01*
X268372535Y-39290625D02*
G75*
G02*
X269563175Y-40481250I65J-1190575D01*
G01*
D11*
%TO.C,SW32*%
X185831250Y-81056250D02*
X199931250Y-81056250D01*
X185831250Y-95156250D02*
X185831250Y-81056250D01*
X199931250Y-81056250D02*
X199931250Y-95156250D01*
X199931250Y-95156250D02*
X185831250Y-95156250D01*
%TO.C,SW35*%
X200118750Y-62006250D02*
X214218750Y-62006250D01*
X200118750Y-76106250D02*
X200118750Y-62006250D01*
X214218750Y-62006250D02*
X214218750Y-76106250D01*
X214218750Y-76106250D02*
X200118750Y-76106250D01*
%TO.C,SW22*%
X138206250Y-42956250D02*
X152306250Y-42956250D01*
X138206250Y-57056250D02*
X138206250Y-42956250D01*
X152306250Y-42956250D02*
X152306250Y-57056250D01*
X152306250Y-57056250D02*
X138206250Y-57056250D01*
D12*
%TO.C,SW25*%
X167960000Y-101156250D02*
X174960000Y-101156250D01*
X167960000Y-115956250D02*
X167960000Y-101156250D01*
X174960000Y-101156250D02*
X174960000Y-115956250D01*
X174960000Y-115956250D02*
X167960000Y-115956250D01*
D11*
X176310000Y-100106250D02*
X190410000Y-100106250D01*
X176310000Y-114206250D02*
X176310000Y-100106250D01*
X190410000Y-100106250D02*
X190410000Y-114206250D01*
X190410000Y-114206250D02*
X176310000Y-114206250D01*
D12*
X191760000Y-101156250D02*
X191760000Y-115956250D01*
X191760000Y-115956250D02*
X198760000Y-115956250D01*
X198760000Y-101156250D02*
X191760000Y-101156250D01*
X198760000Y-115956250D02*
X198760000Y-101156250D01*
D11*
%TO.C,SW10*%
X81056250Y-42950000D02*
X95156250Y-42950000D01*
X81056250Y-57050000D02*
X81056250Y-42950000D01*
X95156250Y-42950000D02*
X95156250Y-57050000D01*
X95156250Y-57050000D02*
X81056250Y-57050000D01*
%TO.C,SW7*%
X66768750Y-62006250D02*
X80868750Y-62006250D01*
X66768750Y-76106250D02*
X66768750Y-62006250D01*
X80868750Y-62006250D02*
X80868750Y-76106250D01*
X80868750Y-76106250D02*
X66768750Y-76106250D01*
%TO.C,SW29*%
X204881250Y-100106250D02*
X218981250Y-100106250D01*
X204881250Y-114206250D02*
X204881250Y-100106250D01*
X218981250Y-100106250D02*
X218981250Y-114206250D01*
X218981250Y-114206250D02*
X204881250Y-114206250D01*
%TO.C,SW11*%
X85818750Y-62006250D02*
X99918750Y-62006250D01*
X85818750Y-76106250D02*
X85818750Y-62006250D01*
X99918750Y-62006250D02*
X99918750Y-76106250D01*
X99918750Y-76106250D02*
X85818750Y-76106250D01*
%TO.C,SW40*%
X223931250Y-81056250D02*
X238031250Y-81056250D01*
X223931250Y-95156250D02*
X223931250Y-81056250D01*
X238031250Y-81056250D02*
X238031250Y-95156250D01*
X238031250Y-95156250D02*
X223931250Y-95156250D01*
%TO.C,SW15*%
X104868750Y-62006250D02*
X118968750Y-62006250D01*
X104868750Y-76106250D02*
X104868750Y-62006250D01*
X118968750Y-62006250D02*
X118968750Y-76106250D01*
X118968750Y-76106250D02*
X104868750Y-76106250D01*
%TO.C,SW37*%
X242981250Y-100106250D02*
X257081250Y-100106250D01*
X242981250Y-114206250D02*
X242981250Y-100106250D01*
X257081250Y-100106250D02*
X257081250Y-114206250D01*
X257081250Y-114206250D02*
X242981250Y-114206250D01*
%TO.C,SW16*%
X109631250Y-81056250D02*
X123731250Y-81056250D01*
X109631250Y-95156250D02*
X109631250Y-81056250D01*
X123731250Y-81056250D02*
X123731250Y-95156250D01*
X123731250Y-95156250D02*
X109631250Y-95156250D01*
%TO.C,SW24*%
X147731250Y-81056250D02*
X161831250Y-81056250D01*
X147731250Y-95156250D02*
X147731250Y-81056250D01*
X161831250Y-81056250D02*
X161831250Y-95156250D01*
X161831250Y-95156250D02*
X147731250Y-95156250D01*
%TO.C,SW23*%
X142968750Y-62006250D02*
X157068750Y-62006250D01*
X142968750Y-76106250D02*
X142968750Y-62006250D01*
X157068750Y-62006250D02*
X157068750Y-76106250D01*
X157068750Y-76106250D02*
X142968750Y-76106250D01*
%TO.C,SW38*%
X214406250Y-42956250D02*
X228506250Y-42956250D01*
X214406250Y-57056250D02*
X214406250Y-42956250D01*
X228506250Y-42956250D02*
X228506250Y-57056250D01*
X228506250Y-57056250D02*
X214406250Y-57056250D01*
%TO.C,SW13*%
X90581250Y-100106250D02*
X104681250Y-100106250D01*
X90581250Y-114206250D02*
X90581250Y-100106250D01*
X104681250Y-100106250D02*
X104681250Y-114206250D01*
X104681250Y-114206250D02*
X90581250Y-114206250D01*
%TO.C,SW20*%
X128681250Y-81056250D02*
X142781250Y-81056250D01*
X128681250Y-95156250D02*
X128681250Y-81056250D01*
X142781250Y-81056250D02*
X142781250Y-95156250D01*
X142781250Y-95156250D02*
X128681250Y-95156250D01*
%TO.C,SW9*%
X71531250Y-100106250D02*
X85631250Y-100106250D01*
X71531250Y-114206250D02*
X71531250Y-100106250D01*
X85631250Y-100106250D02*
X85631250Y-114206250D01*
X85631250Y-114206250D02*
X71531250Y-114206250D01*
%TO.C,SW39*%
X219168750Y-62006250D02*
X233268750Y-62006250D01*
X219168750Y-76106250D02*
X219168750Y-62006250D01*
X233268750Y-62006250D02*
X233268750Y-76106250D01*
X233268750Y-76106250D02*
X219168750Y-76106250D01*
%TO.C,SW12*%
X90581250Y-81056250D02*
X104681250Y-81056250D01*
X90581250Y-95156250D02*
X90581250Y-81056250D01*
X104681250Y-81056250D02*
X104681250Y-95156250D01*
X104681250Y-95156250D02*
X90581250Y-95156250D01*
%TO.C,SW2*%
X42956250Y-42950000D02*
X57056250Y-42950000D01*
X42956250Y-57050000D02*
X42956250Y-42950000D01*
X57056250Y-42950000D02*
X57056250Y-57050000D01*
X57056250Y-57050000D02*
X42956250Y-57050000D01*
%TO.C,SW36*%
X204881250Y-81056250D02*
X218981250Y-81056250D01*
X204881250Y-95156250D02*
X204881250Y-81056250D01*
X218981250Y-81056250D02*
X218981250Y-95156250D01*
X218981250Y-95156250D02*
X204881250Y-95156250D01*
%TO.C,SW21*%
X147731250Y-100106250D02*
X161831250Y-100106250D01*
X147731250Y-114206250D02*
X147731250Y-100106250D01*
X161831250Y-100106250D02*
X161831250Y-114206250D01*
X161831250Y-114206250D02*
X147731250Y-114206250D01*
%TO.C,SW27*%
X162018750Y-62006250D02*
X176118750Y-62006250D01*
X162018750Y-76106250D02*
X162018750Y-62006250D01*
X176118750Y-62006250D02*
X176118750Y-76106250D01*
X176118750Y-76106250D02*
X162018750Y-76106250D01*
%TO.C,SW33*%
X223931250Y-100106250D02*
X238031250Y-100106250D01*
X223931250Y-114206250D02*
X223931250Y-100106250D01*
X238031250Y-100106250D02*
X238031250Y-114206250D01*
X238031250Y-114206250D02*
X223931250Y-114206250D01*
%TO.C,SW41*%
X247743750Y-81056250D02*
X261843750Y-81056250D01*
X247743750Y-95156250D02*
X247743750Y-81056250D01*
X261843750Y-81056250D02*
X261843750Y-95156250D01*
X261843750Y-95156250D02*
X247743750Y-95156250D01*
%TO.C,SW31*%
X181068750Y-62006250D02*
X195168750Y-62006250D01*
X181068750Y-76106250D02*
X181068750Y-62006250D01*
X195168750Y-62006250D02*
X195168750Y-76106250D01*
X195168750Y-76106250D02*
X181068750Y-76106250D01*
%TO.C,SW5*%
X52481250Y-100106250D02*
X66581250Y-100106250D01*
X52481250Y-114206250D02*
X52481250Y-100106250D01*
X66581250Y-100106250D02*
X66581250Y-114206250D01*
X66581250Y-114206250D02*
X52481250Y-114206250D01*
%TO.C,SW19*%
X123918750Y-62006250D02*
X138018750Y-62006250D01*
X123918750Y-76106250D02*
X123918750Y-62006250D01*
X138018750Y-62006250D02*
X138018750Y-76106250D01*
X138018750Y-76106250D02*
X123918750Y-76106250D01*
%TO.C,SW4*%
X47710000Y-81050000D02*
X61810000Y-81050000D01*
X47710000Y-95150000D02*
X47710000Y-81050000D01*
X61810000Y-81050000D02*
X61810000Y-95150000D01*
X61810000Y-95150000D02*
X47710000Y-95150000D01*
%TO.C,SW42*%
X233456250Y-42956250D02*
X247556250Y-42956250D01*
X233456250Y-57056250D02*
X233456250Y-42956250D01*
X247556250Y-42956250D02*
X247556250Y-57056250D01*
X247556250Y-57056250D02*
X233456250Y-57056250D01*
%TO.C,SW30*%
X176306250Y-42956250D02*
X190406250Y-42956250D01*
X176306250Y-57056250D02*
X176306250Y-42956250D01*
X190406250Y-42956250D02*
X190406250Y-57056250D01*
X190406250Y-57056250D02*
X176306250Y-57056250D01*
%TO.C,SW3*%
X45330000Y-62000000D02*
X59430000Y-62000000D01*
X45330000Y-76100000D02*
X45330000Y-62000000D01*
X59430000Y-62000000D02*
X59430000Y-76100000D01*
X59430000Y-76100000D02*
X45330000Y-76100000D01*
%TO.C,SW26*%
X157256250Y-42950000D02*
X171356250Y-42950000D01*
X157256250Y-57050000D02*
X157256250Y-42950000D01*
X171356250Y-42950000D02*
X171356250Y-57050000D01*
X171356250Y-57050000D02*
X157256250Y-57050000D01*
%TO.C,SW18*%
X119156250Y-42956250D02*
X133256250Y-42956250D01*
X119156250Y-57056250D02*
X119156250Y-42956250D01*
X133256250Y-42956250D02*
X133256250Y-57056250D01*
X133256250Y-57056250D02*
X119156250Y-57056250D01*
%TO.C,SW44*%
X245370000Y-62006250D02*
X259470000Y-62006250D01*
X245370000Y-76106250D02*
X245370000Y-62006250D01*
X259470000Y-62006250D02*
X259470000Y-76106250D01*
X259470000Y-76106250D02*
X245370000Y-76106250D01*
%TO.C,SW14*%
X100106250Y-42956250D02*
X114206250Y-42956250D01*
X100106250Y-57056250D02*
X100106250Y-42956250D01*
X114206250Y-42956250D02*
X114206250Y-57056250D01*
X114206250Y-57056250D02*
X100106250Y-57056250D01*
%TO.C,SW8*%
X71522500Y-81056250D02*
X85622500Y-81056250D01*
X71522500Y-95156250D02*
X71522500Y-81056250D01*
X85622500Y-81056250D02*
X85622500Y-95156250D01*
X85622500Y-95156250D02*
X71522500Y-95156250D01*
%TO.C,SW43*%
X252506250Y-42950000D02*
X266606250Y-42950000D01*
X252506250Y-57050000D02*
X252506250Y-42950000D01*
X266606250Y-42950000D02*
X266606250Y-57050000D01*
X266606250Y-57050000D02*
X252506250Y-57050000D01*
%TO.C,SW34*%
X195356250Y-42956250D02*
X209456250Y-42956250D01*
X195356250Y-57056250D02*
X195356250Y-42956250D01*
X209456250Y-42956250D02*
X209456250Y-57056250D01*
X209456250Y-57056250D02*
X195356250Y-57056250D01*
%TO.C,SW6*%
X62006250Y-42950000D02*
X76106250Y-42950000D01*
X62006250Y-57050000D02*
X62006250Y-42950000D01*
X76106250Y-42950000D02*
X76106250Y-57050000D01*
X76106250Y-57050000D02*
X62006250Y-57050000D01*
D12*
%TO.C,SW17*%
X110800000Y-101156250D02*
X117800000Y-101156250D01*
X110800000Y-115956250D02*
X110800000Y-101156250D01*
X117800000Y-101156250D02*
X117800000Y-115956250D01*
X117800000Y-115956250D02*
X110800000Y-115956250D01*
D11*
X119150000Y-100106250D02*
X133250000Y-100106250D01*
X119150000Y-114206250D02*
X119150000Y-100106250D01*
X133250000Y-100106250D02*
X133250000Y-114206250D01*
X133250000Y-114206250D02*
X119150000Y-114206250D01*
D12*
X134600000Y-101156250D02*
X134600000Y-115956250D01*
X134600000Y-115956250D02*
X141600000Y-115956250D01*
X141600000Y-101156250D02*
X134600000Y-101156250D01*
X141600000Y-115956250D02*
X141600000Y-101156250D01*
D11*
%TO.C,SW28*%
X166781250Y-81056250D02*
X180881250Y-81056250D01*
X166781250Y-95156250D02*
X166781250Y-81056250D01*
X180881250Y-81056250D02*
X180881250Y-95156250D01*
X180881250Y-95156250D02*
X166781250Y-95156250D01*
%TD*%
M02*
