%TF.GenerationSoftware,KiCad,Pcbnew,8.0.6*%
%TF.CreationDate,2025-02-15T21:29:15+09:00*%
%TF.ProjectId,assemble,61737365-6d62-46c6-952e-6b696361645f,rev?*%
%TF.SameCoordinates,Original*%
%TF.FileFunction,Paste,Bot*%
%TF.FilePolarity,Positive*%
%FSLAX46Y46*%
G04 Gerber Fmt 4.6, Leading zero omitted, Abs format (unit mm)*
G04 Created by KiCad (PCBNEW 8.0.6) date 2025-02-15 21:29:15*
%MOMM*%
%LPD*%
G01*
G04 APERTURE LIST*
%ADD10R,0.950000X1.300000*%
%ADD11R,3.300000X3.000000*%
%ADD12R,1.300000X0.950000*%
G04 APERTURE END LIST*
D10*
%TO.C,D2*%
X61000000Y-71000000D03*
X61000000Y-74550000D03*
%TD*%
%TO.C,D27*%
X182000000Y-93775000D03*
X182000000Y-90225000D03*
%TD*%
D11*
%TO.C,SW32*%
X185431250Y-85526250D03*
X199031250Y-82986250D03*
%TD*%
D10*
%TO.C,D23*%
X163000000Y-93775000D03*
X163000000Y-90225000D03*
%TD*%
%TO.C,D26*%
X177000000Y-74775000D03*
X177000000Y-71225000D03*
%TD*%
D11*
%TO.C,SW35*%
X199718750Y-66476250D03*
X213318750Y-63936250D03*
%TD*%
D10*
%TO.C,D8*%
X87000000Y-112550000D03*
X87000000Y-109000000D03*
%TD*%
D11*
%TO.C,SW22*%
X137806250Y-47426250D03*
X151406250Y-44886250D03*
%TD*%
%TO.C,SW25*%
X175960000Y-104616250D03*
X189460000Y-102076250D03*
%TD*%
D10*
%TO.C,D13*%
X115000000Y-55550000D03*
X115000000Y-52000000D03*
%TD*%
%TO.C,D1*%
X57000000Y-49725000D03*
X57000000Y-53275000D03*
%TD*%
%TO.C,D7*%
X87000000Y-93550000D03*
X87000000Y-90000000D03*
%TD*%
D11*
%TO.C,SW10*%
X80656250Y-47420000D03*
X94256250Y-44880000D03*
%TD*%
D10*
%TO.C,D31*%
X201000000Y-93775000D03*
X201000000Y-90225000D03*
%TD*%
%TO.C,D37*%
X229000000Y-55775000D03*
X229000000Y-52225000D03*
%TD*%
%TO.C,D34*%
X215000000Y-74775000D03*
X215000000Y-71225000D03*
%TD*%
%TO.C,D30*%
X196000000Y-74775000D03*
X196000000Y-71225000D03*
%TD*%
%TO.C,D32*%
X239000000Y-112550000D03*
X239000000Y-109000000D03*
%TD*%
D11*
%TO.C,SW7*%
X66368750Y-66476250D03*
X79968750Y-63936250D03*
%TD*%
D10*
%TO.C,D9*%
X96000000Y-55585000D03*
X96000000Y-52035000D03*
%TD*%
%TO.C,D21*%
X153000000Y-55775000D03*
X153000000Y-52225000D03*
%TD*%
%TO.C,D19*%
X144000000Y-93550000D03*
X144000000Y-90000000D03*
%TD*%
%TO.C,D40*%
X263000000Y-93775000D03*
X263000000Y-90225000D03*
%TD*%
D12*
%TO.C,D36*%
X251357190Y-110728125D03*
X254907190Y-110728125D03*
%TD*%
D10*
%TO.C,D20*%
X163000000Y-112775000D03*
X163000000Y-109225000D03*
%TD*%
D11*
%TO.C,SW29*%
X204481250Y-104576250D03*
X218081250Y-102036250D03*
%TD*%
%TO.C,SW11*%
X85418750Y-66476250D03*
X99018750Y-63936250D03*
%TD*%
D10*
%TO.C,D10*%
X101000000Y-74550000D03*
X101000000Y-71000000D03*
%TD*%
%TO.C,D16*%
X134000000Y-112775000D03*
X134000000Y-109225000D03*
%TD*%
D11*
%TO.C,SW40*%
X223531250Y-85526250D03*
X237131250Y-82986250D03*
%TD*%
%TO.C,SW15*%
X104468750Y-66476250D03*
X118068750Y-63936250D03*
%TD*%
D10*
%TO.C,D43*%
X261000000Y-74550000D03*
X261000000Y-71000000D03*
%TD*%
D11*
%TO.C,SW37*%
X242581250Y-104576250D03*
X256181250Y-102036250D03*
%TD*%
%TO.C,SW16*%
X109231250Y-85526250D03*
X122831250Y-82986250D03*
%TD*%
D10*
%TO.C,D14*%
X120000000Y-74775000D03*
X120000000Y-71225000D03*
%TD*%
D11*
%TO.C,SW24*%
X147331250Y-85526250D03*
X160931250Y-82986250D03*
%TD*%
D10*
%TO.C,D39*%
X239000000Y-93775000D03*
X239000000Y-90225000D03*
%TD*%
D11*
%TO.C,SW23*%
X142568750Y-66476250D03*
X156168750Y-63936250D03*
%TD*%
%TO.C,SW38*%
X214006250Y-47426250D03*
X227606250Y-44886250D03*
%TD*%
D10*
%TO.C,D42*%
X266700000Y-55550000D03*
X266700000Y-52000000D03*
%TD*%
D11*
%TO.C,SW13*%
X90181250Y-104576250D03*
X103781250Y-102036250D03*
%TD*%
%TO.C,SW20*%
X128281250Y-85526250D03*
X141881250Y-82986250D03*
%TD*%
%TO.C,SW9*%
X71131250Y-104576250D03*
X84731250Y-102036250D03*
%TD*%
%TO.C,SW39*%
X218768750Y-66476250D03*
X232368750Y-63936250D03*
%TD*%
D10*
%TO.C,D11*%
X106000000Y-93775000D03*
X106000000Y-90225000D03*
%TD*%
%TO.C,D4*%
X68000000Y-109225000D03*
X68000000Y-112775000D03*
%TD*%
%TO.C,D12*%
X107158500Y-109169375D03*
X107158500Y-105619375D03*
%TD*%
%TO.C,D28*%
X220000000Y-112775000D03*
X220000000Y-109225000D03*
%TD*%
%TO.C,D29*%
X191000000Y-55550000D03*
X191000000Y-52000000D03*
%TD*%
D11*
%TO.C,SW12*%
X90181250Y-85526250D03*
X103781250Y-82986250D03*
%TD*%
D10*
%TO.C,D24*%
X191000000Y-112775000D03*
X191000000Y-109225000D03*
%TD*%
%TO.C,D38*%
X234319920Y-72736250D03*
X234319920Y-69186250D03*
%TD*%
D11*
%TO.C,SW2*%
X42550000Y-47420000D03*
X56150000Y-44880000D03*
%TD*%
D10*
%TO.C,D33*%
X210000000Y-55775000D03*
X210000000Y-52225000D03*
%TD*%
D11*
%TO.C,SW36*%
X204481250Y-85526250D03*
X218081250Y-82986250D03*
%TD*%
%TO.C,SW21*%
X147331250Y-104576250D03*
X160931250Y-102036250D03*
%TD*%
%TO.C,SW27*%
X161618750Y-66476250D03*
X175218750Y-63936250D03*
%TD*%
%TO.C,SW33*%
X223531250Y-104576250D03*
X237131250Y-102036250D03*
%TD*%
%TO.C,SW41*%
X247343750Y-85526250D03*
X260943750Y-82986250D03*
%TD*%
%TO.C,SW31*%
X180668750Y-66476250D03*
X194268750Y-63936250D03*
%TD*%
D10*
%TO.C,D3*%
X64000000Y-90225000D03*
X64000000Y-93775000D03*
%TD*%
D11*
%TO.C,SW5*%
X52081250Y-104576250D03*
X65681250Y-102036250D03*
%TD*%
%TO.C,SW19*%
X123518750Y-66476250D03*
X137118750Y-63936250D03*
%TD*%
D10*
%TO.C,D5*%
X77000000Y-55775000D03*
X77000000Y-52225000D03*
%TD*%
%TO.C,D35*%
X220000000Y-93775000D03*
X220000000Y-90225000D03*
%TD*%
D11*
%TO.C,SW4*%
X47310000Y-85520000D03*
X60910000Y-82980000D03*
%TD*%
%TO.C,SW42*%
X233056250Y-47426250D03*
X246656250Y-44886250D03*
%TD*%
D10*
%TO.C,D6*%
X82000000Y-72390000D03*
X82000000Y-68840000D03*
%TD*%
D11*
%TO.C,SW30*%
X175906250Y-47426250D03*
X189506250Y-44886250D03*
%TD*%
%TO.C,SW3*%
X44930000Y-66470000D03*
X58530000Y-63930000D03*
%TD*%
D10*
%TO.C,D18*%
X139000000Y-74775000D03*
X139000000Y-71225000D03*
%TD*%
%TO.C,D15*%
X125000000Y-93585000D03*
X125000000Y-90035000D03*
%TD*%
D11*
%TO.C,SW26*%
X156856250Y-47420000D03*
X170456250Y-44880000D03*
%TD*%
%TO.C,SW18*%
X118756250Y-47426250D03*
X132356250Y-44886250D03*
%TD*%
D10*
%TO.C,D41*%
X249000000Y-56000000D03*
X249000000Y-52450000D03*
%TD*%
%TO.C,D17*%
X134000000Y-55775000D03*
X134000000Y-52225000D03*
%TD*%
D11*
%TO.C,SW44*%
X244970000Y-66476250D03*
X258570000Y-63936250D03*
%TD*%
%TO.C,SW14*%
X99706250Y-47426250D03*
X113306250Y-44886250D03*
%TD*%
%TO.C,SW8*%
X71122500Y-85526250D03*
X84722500Y-82986250D03*
%TD*%
D10*
%TO.C,D22*%
X158000000Y-74775000D03*
X158000000Y-71225000D03*
%TD*%
D11*
%TO.C,SW43*%
X252106250Y-47420000D03*
X265706250Y-44880000D03*
%TD*%
%TO.C,SW34*%
X194956250Y-47426250D03*
X208556250Y-44886250D03*
%TD*%
%TO.C,SW6*%
X61606250Y-47420000D03*
X75206250Y-44880000D03*
%TD*%
%TO.C,SW17*%
X118800000Y-104616250D03*
X132300000Y-102076250D03*
%TD*%
D10*
%TO.C,D25*%
X172000000Y-55775000D03*
X172000000Y-52225000D03*
%TD*%
D11*
%TO.C,SW28*%
X166381250Y-85526250D03*
X179981250Y-82986250D03*
%TD*%
M02*
