G04 #@! TF.GenerationSoftware,KiCad,Pcbnew,8.0.6*
G04 #@! TF.CreationDate,2025-01-11T22:07:08+09:00*
G04 #@! TF.ProjectId,original_keyboard,6f726967-696e-4616-9c5f-6b6579626f61,rev?*
G04 #@! TF.SameCoordinates,Original*
G04 #@! TF.FileFunction,Legend,Top*
G04 #@! TF.FilePolarity,Positive*
%FSLAX46Y46*%
G04 Gerber Fmt 4.6, Leading zero omitted, Abs format (unit mm)*
G04 Created by KiCad (PCBNEW 8.0.6) date 2025-01-11 22:07:08*
%MOMM*%
%LPD*%
G01*
G04 APERTURE LIST*
%ADD10C,0.150000*%
%ADD11C,0.125000*%
%ADD12C,0.120000*%
%ADD13C,0.127000*%
%ADD14C,0.200000*%
%ADD15R,1.397000X1.397000*%
%ADD16C,1.397000*%
%ADD17C,1.524000*%
G04 APERTURE END LIST*
D10*
X152540619Y-112496504D02*
X153350142Y-112496504D01*
X153350142Y-112496504D02*
X153445380Y-112448885D01*
X153445380Y-112448885D02*
X153493000Y-112401266D01*
X153493000Y-112401266D02*
X153540619Y-112306028D01*
X153540619Y-112306028D02*
X153540619Y-112115552D01*
X153540619Y-112115552D02*
X153493000Y-112020314D01*
X153493000Y-112020314D02*
X153445380Y-111972695D01*
X153445380Y-111972695D02*
X153350142Y-111925076D01*
X153350142Y-111925076D02*
X152540619Y-111925076D01*
X152635857Y-111496504D02*
X152588238Y-111448885D01*
X152588238Y-111448885D02*
X152540619Y-111353647D01*
X152540619Y-111353647D02*
X152540619Y-111115552D01*
X152540619Y-111115552D02*
X152588238Y-111020314D01*
X152588238Y-111020314D02*
X152635857Y-110972695D01*
X152635857Y-110972695D02*
X152731095Y-110925076D01*
X152731095Y-110925076D02*
X152826333Y-110925076D01*
X152826333Y-110925076D02*
X152969190Y-110972695D01*
X152969190Y-110972695D02*
X153540619Y-111544123D01*
X153540619Y-111544123D02*
X153540619Y-110925076D01*
D11*
X137450447Y-76016678D02*
X137402828Y-75980964D01*
X137402828Y-75980964D02*
X137331399Y-75980964D01*
X137331399Y-75980964D02*
X137259971Y-76016678D01*
X137259971Y-76016678D02*
X137212352Y-76088107D01*
X137212352Y-76088107D02*
X137188542Y-76159535D01*
X137188542Y-76159535D02*
X137164733Y-76302392D01*
X137164733Y-76302392D02*
X137164733Y-76409535D01*
X137164733Y-76409535D02*
X137188542Y-76552392D01*
X137188542Y-76552392D02*
X137212352Y-76623821D01*
X137212352Y-76623821D02*
X137259971Y-76695250D01*
X137259971Y-76695250D02*
X137331399Y-76730964D01*
X137331399Y-76730964D02*
X137379018Y-76730964D01*
X137379018Y-76730964D02*
X137450447Y-76695250D01*
X137450447Y-76695250D02*
X137474256Y-76659535D01*
X137474256Y-76659535D02*
X137474256Y-76409535D01*
X137474256Y-76409535D02*
X137379018Y-76409535D01*
X137688542Y-76730964D02*
X137688542Y-75980964D01*
X137688542Y-75980964D02*
X137974256Y-76730964D01*
X137974256Y-76730964D02*
X137974256Y-75980964D01*
X138212352Y-76730964D02*
X138212352Y-75980964D01*
X138212352Y-75980964D02*
X138331400Y-75980964D01*
X138331400Y-75980964D02*
X138402828Y-76016678D01*
X138402828Y-76016678D02*
X138450447Y-76088107D01*
X138450447Y-76088107D02*
X138474257Y-76159535D01*
X138474257Y-76159535D02*
X138498066Y-76302392D01*
X138498066Y-76302392D02*
X138498066Y-76409535D01*
X138498066Y-76409535D02*
X138474257Y-76552392D01*
X138474257Y-76552392D02*
X138450447Y-76623821D01*
X138450447Y-76623821D02*
X138402828Y-76695250D01*
X138402828Y-76695250D02*
X138331400Y-76730964D01*
X138331400Y-76730964D02*
X138212352Y-76730964D01*
X137447162Y-91578107D02*
X137613829Y-91578107D01*
X137685257Y-91970964D02*
X137447162Y-91970964D01*
X137447162Y-91970964D02*
X137447162Y-91220964D01*
X137447162Y-91220964D02*
X137685257Y-91220964D01*
X138113829Y-91220964D02*
X138018591Y-91220964D01*
X138018591Y-91220964D02*
X137970972Y-91256678D01*
X137970972Y-91256678D02*
X137947162Y-91292392D01*
X137947162Y-91292392D02*
X137899543Y-91399535D01*
X137899543Y-91399535D02*
X137875734Y-91542392D01*
X137875734Y-91542392D02*
X137875734Y-91828107D01*
X137875734Y-91828107D02*
X137899543Y-91899535D01*
X137899543Y-91899535D02*
X137923353Y-91935250D01*
X137923353Y-91935250D02*
X137970972Y-91970964D01*
X137970972Y-91970964D02*
X138066210Y-91970964D01*
X138066210Y-91970964D02*
X138113829Y-91935250D01*
X138113829Y-91935250D02*
X138137638Y-91899535D01*
X138137638Y-91899535D02*
X138161448Y-91828107D01*
X138161448Y-91828107D02*
X138161448Y-91649535D01*
X138161448Y-91649535D02*
X138137638Y-91578107D01*
X138137638Y-91578107D02*
X138113829Y-91542392D01*
X138113829Y-91542392D02*
X138066210Y-91506678D01*
X138066210Y-91506678D02*
X137970972Y-91506678D01*
X137970972Y-91506678D02*
X137923353Y-91542392D01*
X137923353Y-91542392D02*
X137899543Y-91578107D01*
X137899543Y-91578107D02*
X137875734Y-91649535D01*
X137386947Y-73476678D02*
X137339328Y-73440964D01*
X137339328Y-73440964D02*
X137267899Y-73440964D01*
X137267899Y-73440964D02*
X137196471Y-73476678D01*
X137196471Y-73476678D02*
X137148852Y-73548107D01*
X137148852Y-73548107D02*
X137125042Y-73619535D01*
X137125042Y-73619535D02*
X137101233Y-73762392D01*
X137101233Y-73762392D02*
X137101233Y-73869535D01*
X137101233Y-73869535D02*
X137125042Y-74012392D01*
X137125042Y-74012392D02*
X137148852Y-74083821D01*
X137148852Y-74083821D02*
X137196471Y-74155250D01*
X137196471Y-74155250D02*
X137267899Y-74190964D01*
X137267899Y-74190964D02*
X137315518Y-74190964D01*
X137315518Y-74190964D02*
X137386947Y-74155250D01*
X137386947Y-74155250D02*
X137410756Y-74119535D01*
X137410756Y-74119535D02*
X137410756Y-73869535D01*
X137410756Y-73869535D02*
X137315518Y-73869535D01*
X137625042Y-74190964D02*
X137625042Y-73440964D01*
X137625042Y-73440964D02*
X137910756Y-74190964D01*
X137910756Y-74190964D02*
X137910756Y-73440964D01*
X138148852Y-74190964D02*
X138148852Y-73440964D01*
X138148852Y-73440964D02*
X138267900Y-73440964D01*
X138267900Y-73440964D02*
X138339328Y-73476678D01*
X138339328Y-73476678D02*
X138386947Y-73548107D01*
X138386947Y-73548107D02*
X138410757Y-73619535D01*
X138410757Y-73619535D02*
X138434566Y-73762392D01*
X138434566Y-73762392D02*
X138434566Y-73869535D01*
X138434566Y-73869535D02*
X138410757Y-74012392D01*
X138410757Y-74012392D02*
X138386947Y-74083821D01*
X138386947Y-74083821D02*
X138339328Y-74155250D01*
X138339328Y-74155250D02*
X138267900Y-74190964D01*
X138267900Y-74190964D02*
X138148852Y-74190964D01*
X152734090Y-74190964D02*
X152567424Y-73833821D01*
X152448376Y-74190964D02*
X152448376Y-73440964D01*
X152448376Y-73440964D02*
X152638852Y-73440964D01*
X152638852Y-73440964D02*
X152686471Y-73476678D01*
X152686471Y-73476678D02*
X152710281Y-73512392D01*
X152710281Y-73512392D02*
X152734090Y-73583821D01*
X152734090Y-73583821D02*
X152734090Y-73690964D01*
X152734090Y-73690964D02*
X152710281Y-73762392D01*
X152710281Y-73762392D02*
X152686471Y-73798107D01*
X152686471Y-73798107D02*
X152638852Y-73833821D01*
X152638852Y-73833821D02*
X152448376Y-73833821D01*
X152924567Y-74155250D02*
X152995995Y-74190964D01*
X152995995Y-74190964D02*
X153115043Y-74190964D01*
X153115043Y-74190964D02*
X153162662Y-74155250D01*
X153162662Y-74155250D02*
X153186471Y-74119535D01*
X153186471Y-74119535D02*
X153210281Y-74048107D01*
X153210281Y-74048107D02*
X153210281Y-73976678D01*
X153210281Y-73976678D02*
X153186471Y-73905250D01*
X153186471Y-73905250D02*
X153162662Y-73869535D01*
X153162662Y-73869535D02*
X153115043Y-73833821D01*
X153115043Y-73833821D02*
X153019805Y-73798107D01*
X153019805Y-73798107D02*
X152972186Y-73762392D01*
X152972186Y-73762392D02*
X152948376Y-73726678D01*
X152948376Y-73726678D02*
X152924567Y-73655250D01*
X152924567Y-73655250D02*
X152924567Y-73583821D01*
X152924567Y-73583821D02*
X152948376Y-73512392D01*
X152948376Y-73512392D02*
X152972186Y-73476678D01*
X152972186Y-73476678D02*
X153019805Y-73440964D01*
X153019805Y-73440964D02*
X153138852Y-73440964D01*
X153138852Y-73440964D02*
X153210281Y-73476678D01*
X153353138Y-73440964D02*
X153638852Y-73440964D01*
X153495995Y-74190964D02*
X153495995Y-73440964D01*
X137423352Y-69047464D02*
X137423352Y-68297464D01*
X137423352Y-68297464D02*
X137542400Y-68297464D01*
X137542400Y-68297464D02*
X137613828Y-68333178D01*
X137613828Y-68333178D02*
X137661447Y-68404607D01*
X137661447Y-68404607D02*
X137685257Y-68476035D01*
X137685257Y-68476035D02*
X137709066Y-68618892D01*
X137709066Y-68618892D02*
X137709066Y-68726035D01*
X137709066Y-68726035D02*
X137685257Y-68868892D01*
X137685257Y-68868892D02*
X137661447Y-68940321D01*
X137661447Y-68940321D02*
X137613828Y-69011750D01*
X137613828Y-69011750D02*
X137542400Y-69047464D01*
X137542400Y-69047464D02*
X137423352Y-69047464D01*
X137875733Y-68297464D02*
X138185257Y-68297464D01*
X138185257Y-68297464D02*
X138018590Y-68583178D01*
X138018590Y-68583178D02*
X138090019Y-68583178D01*
X138090019Y-68583178D02*
X138137638Y-68618892D01*
X138137638Y-68618892D02*
X138161447Y-68654607D01*
X138161447Y-68654607D02*
X138185257Y-68726035D01*
X138185257Y-68726035D02*
X138185257Y-68904607D01*
X138185257Y-68904607D02*
X138161447Y-68976035D01*
X138161447Y-68976035D02*
X138137638Y-69011750D01*
X138137638Y-69011750D02*
X138090019Y-69047464D01*
X138090019Y-69047464D02*
X137947162Y-69047464D01*
X137947162Y-69047464D02*
X137899543Y-69011750D01*
X137899543Y-69011750D02*
X137875733Y-68976035D01*
X137313829Y-66114607D02*
X137385257Y-66150321D01*
X137385257Y-66150321D02*
X137409067Y-66186035D01*
X137409067Y-66186035D02*
X137432876Y-66257464D01*
X137432876Y-66257464D02*
X137432876Y-66364607D01*
X137432876Y-66364607D02*
X137409067Y-66436035D01*
X137409067Y-66436035D02*
X137385257Y-66471750D01*
X137385257Y-66471750D02*
X137337638Y-66507464D01*
X137337638Y-66507464D02*
X137147162Y-66507464D01*
X137147162Y-66507464D02*
X137147162Y-65757464D01*
X137147162Y-65757464D02*
X137313829Y-65757464D01*
X137313829Y-65757464D02*
X137361448Y-65793178D01*
X137361448Y-65793178D02*
X137385257Y-65828892D01*
X137385257Y-65828892D02*
X137409067Y-65900321D01*
X137409067Y-65900321D02*
X137409067Y-65971750D01*
X137409067Y-65971750D02*
X137385257Y-66043178D01*
X137385257Y-66043178D02*
X137361448Y-66078892D01*
X137361448Y-66078892D02*
X137313829Y-66114607D01*
X137313829Y-66114607D02*
X137147162Y-66114607D01*
X137623353Y-66293178D02*
X137861448Y-66293178D01*
X137575734Y-66507464D02*
X137742400Y-65757464D01*
X137742400Y-65757464D02*
X137909067Y-66507464D01*
X138004305Y-65757464D02*
X138290019Y-65757464D01*
X138147162Y-66507464D02*
X138147162Y-65757464D01*
X138456685Y-66221750D02*
X138837638Y-66221750D01*
X137423352Y-84325464D02*
X137423352Y-83575464D01*
X137423352Y-83575464D02*
X137542400Y-83575464D01*
X137542400Y-83575464D02*
X137613828Y-83611178D01*
X137613828Y-83611178D02*
X137661447Y-83682607D01*
X137661447Y-83682607D02*
X137685257Y-83754035D01*
X137685257Y-83754035D02*
X137709066Y-83896892D01*
X137709066Y-83896892D02*
X137709066Y-84004035D01*
X137709066Y-84004035D02*
X137685257Y-84146892D01*
X137685257Y-84146892D02*
X137661447Y-84218321D01*
X137661447Y-84218321D02*
X137613828Y-84289750D01*
X137613828Y-84289750D02*
X137542400Y-84325464D01*
X137542400Y-84325464D02*
X137423352Y-84325464D01*
X138137638Y-83825464D02*
X138137638Y-84325464D01*
X138018590Y-83539750D02*
X137899543Y-84075464D01*
X137899543Y-84075464D02*
X138209066Y-84075464D01*
X137590019Y-96658107D02*
X137661447Y-96693821D01*
X137661447Y-96693821D02*
X137685257Y-96729535D01*
X137685257Y-96729535D02*
X137709066Y-96800964D01*
X137709066Y-96800964D02*
X137709066Y-96908107D01*
X137709066Y-96908107D02*
X137685257Y-96979535D01*
X137685257Y-96979535D02*
X137661447Y-97015250D01*
X137661447Y-97015250D02*
X137613828Y-97050964D01*
X137613828Y-97050964D02*
X137423352Y-97050964D01*
X137423352Y-97050964D02*
X137423352Y-96300964D01*
X137423352Y-96300964D02*
X137590019Y-96300964D01*
X137590019Y-96300964D02*
X137637638Y-96336678D01*
X137637638Y-96336678D02*
X137661447Y-96372392D01*
X137661447Y-96372392D02*
X137685257Y-96443821D01*
X137685257Y-96443821D02*
X137685257Y-96515250D01*
X137685257Y-96515250D02*
X137661447Y-96586678D01*
X137661447Y-96586678D02*
X137637638Y-96622392D01*
X137637638Y-96622392D02*
X137590019Y-96658107D01*
X137590019Y-96658107D02*
X137423352Y-96658107D01*
X138161447Y-96300964D02*
X137923352Y-96300964D01*
X137923352Y-96300964D02*
X137899543Y-96658107D01*
X137899543Y-96658107D02*
X137923352Y-96622392D01*
X137923352Y-96622392D02*
X137970971Y-96586678D01*
X137970971Y-96586678D02*
X138090019Y-96586678D01*
X138090019Y-96586678D02*
X138137638Y-96622392D01*
X138137638Y-96622392D02*
X138161447Y-96658107D01*
X138161447Y-96658107D02*
X138185257Y-96729535D01*
X138185257Y-96729535D02*
X138185257Y-96908107D01*
X138185257Y-96908107D02*
X138161447Y-96979535D01*
X138161447Y-96979535D02*
X138137638Y-97015250D01*
X138137638Y-97015250D02*
X138090019Y-97050964D01*
X138090019Y-97050964D02*
X137970971Y-97050964D01*
X137970971Y-97050964D02*
X137923352Y-97015250D01*
X137923352Y-97015250D02*
X137899543Y-96979535D01*
X137462352Y-79207464D02*
X137462352Y-78457464D01*
X137462352Y-78457464D02*
X137581400Y-78457464D01*
X137581400Y-78457464D02*
X137652828Y-78493178D01*
X137652828Y-78493178D02*
X137700447Y-78564607D01*
X137700447Y-78564607D02*
X137724257Y-78636035D01*
X137724257Y-78636035D02*
X137748066Y-78778892D01*
X137748066Y-78778892D02*
X137748066Y-78886035D01*
X137748066Y-78886035D02*
X137724257Y-79028892D01*
X137724257Y-79028892D02*
X137700447Y-79100321D01*
X137700447Y-79100321D02*
X137652828Y-79171750D01*
X137652828Y-79171750D02*
X137581400Y-79207464D01*
X137581400Y-79207464D02*
X137462352Y-79207464D01*
X138224257Y-79207464D02*
X137938543Y-79207464D01*
X138081400Y-79207464D02*
X138081400Y-78457464D01*
X138081400Y-78457464D02*
X138033781Y-78564607D01*
X138033781Y-78564607D02*
X137986162Y-78636035D01*
X137986162Y-78636035D02*
X137938543Y-78671750D01*
X152626947Y-70873178D02*
X152579328Y-70837464D01*
X152579328Y-70837464D02*
X152507899Y-70837464D01*
X152507899Y-70837464D02*
X152436471Y-70873178D01*
X152436471Y-70873178D02*
X152388852Y-70944607D01*
X152388852Y-70944607D02*
X152365042Y-71016035D01*
X152365042Y-71016035D02*
X152341233Y-71158892D01*
X152341233Y-71158892D02*
X152341233Y-71266035D01*
X152341233Y-71266035D02*
X152365042Y-71408892D01*
X152365042Y-71408892D02*
X152388852Y-71480321D01*
X152388852Y-71480321D02*
X152436471Y-71551750D01*
X152436471Y-71551750D02*
X152507899Y-71587464D01*
X152507899Y-71587464D02*
X152555518Y-71587464D01*
X152555518Y-71587464D02*
X152626947Y-71551750D01*
X152626947Y-71551750D02*
X152650756Y-71516035D01*
X152650756Y-71516035D02*
X152650756Y-71266035D01*
X152650756Y-71266035D02*
X152555518Y-71266035D01*
X152865042Y-71587464D02*
X152865042Y-70837464D01*
X152865042Y-70837464D02*
X153150756Y-71587464D01*
X153150756Y-71587464D02*
X153150756Y-70837464D01*
X153388852Y-71587464D02*
X153388852Y-70837464D01*
X153388852Y-70837464D02*
X153507900Y-70837464D01*
X153507900Y-70837464D02*
X153579328Y-70873178D01*
X153579328Y-70873178D02*
X153626947Y-70944607D01*
X153626947Y-70944607D02*
X153650757Y-71016035D01*
X153650757Y-71016035D02*
X153674566Y-71158892D01*
X153674566Y-71158892D02*
X153674566Y-71266035D01*
X153674566Y-71266035D02*
X153650757Y-71408892D01*
X153650757Y-71408892D02*
X153626947Y-71480321D01*
X153626947Y-71480321D02*
X153579328Y-71551750D01*
X153579328Y-71551750D02*
X153507900Y-71587464D01*
X153507900Y-71587464D02*
X153388852Y-71587464D01*
X152341234Y-75917464D02*
X152507900Y-76667464D01*
X152507900Y-76667464D02*
X152674567Y-75917464D01*
X153126947Y-76596035D02*
X153103138Y-76631750D01*
X153103138Y-76631750D02*
X153031709Y-76667464D01*
X153031709Y-76667464D02*
X152984090Y-76667464D01*
X152984090Y-76667464D02*
X152912662Y-76631750D01*
X152912662Y-76631750D02*
X152865043Y-76560321D01*
X152865043Y-76560321D02*
X152841233Y-76488892D01*
X152841233Y-76488892D02*
X152817424Y-76346035D01*
X152817424Y-76346035D02*
X152817424Y-76238892D01*
X152817424Y-76238892D02*
X152841233Y-76096035D01*
X152841233Y-76096035D02*
X152865043Y-76024607D01*
X152865043Y-76024607D02*
X152912662Y-75953178D01*
X152912662Y-75953178D02*
X152984090Y-75917464D01*
X152984090Y-75917464D02*
X153031709Y-75917464D01*
X153031709Y-75917464D02*
X153103138Y-75953178D01*
X153103138Y-75953178D02*
X153126947Y-75988892D01*
X153626947Y-76596035D02*
X153603138Y-76631750D01*
X153603138Y-76631750D02*
X153531709Y-76667464D01*
X153531709Y-76667464D02*
X153484090Y-76667464D01*
X153484090Y-76667464D02*
X153412662Y-76631750D01*
X153412662Y-76631750D02*
X153365043Y-76560321D01*
X153365043Y-76560321D02*
X153341233Y-76488892D01*
X153341233Y-76488892D02*
X153317424Y-76346035D01*
X153317424Y-76346035D02*
X153317424Y-76238892D01*
X153317424Y-76238892D02*
X153341233Y-76096035D01*
X153341233Y-76096035D02*
X153365043Y-76024607D01*
X153365043Y-76024607D02*
X153412662Y-75953178D01*
X153412662Y-75953178D02*
X153484090Y-75917464D01*
X153484090Y-75917464D02*
X153531709Y-75917464D01*
X153531709Y-75917464D02*
X153603138Y-75953178D01*
X153603138Y-75953178D02*
X153626947Y-75988892D01*
X152725734Y-78832607D02*
X152559067Y-78832607D01*
X152559067Y-79225464D02*
X152559067Y-78475464D01*
X152559067Y-78475464D02*
X152797162Y-78475464D01*
X153201924Y-78725464D02*
X153201924Y-79225464D01*
X153082876Y-78439750D02*
X152963829Y-78975464D01*
X152963829Y-78975464D02*
X153273352Y-78975464D01*
X152662661Y-69047464D02*
X152495995Y-68690321D01*
X152376947Y-69047464D02*
X152376947Y-68297464D01*
X152376947Y-68297464D02*
X152567423Y-68297464D01*
X152567423Y-68297464D02*
X152615042Y-68333178D01*
X152615042Y-68333178D02*
X152638852Y-68368892D01*
X152638852Y-68368892D02*
X152662661Y-68440321D01*
X152662661Y-68440321D02*
X152662661Y-68547464D01*
X152662661Y-68547464D02*
X152638852Y-68618892D01*
X152638852Y-68618892D02*
X152615042Y-68654607D01*
X152615042Y-68654607D02*
X152567423Y-68690321D01*
X152567423Y-68690321D02*
X152376947Y-68690321D01*
X152853138Y-68833178D02*
X153091233Y-68833178D01*
X152805519Y-69047464D02*
X152972185Y-68297464D01*
X152972185Y-68297464D02*
X153138852Y-69047464D01*
X153257899Y-68297464D02*
X153376947Y-69047464D01*
X153376947Y-69047464D02*
X153472185Y-68511750D01*
X153472185Y-68511750D02*
X153567423Y-69047464D01*
X153567423Y-69047464D02*
X153686471Y-68297464D01*
X152725734Y-86482607D02*
X152559067Y-86482607D01*
X152559067Y-86875464D02*
X152559067Y-86125464D01*
X152559067Y-86125464D02*
X152797162Y-86125464D01*
X152940019Y-86125464D02*
X153273352Y-86125464D01*
X153273352Y-86125464D02*
X153059067Y-86875464D01*
X152740019Y-91578107D02*
X152811447Y-91613821D01*
X152811447Y-91613821D02*
X152835257Y-91649535D01*
X152835257Y-91649535D02*
X152859066Y-91720964D01*
X152859066Y-91720964D02*
X152859066Y-91828107D01*
X152859066Y-91828107D02*
X152835257Y-91899535D01*
X152835257Y-91899535D02*
X152811447Y-91935250D01*
X152811447Y-91935250D02*
X152763828Y-91970964D01*
X152763828Y-91970964D02*
X152573352Y-91970964D01*
X152573352Y-91970964D02*
X152573352Y-91220964D01*
X152573352Y-91220964D02*
X152740019Y-91220964D01*
X152740019Y-91220964D02*
X152787638Y-91256678D01*
X152787638Y-91256678D02*
X152811447Y-91292392D01*
X152811447Y-91292392D02*
X152835257Y-91363821D01*
X152835257Y-91363821D02*
X152835257Y-91435250D01*
X152835257Y-91435250D02*
X152811447Y-91506678D01*
X152811447Y-91506678D02*
X152787638Y-91542392D01*
X152787638Y-91542392D02*
X152740019Y-91578107D01*
X152740019Y-91578107D02*
X152573352Y-91578107D01*
X153025733Y-91220964D02*
X153335257Y-91220964D01*
X153335257Y-91220964D02*
X153168590Y-91506678D01*
X153168590Y-91506678D02*
X153240019Y-91506678D01*
X153240019Y-91506678D02*
X153287638Y-91542392D01*
X153287638Y-91542392D02*
X153311447Y-91578107D01*
X153311447Y-91578107D02*
X153335257Y-91649535D01*
X153335257Y-91649535D02*
X153335257Y-91828107D01*
X153335257Y-91828107D02*
X153311447Y-91899535D01*
X153311447Y-91899535D02*
X153287638Y-91935250D01*
X153287638Y-91935250D02*
X153240019Y-91970964D01*
X153240019Y-91970964D02*
X153097162Y-91970964D01*
X153097162Y-91970964D02*
X153049543Y-91935250D01*
X153049543Y-91935250D02*
X153025733Y-91899535D01*
D10*
X142199600Y-66116009D02*
X142342457Y-66163628D01*
X142342457Y-66163628D02*
X142390076Y-66211247D01*
X142390076Y-66211247D02*
X142437695Y-66306485D01*
X142437695Y-66306485D02*
X142437695Y-66449342D01*
X142437695Y-66449342D02*
X142390076Y-66544580D01*
X142390076Y-66544580D02*
X142342457Y-66592200D01*
X142342457Y-66592200D02*
X142247219Y-66639819D01*
X142247219Y-66639819D02*
X141866267Y-66639819D01*
X141866267Y-66639819D02*
X141866267Y-65639819D01*
X141866267Y-65639819D02*
X142199600Y-65639819D01*
X142199600Y-65639819D02*
X142294838Y-65687438D01*
X142294838Y-65687438D02*
X142342457Y-65735057D01*
X142342457Y-65735057D02*
X142390076Y-65830295D01*
X142390076Y-65830295D02*
X142390076Y-65925533D01*
X142390076Y-65925533D02*
X142342457Y-66020771D01*
X142342457Y-66020771D02*
X142294838Y-66068390D01*
X142294838Y-66068390D02*
X142199600Y-66116009D01*
X142199600Y-66116009D02*
X141866267Y-66116009D01*
X142866267Y-66639819D02*
X142866267Y-65639819D01*
X142866267Y-65639819D02*
X143199600Y-66354104D01*
X143199600Y-66354104D02*
X143532933Y-65639819D01*
X143532933Y-65639819D02*
X143532933Y-66639819D01*
X144009124Y-66639819D02*
X144009124Y-65639819D01*
X144009124Y-65639819D02*
X144390076Y-65639819D01*
X144390076Y-65639819D02*
X144485314Y-65687438D01*
X144485314Y-65687438D02*
X144532933Y-65735057D01*
X144532933Y-65735057D02*
X144580552Y-65830295D01*
X144580552Y-65830295D02*
X144580552Y-65973152D01*
X144580552Y-65973152D02*
X144532933Y-66068390D01*
X144532933Y-66068390D02*
X144485314Y-66116009D01*
X144485314Y-66116009D02*
X144390076Y-66163628D01*
X144390076Y-66163628D02*
X144009124Y-66163628D01*
D11*
X152529329Y-66114607D02*
X152600757Y-66150321D01*
X152600757Y-66150321D02*
X152624567Y-66186035D01*
X152624567Y-66186035D02*
X152648376Y-66257464D01*
X152648376Y-66257464D02*
X152648376Y-66364607D01*
X152648376Y-66364607D02*
X152624567Y-66436035D01*
X152624567Y-66436035D02*
X152600757Y-66471750D01*
X152600757Y-66471750D02*
X152553138Y-66507464D01*
X152553138Y-66507464D02*
X152362662Y-66507464D01*
X152362662Y-66507464D02*
X152362662Y-65757464D01*
X152362662Y-65757464D02*
X152529329Y-65757464D01*
X152529329Y-65757464D02*
X152576948Y-65793178D01*
X152576948Y-65793178D02*
X152600757Y-65828892D01*
X152600757Y-65828892D02*
X152624567Y-65900321D01*
X152624567Y-65900321D02*
X152624567Y-65971750D01*
X152624567Y-65971750D02*
X152600757Y-66043178D01*
X152600757Y-66043178D02*
X152576948Y-66078892D01*
X152576948Y-66078892D02*
X152529329Y-66114607D01*
X152529329Y-66114607D02*
X152362662Y-66114607D01*
X152838853Y-66293178D02*
X153076948Y-66293178D01*
X152791234Y-66507464D02*
X152957900Y-65757464D01*
X152957900Y-65757464D02*
X153124567Y-66507464D01*
X153219805Y-65757464D02*
X153505519Y-65757464D01*
X153362662Y-66507464D02*
X153362662Y-65757464D01*
X153672185Y-66221750D02*
X154053138Y-66221750D01*
X153862661Y-66507464D02*
X153862661Y-65936035D01*
X137473352Y-71575464D02*
X137473352Y-70825464D01*
X137473352Y-70825464D02*
X137592400Y-70825464D01*
X137592400Y-70825464D02*
X137663828Y-70861178D01*
X137663828Y-70861178D02*
X137711447Y-70932607D01*
X137711447Y-70932607D02*
X137735257Y-71004035D01*
X137735257Y-71004035D02*
X137759066Y-71146892D01*
X137759066Y-71146892D02*
X137759066Y-71254035D01*
X137759066Y-71254035D02*
X137735257Y-71396892D01*
X137735257Y-71396892D02*
X137711447Y-71468321D01*
X137711447Y-71468321D02*
X137663828Y-71539750D01*
X137663828Y-71539750D02*
X137592400Y-71575464D01*
X137592400Y-71575464D02*
X137473352Y-71575464D01*
X137949543Y-70896892D02*
X137973352Y-70861178D01*
X137973352Y-70861178D02*
X138020971Y-70825464D01*
X138020971Y-70825464D02*
X138140019Y-70825464D01*
X138140019Y-70825464D02*
X138187638Y-70861178D01*
X138187638Y-70861178D02*
X138211447Y-70896892D01*
X138211447Y-70896892D02*
X138235257Y-70968321D01*
X138235257Y-70968321D02*
X138235257Y-71039750D01*
X138235257Y-71039750D02*
X138211447Y-71146892D01*
X138211447Y-71146892D02*
X137925733Y-71575464D01*
X137925733Y-71575464D02*
X138235257Y-71575464D01*
X137590019Y-94054607D02*
X137661447Y-94090321D01*
X137661447Y-94090321D02*
X137685257Y-94126035D01*
X137685257Y-94126035D02*
X137709066Y-94197464D01*
X137709066Y-94197464D02*
X137709066Y-94304607D01*
X137709066Y-94304607D02*
X137685257Y-94376035D01*
X137685257Y-94376035D02*
X137661447Y-94411750D01*
X137661447Y-94411750D02*
X137613828Y-94447464D01*
X137613828Y-94447464D02*
X137423352Y-94447464D01*
X137423352Y-94447464D02*
X137423352Y-93697464D01*
X137423352Y-93697464D02*
X137590019Y-93697464D01*
X137590019Y-93697464D02*
X137637638Y-93733178D01*
X137637638Y-93733178D02*
X137661447Y-93768892D01*
X137661447Y-93768892D02*
X137685257Y-93840321D01*
X137685257Y-93840321D02*
X137685257Y-93911750D01*
X137685257Y-93911750D02*
X137661447Y-93983178D01*
X137661447Y-93983178D02*
X137637638Y-94018892D01*
X137637638Y-94018892D02*
X137590019Y-94054607D01*
X137590019Y-94054607D02*
X137423352Y-94054607D01*
X138137638Y-93947464D02*
X138137638Y-94447464D01*
X138018590Y-93661750D02*
X137899543Y-94197464D01*
X137899543Y-94197464D02*
X138209066Y-94197464D01*
X152740019Y-96632607D02*
X152811447Y-96668321D01*
X152811447Y-96668321D02*
X152835257Y-96704035D01*
X152835257Y-96704035D02*
X152859066Y-96775464D01*
X152859066Y-96775464D02*
X152859066Y-96882607D01*
X152859066Y-96882607D02*
X152835257Y-96954035D01*
X152835257Y-96954035D02*
X152811447Y-96989750D01*
X152811447Y-96989750D02*
X152763828Y-97025464D01*
X152763828Y-97025464D02*
X152573352Y-97025464D01*
X152573352Y-97025464D02*
X152573352Y-96275464D01*
X152573352Y-96275464D02*
X152740019Y-96275464D01*
X152740019Y-96275464D02*
X152787638Y-96311178D01*
X152787638Y-96311178D02*
X152811447Y-96346892D01*
X152811447Y-96346892D02*
X152835257Y-96418321D01*
X152835257Y-96418321D02*
X152835257Y-96489750D01*
X152835257Y-96489750D02*
X152811447Y-96561178D01*
X152811447Y-96561178D02*
X152787638Y-96596892D01*
X152787638Y-96596892D02*
X152740019Y-96632607D01*
X152740019Y-96632607D02*
X152573352Y-96632607D01*
X153287638Y-96275464D02*
X153192400Y-96275464D01*
X153192400Y-96275464D02*
X153144781Y-96311178D01*
X153144781Y-96311178D02*
X153120971Y-96346892D01*
X153120971Y-96346892D02*
X153073352Y-96454035D01*
X153073352Y-96454035D02*
X153049543Y-96596892D01*
X153049543Y-96596892D02*
X153049543Y-96882607D01*
X153049543Y-96882607D02*
X153073352Y-96954035D01*
X153073352Y-96954035D02*
X153097162Y-96989750D01*
X153097162Y-96989750D02*
X153144781Y-97025464D01*
X153144781Y-97025464D02*
X153240019Y-97025464D01*
X153240019Y-97025464D02*
X153287638Y-96989750D01*
X153287638Y-96989750D02*
X153311447Y-96954035D01*
X153311447Y-96954035D02*
X153335257Y-96882607D01*
X153335257Y-96882607D02*
X153335257Y-96704035D01*
X153335257Y-96704035D02*
X153311447Y-96632607D01*
X153311447Y-96632607D02*
X153287638Y-96596892D01*
X153287638Y-96596892D02*
X153240019Y-96561178D01*
X153240019Y-96561178D02*
X153144781Y-96561178D01*
X153144781Y-96561178D02*
X153097162Y-96596892D01*
X153097162Y-96596892D02*
X153073352Y-96632607D01*
X153073352Y-96632607D02*
X153049543Y-96704035D01*
X152740019Y-94082607D02*
X152811447Y-94118321D01*
X152811447Y-94118321D02*
X152835257Y-94154035D01*
X152835257Y-94154035D02*
X152859066Y-94225464D01*
X152859066Y-94225464D02*
X152859066Y-94332607D01*
X152859066Y-94332607D02*
X152835257Y-94404035D01*
X152835257Y-94404035D02*
X152811447Y-94439750D01*
X152811447Y-94439750D02*
X152763828Y-94475464D01*
X152763828Y-94475464D02*
X152573352Y-94475464D01*
X152573352Y-94475464D02*
X152573352Y-93725464D01*
X152573352Y-93725464D02*
X152740019Y-93725464D01*
X152740019Y-93725464D02*
X152787638Y-93761178D01*
X152787638Y-93761178D02*
X152811447Y-93796892D01*
X152811447Y-93796892D02*
X152835257Y-93868321D01*
X152835257Y-93868321D02*
X152835257Y-93939750D01*
X152835257Y-93939750D02*
X152811447Y-94011178D01*
X152811447Y-94011178D02*
X152787638Y-94046892D01*
X152787638Y-94046892D02*
X152740019Y-94082607D01*
X152740019Y-94082607D02*
X152573352Y-94082607D01*
X153049543Y-93796892D02*
X153073352Y-93761178D01*
X153073352Y-93761178D02*
X153120971Y-93725464D01*
X153120971Y-93725464D02*
X153240019Y-93725464D01*
X153240019Y-93725464D02*
X153287638Y-93761178D01*
X153287638Y-93761178D02*
X153311447Y-93796892D01*
X153311447Y-93796892D02*
X153335257Y-93868321D01*
X153335257Y-93868321D02*
X153335257Y-93939750D01*
X153335257Y-93939750D02*
X153311447Y-94046892D01*
X153311447Y-94046892D02*
X153025733Y-94475464D01*
X153025733Y-94475464D02*
X153335257Y-94475464D01*
X152740019Y-88982607D02*
X152811447Y-89018321D01*
X152811447Y-89018321D02*
X152835257Y-89054035D01*
X152835257Y-89054035D02*
X152859066Y-89125464D01*
X152859066Y-89125464D02*
X152859066Y-89232607D01*
X152859066Y-89232607D02*
X152835257Y-89304035D01*
X152835257Y-89304035D02*
X152811447Y-89339750D01*
X152811447Y-89339750D02*
X152763828Y-89375464D01*
X152763828Y-89375464D02*
X152573352Y-89375464D01*
X152573352Y-89375464D02*
X152573352Y-88625464D01*
X152573352Y-88625464D02*
X152740019Y-88625464D01*
X152740019Y-88625464D02*
X152787638Y-88661178D01*
X152787638Y-88661178D02*
X152811447Y-88696892D01*
X152811447Y-88696892D02*
X152835257Y-88768321D01*
X152835257Y-88768321D02*
X152835257Y-88839750D01*
X152835257Y-88839750D02*
X152811447Y-88911178D01*
X152811447Y-88911178D02*
X152787638Y-88946892D01*
X152787638Y-88946892D02*
X152740019Y-88982607D01*
X152740019Y-88982607D02*
X152573352Y-88982607D01*
X153335257Y-89375464D02*
X153049543Y-89375464D01*
X153192400Y-89375464D02*
X153192400Y-88625464D01*
X153192400Y-88625464D02*
X153144781Y-88732607D01*
X153144781Y-88732607D02*
X153097162Y-88804035D01*
X153097162Y-88804035D02*
X153049543Y-88839750D01*
X152725734Y-83894607D02*
X152559067Y-83894607D01*
X152559067Y-84287464D02*
X152559067Y-83537464D01*
X152559067Y-83537464D02*
X152797162Y-83537464D01*
X153201924Y-83537464D02*
X153106686Y-83537464D01*
X153106686Y-83537464D02*
X153059067Y-83573178D01*
X153059067Y-83573178D02*
X153035257Y-83608892D01*
X153035257Y-83608892D02*
X152987638Y-83716035D01*
X152987638Y-83716035D02*
X152963829Y-83858892D01*
X152963829Y-83858892D02*
X152963829Y-84144607D01*
X152963829Y-84144607D02*
X152987638Y-84216035D01*
X152987638Y-84216035D02*
X153011448Y-84251750D01*
X153011448Y-84251750D02*
X153059067Y-84287464D01*
X153059067Y-84287464D02*
X153154305Y-84287464D01*
X153154305Y-84287464D02*
X153201924Y-84251750D01*
X153201924Y-84251750D02*
X153225733Y-84216035D01*
X153225733Y-84216035D02*
X153249543Y-84144607D01*
X153249543Y-84144607D02*
X153249543Y-83966035D01*
X153249543Y-83966035D02*
X153225733Y-83894607D01*
X153225733Y-83894607D02*
X153201924Y-83858892D01*
X153201924Y-83858892D02*
X153154305Y-83823178D01*
X153154305Y-83823178D02*
X153059067Y-83823178D01*
X153059067Y-83823178D02*
X153011448Y-83858892D01*
X153011448Y-83858892D02*
X152987638Y-83894607D01*
X152987638Y-83894607D02*
X152963829Y-83966035D01*
X137462352Y-81747464D02*
X137462352Y-80997464D01*
X137462352Y-80997464D02*
X137581400Y-80997464D01*
X137581400Y-80997464D02*
X137652828Y-81033178D01*
X137652828Y-81033178D02*
X137700447Y-81104607D01*
X137700447Y-81104607D02*
X137724257Y-81176035D01*
X137724257Y-81176035D02*
X137748066Y-81318892D01*
X137748066Y-81318892D02*
X137748066Y-81426035D01*
X137748066Y-81426035D02*
X137724257Y-81568892D01*
X137724257Y-81568892D02*
X137700447Y-81640321D01*
X137700447Y-81640321D02*
X137652828Y-81711750D01*
X137652828Y-81711750D02*
X137581400Y-81747464D01*
X137581400Y-81747464D02*
X137462352Y-81747464D01*
X138057590Y-80997464D02*
X138105209Y-80997464D01*
X138105209Y-80997464D02*
X138152828Y-81033178D01*
X138152828Y-81033178D02*
X138176638Y-81068892D01*
X138176638Y-81068892D02*
X138200447Y-81140321D01*
X138200447Y-81140321D02*
X138224257Y-81283178D01*
X138224257Y-81283178D02*
X138224257Y-81461750D01*
X138224257Y-81461750D02*
X138200447Y-81604607D01*
X138200447Y-81604607D02*
X138176638Y-81676035D01*
X138176638Y-81676035D02*
X138152828Y-81711750D01*
X138152828Y-81711750D02*
X138105209Y-81747464D01*
X138105209Y-81747464D02*
X138057590Y-81747464D01*
X138057590Y-81747464D02*
X138009971Y-81711750D01*
X138009971Y-81711750D02*
X137986162Y-81676035D01*
X137986162Y-81676035D02*
X137962352Y-81604607D01*
X137962352Y-81604607D02*
X137938543Y-81461750D01*
X137938543Y-81461750D02*
X137938543Y-81283178D01*
X137938543Y-81283178D02*
X137962352Y-81140321D01*
X137962352Y-81140321D02*
X137986162Y-81068892D01*
X137986162Y-81068892D02*
X138009971Y-81033178D01*
X138009971Y-81033178D02*
X138057590Y-80997464D01*
X137659066Y-86756035D02*
X137635257Y-86791750D01*
X137635257Y-86791750D02*
X137563828Y-86827464D01*
X137563828Y-86827464D02*
X137516209Y-86827464D01*
X137516209Y-86827464D02*
X137444781Y-86791750D01*
X137444781Y-86791750D02*
X137397162Y-86720321D01*
X137397162Y-86720321D02*
X137373352Y-86648892D01*
X137373352Y-86648892D02*
X137349543Y-86506035D01*
X137349543Y-86506035D02*
X137349543Y-86398892D01*
X137349543Y-86398892D02*
X137373352Y-86256035D01*
X137373352Y-86256035D02*
X137397162Y-86184607D01*
X137397162Y-86184607D02*
X137444781Y-86113178D01*
X137444781Y-86113178D02*
X137516209Y-86077464D01*
X137516209Y-86077464D02*
X137563828Y-86077464D01*
X137563828Y-86077464D02*
X137635257Y-86113178D01*
X137635257Y-86113178D02*
X137659066Y-86148892D01*
X138087638Y-86077464D02*
X137992400Y-86077464D01*
X137992400Y-86077464D02*
X137944781Y-86113178D01*
X137944781Y-86113178D02*
X137920971Y-86148892D01*
X137920971Y-86148892D02*
X137873352Y-86256035D01*
X137873352Y-86256035D02*
X137849543Y-86398892D01*
X137849543Y-86398892D02*
X137849543Y-86684607D01*
X137849543Y-86684607D02*
X137873352Y-86756035D01*
X137873352Y-86756035D02*
X137897162Y-86791750D01*
X137897162Y-86791750D02*
X137944781Y-86827464D01*
X137944781Y-86827464D02*
X138040019Y-86827464D01*
X138040019Y-86827464D02*
X138087638Y-86791750D01*
X138087638Y-86791750D02*
X138111447Y-86756035D01*
X138111447Y-86756035D02*
X138135257Y-86684607D01*
X138135257Y-86684607D02*
X138135257Y-86506035D01*
X138135257Y-86506035D02*
X138111447Y-86434607D01*
X138111447Y-86434607D02*
X138087638Y-86398892D01*
X138087638Y-86398892D02*
X138040019Y-86363178D01*
X138040019Y-86363178D02*
X137944781Y-86363178D01*
X137944781Y-86363178D02*
X137897162Y-86398892D01*
X137897162Y-86398892D02*
X137873352Y-86434607D01*
X137873352Y-86434607D02*
X137849543Y-86506035D01*
X137423352Y-89375464D02*
X137423352Y-88625464D01*
X137423352Y-88625464D02*
X137542400Y-88625464D01*
X137542400Y-88625464D02*
X137613828Y-88661178D01*
X137613828Y-88661178D02*
X137661447Y-88732607D01*
X137661447Y-88732607D02*
X137685257Y-88804035D01*
X137685257Y-88804035D02*
X137709066Y-88946892D01*
X137709066Y-88946892D02*
X137709066Y-89054035D01*
X137709066Y-89054035D02*
X137685257Y-89196892D01*
X137685257Y-89196892D02*
X137661447Y-89268321D01*
X137661447Y-89268321D02*
X137613828Y-89339750D01*
X137613828Y-89339750D02*
X137542400Y-89375464D01*
X137542400Y-89375464D02*
X137423352Y-89375464D01*
X137875733Y-88625464D02*
X138209066Y-88625464D01*
X138209066Y-88625464D02*
X137994781Y-89375464D01*
X152675734Y-81354607D02*
X152509067Y-81354607D01*
X152509067Y-81747464D02*
X152509067Y-80997464D01*
X152509067Y-80997464D02*
X152747162Y-80997464D01*
X153175733Y-80997464D02*
X152937638Y-80997464D01*
X152937638Y-80997464D02*
X152913829Y-81354607D01*
X152913829Y-81354607D02*
X152937638Y-81318892D01*
X152937638Y-81318892D02*
X152985257Y-81283178D01*
X152985257Y-81283178D02*
X153104305Y-81283178D01*
X153104305Y-81283178D02*
X153151924Y-81318892D01*
X153151924Y-81318892D02*
X153175733Y-81354607D01*
X153175733Y-81354607D02*
X153199543Y-81426035D01*
X153199543Y-81426035D02*
X153199543Y-81604607D01*
X153199543Y-81604607D02*
X153175733Y-81676035D01*
X153175733Y-81676035D02*
X153151924Y-81711750D01*
X153151924Y-81711750D02*
X153104305Y-81747464D01*
X153104305Y-81747464D02*
X152985257Y-81747464D01*
X152985257Y-81747464D02*
X152937638Y-81711750D01*
X152937638Y-81711750D02*
X152913829Y-81676035D01*
D10*
X132786618Y-62938819D02*
X132453285Y-62462628D01*
X132215190Y-62938819D02*
X132215190Y-61938819D01*
X132215190Y-61938819D02*
X132596142Y-61938819D01*
X132596142Y-61938819D02*
X132691380Y-61986438D01*
X132691380Y-61986438D02*
X132738999Y-62034057D01*
X132738999Y-62034057D02*
X132786618Y-62129295D01*
X132786618Y-62129295D02*
X132786618Y-62272152D01*
X132786618Y-62272152D02*
X132738999Y-62367390D01*
X132738999Y-62367390D02*
X132691380Y-62415009D01*
X132691380Y-62415009D02*
X132596142Y-62462628D01*
X132596142Y-62462628D02*
X132215190Y-62462628D01*
X133215190Y-62415009D02*
X133548523Y-62415009D01*
X133691380Y-62938819D02*
X133215190Y-62938819D01*
X133215190Y-62938819D02*
X133215190Y-61938819D01*
X133215190Y-61938819D02*
X133691380Y-61938819D01*
X134072333Y-62891200D02*
X134215190Y-62938819D01*
X134215190Y-62938819D02*
X134453285Y-62938819D01*
X134453285Y-62938819D02*
X134548523Y-62891200D01*
X134548523Y-62891200D02*
X134596142Y-62843580D01*
X134596142Y-62843580D02*
X134643761Y-62748342D01*
X134643761Y-62748342D02*
X134643761Y-62653104D01*
X134643761Y-62653104D02*
X134596142Y-62557866D01*
X134596142Y-62557866D02*
X134548523Y-62510247D01*
X134548523Y-62510247D02*
X134453285Y-62462628D01*
X134453285Y-62462628D02*
X134262809Y-62415009D01*
X134262809Y-62415009D02*
X134167571Y-62367390D01*
X134167571Y-62367390D02*
X134119952Y-62319771D01*
X134119952Y-62319771D02*
X134072333Y-62224533D01*
X134072333Y-62224533D02*
X134072333Y-62129295D01*
X134072333Y-62129295D02*
X134119952Y-62034057D01*
X134119952Y-62034057D02*
X134167571Y-61986438D01*
X134167571Y-61986438D02*
X134262809Y-61938819D01*
X134262809Y-61938819D02*
X134500904Y-61938819D01*
X134500904Y-61938819D02*
X134643761Y-61986438D01*
X135072333Y-62415009D02*
X135405666Y-62415009D01*
X135548523Y-62938819D02*
X135072333Y-62938819D01*
X135072333Y-62938819D02*
X135072333Y-61938819D01*
X135072333Y-61938819D02*
X135548523Y-61938819D01*
X135834238Y-61938819D02*
X136405666Y-61938819D01*
X136119952Y-62938819D02*
X136119952Y-61938819D01*
D12*
X73263000Y-65802000D02*
X73263000Y-80502000D01*
X73263000Y-80502000D02*
X87963000Y-80502000D01*
X87963000Y-65802000D02*
X73263000Y-65802000D01*
X87963000Y-80502000D02*
X87963000Y-65802000D01*
X111569000Y-84938200D02*
X111569000Y-99638200D01*
X111569000Y-99638200D02*
X126269000Y-99638200D01*
X126269000Y-84938200D02*
X111569000Y-84938200D01*
X126269000Y-99638200D02*
X126269000Y-84938200D01*
X110675599Y-78206044D02*
X110891911Y-77540304D01*
X112035274Y-74021395D02*
X115588969Y-63084245D01*
X123990390Y-82532282D02*
X110675599Y-78206044D01*
X128903760Y-67410483D02*
X123990390Y-82532282D01*
D13*
X128981000Y-106910000D02*
X132181000Y-106910000D01*
X132181000Y-106910000D02*
X132181000Y-105690000D01*
X132181000Y-116610000D02*
X128981000Y-116610000D01*
X132181000Y-117840000D02*
X132181000Y-116610000D01*
X134911000Y-103810000D02*
X135181000Y-103810000D01*
X135181000Y-100660000D02*
X144981000Y-100660000D01*
X135181000Y-103810000D02*
X135181000Y-100660000D01*
X136081000Y-119710000D02*
X134961000Y-119710000D01*
X136081000Y-121260000D02*
X136081000Y-119710000D01*
X144181000Y-119710000D02*
X144181000Y-121260000D01*
X144181000Y-121260000D02*
X136081000Y-121260000D01*
X144981000Y-100660000D02*
X144981000Y-103810000D01*
X148081000Y-105690000D02*
X148081000Y-106310000D01*
X148081000Y-106310000D02*
X154381000Y-106310000D01*
X148081000Y-117210000D02*
X148081000Y-117840000D01*
X154381000Y-106310000D02*
X154381000Y-117210000D01*
X154381000Y-117210000D02*
X148081000Y-117210000D01*
D14*
X153531000Y-105710000D02*
G75*
G02*
X153331000Y-105710000I-100000J0D01*
G01*
X153331000Y-105710000D02*
G75*
G02*
X153531000Y-105710000I100000J0D01*
G01*
D12*
X54105000Y-84979000D02*
X54105000Y-99679000D01*
X54105000Y-99679000D02*
X68805000Y-99679000D01*
X68805000Y-84979000D02*
X54105000Y-84979000D01*
X68805000Y-99679000D02*
X68805000Y-84979000D01*
D10*
X134366000Y-64897000D02*
X134366000Y-97917000D01*
X134366000Y-97917000D02*
X136906000Y-97917000D01*
X136906000Y-64897000D02*
X134366000Y-64897000D01*
X136906000Y-97917000D02*
X136906000Y-64897000D01*
X149586000Y-64897000D02*
X149586000Y-97917000D01*
X149586000Y-97917000D02*
X152126000Y-97917000D01*
X152126000Y-64897000D02*
X149586000Y-64897000D01*
X152126000Y-67437000D02*
X134366000Y-67437000D01*
X152126000Y-97917000D02*
X152126000Y-64897000D01*
X136899600Y-67385000D02*
X134399600Y-67385000D01*
X134399600Y-64885000D01*
X136899600Y-64885000D01*
X136899600Y-67385000D01*
G36*
X136899600Y-67385000D02*
G01*
X134399600Y-67385000D01*
X134399600Y-64885000D01*
X136899600Y-64885000D01*
X136899600Y-67385000D01*
G37*
X152099600Y-67385000D02*
X149599600Y-67385000D01*
X149599600Y-64885000D01*
X152099600Y-64885000D01*
X152099600Y-67385000D01*
G36*
X152099600Y-67385000D02*
G01*
X149599600Y-67385000D01*
X149599600Y-64885000D01*
X152099600Y-64885000D01*
X152099600Y-67385000D01*
G37*
D12*
X73295000Y-84979000D02*
X73295000Y-99679000D01*
X73295000Y-99679000D02*
X87995000Y-99679000D01*
X87995000Y-84979000D02*
X73295000Y-84979000D01*
X87995000Y-99679000D02*
X87995000Y-84979000D01*
X54074000Y-65811000D02*
X54074000Y-80511000D01*
X54074000Y-80511000D02*
X68774000Y-80511000D01*
X68774000Y-65811000D02*
X54074000Y-65811000D01*
X68774000Y-80511000D02*
X68774000Y-65811000D01*
X92384000Y-65811000D02*
X92384000Y-80511000D01*
X92384000Y-80511000D02*
X107084000Y-80511000D01*
X107084000Y-65811000D02*
X92384000Y-65811000D01*
X107084000Y-80511000D02*
X107084000Y-65811000D01*
X92425000Y-84941000D02*
X92425000Y-99641000D01*
X92425000Y-99641000D02*
X107125000Y-99641000D01*
X107125000Y-84941000D02*
X92425000Y-84941000D01*
X107125000Y-99641000D02*
X107125000Y-84941000D01*
D10*
X131112000Y-60734000D02*
X137112000Y-60734000D01*
X131112000Y-60984000D02*
X131112000Y-60734000D01*
X131112000Y-64234000D02*
X131112000Y-63984000D01*
X137112000Y-60734000D02*
X137112000Y-60984000D01*
X137112000Y-63984000D02*
X137112000Y-64234000D01*
X137112000Y-64234000D02*
X131112000Y-64234000D01*
D15*
X105410000Y-100965000D03*
D16*
X97790000Y-100965000D03*
D15*
X89284000Y-100965000D03*
D16*
X81664000Y-100965000D03*
D15*
X69980000Y-64516000D03*
D16*
X62360000Y-64516000D03*
D15*
X98806000Y-64516000D03*
D16*
X91186000Y-64516000D03*
D15*
X127505000Y-83693000D03*
D16*
X119885000Y-83693000D03*
D17*
X135636000Y-68707000D03*
X135636000Y-71247000D03*
X135636000Y-73787000D03*
X135636000Y-76327000D03*
X135636000Y-78867000D03*
X135636000Y-81407000D03*
X135636000Y-83947000D03*
X135636000Y-86487000D03*
X135636000Y-89027000D03*
X135636000Y-91567000D03*
X135636000Y-94107000D03*
X135636000Y-96647000D03*
X150856000Y-96647000D03*
X150856000Y-94107000D03*
X150856000Y-91567000D03*
X150856000Y-89027000D03*
X150856000Y-86487000D03*
X150856000Y-83947000D03*
X150856000Y-81407000D03*
X150856000Y-78867000D03*
X150856000Y-76327000D03*
X150856000Y-73787000D03*
X150856000Y-71247000D03*
X150856000Y-68707000D03*
X150856000Y-66167000D03*
X135636000Y-66167000D03*
D15*
X89281000Y-64516000D03*
D16*
X81661000Y-64516000D03*
D15*
X148590000Y-96901000D03*
D16*
X140970000Y-96901000D03*
D15*
X70104000Y-100965000D03*
D16*
X62484000Y-100965000D03*
D15*
X153543000Y-97282000D03*
D16*
X153543000Y-104902000D03*
M02*
