G04 #@! TF.GenerationSoftware,KiCad,Pcbnew,8.0.6*
G04 #@! TF.CreationDate,2025-01-11T22:07:08+09:00*
G04 #@! TF.ProjectId,original_keyboard,6f726967-696e-4616-9c5f-6b6579626f61,rev?*
G04 #@! TF.SameCoordinates,Original*
G04 #@! TF.FileFunction,Copper,L1,Top*
G04 #@! TF.FilePolarity,Positive*
%FSLAX46Y46*%
G04 Gerber Fmt 4.6, Leading zero omitted, Abs format (unit mm)*
G04 Created by KiCad (PCBNEW 8.0.6) date 2025-01-11 22:07:08*
%MOMM*%
%LPD*%
G01*
G04 APERTURE LIST*
G04 Aperture macros list*
%AMRoundRect*
0 Rectangle with rounded corners*
0 $1 Rounding radius*
0 $2 $3 $4 $5 $6 $7 $8 $9 X,Y pos of 4 corners*
0 Add a 4 corners polygon primitive as box body*
4,1,4,$2,$3,$4,$5,$6,$7,$8,$9,$2,$3,0*
0 Add four circle primitives for the rounded corners*
1,1,$1+$1,$2,$3*
1,1,$1+$1,$4,$5*
1,1,$1+$1,$6,$7*
1,1,$1+$1,$8,$9*
0 Add four rect primitives between the rounded corners*
20,1,$1+$1,$2,$3,$4,$5,0*
20,1,$1+$1,$4,$5,$6,$7,0*
20,1,$1+$1,$6,$7,$8,$9,0*
20,1,$1+$1,$8,$9,$2,$3,0*%
%AMRotRect*
0 Rectangle, with rotation*
0 The origin of the aperture is its center*
0 $1 length*
0 $2 width*
0 $3 Rotation angle, in degrees counterclockwise*
0 Add horizontal line*
21,1,$1,$2,0,0,$3*%
G04 Aperture macros list end*
G04 #@! TA.AperFunction,WasherPad*
%ADD10C,1.900000*%
G04 #@! TD*
G04 #@! TA.AperFunction,ComponentPad*
%ADD11RoundRect,0.287500X-0.962500X-0.287500X0.962500X-0.287500X0.962500X0.287500X-0.962500X0.287500X0*%
G04 #@! TD*
G04 #@! TA.AperFunction,ComponentPad*
%ADD12RoundRect,0.375000X-1.375000X-0.375000X1.375000X-0.375000X1.375000X0.375000X-1.375000X0.375000X0*%
G04 #@! TD*
G04 #@! TA.AperFunction,ComponentPad*
%ADD13RoundRect,0.325000X-1.425000X-0.325000X1.425000X-0.325000X1.425000X0.325000X-1.425000X0.325000X0*%
G04 #@! TD*
G04 #@! TA.AperFunction,ComponentPad*
%ADD14R,1.397000X1.397000*%
G04 #@! TD*
G04 #@! TA.AperFunction,ComponentPad*
%ADD15C,1.397000*%
G04 #@! TD*
G04 #@! TA.AperFunction,ComponentPad*
%ADD16RotRect,2.000000X2.000000X72.000000*%
G04 #@! TD*
G04 #@! TA.AperFunction,ComponentPad*
%ADD17C,2.000000*%
G04 #@! TD*
G04 #@! TA.AperFunction,ComponentPad*
%ADD18C,1.600000*%
G04 #@! TD*
G04 #@! TA.AperFunction,ComponentPad*
%ADD19C,1.778000*%
G04 #@! TD*
G04 #@! TA.AperFunction,ComponentPad*
%ADD20C,2.286000*%
G04 #@! TD*
G04 #@! TA.AperFunction,WasherPad*
%ADD21C,4.500000*%
G04 #@! TD*
G04 #@! TA.AperFunction,ComponentPad*
%ADD22C,1.524000*%
G04 #@! TD*
G04 #@! TA.AperFunction,ViaPad*
%ADD23C,0.800000*%
G04 #@! TD*
G04 #@! TA.AperFunction,Conductor*
%ADD24C,0.250000*%
G04 #@! TD*
G04 #@! TA.AperFunction,Conductor*
%ADD25C,0.500000*%
G04 #@! TD*
G04 APERTURE END LIST*
D10*
X75113000Y-73152000D03*
D11*
X85613000Y-67602000D03*
D10*
X86113000Y-73152000D03*
D12*
X75613000Y-76952000D03*
D13*
X80613000Y-79052000D03*
D14*
X105410000Y-100965000D03*
D15*
X97790000Y-100965000D03*
D14*
X89284000Y-100965000D03*
D15*
X81664000Y-100965000D03*
D10*
X113419000Y-92288200D03*
D11*
X123919000Y-86738200D03*
D10*
X124419000Y-92288200D03*
D12*
X113919000Y-96088200D03*
D13*
X118919000Y-98188200D03*
D16*
X114122365Y-76303012D03*
D17*
X116538048Y-77087915D03*
X118953732Y-77872818D03*
X121369415Y-78657722D03*
D18*
X111042818Y-76590448D03*
X111614500Y-74830993D03*
D14*
X69980000Y-64516000D03*
D15*
X62360000Y-64516000D03*
D19*
X152781000Y-108585000D03*
X152781000Y-114935000D03*
X147701000Y-108585000D03*
X147701000Y-114935000D03*
X129921000Y-109220000D03*
X129921000Y-111760000D03*
X129921000Y-114300000D03*
D20*
X146748500Y-104140000D03*
X133413500Y-104140000D03*
X133413500Y-119380000D03*
X146748500Y-119380000D03*
D19*
X142621000Y-101600000D03*
X140081000Y-101600000D03*
X137541000Y-101600000D03*
D21*
X109347000Y-102870000D03*
D14*
X98806000Y-64516000D03*
D15*
X91186000Y-64516000D03*
D14*
X127505000Y-83693000D03*
D15*
X119885000Y-83693000D03*
D10*
X55955000Y-92329000D03*
D11*
X66455000Y-86779000D03*
D10*
X66955000Y-92329000D03*
D12*
X56455000Y-96129000D03*
D13*
X61455000Y-98229000D03*
D22*
X135636000Y-68707000D03*
X135636000Y-71247000D03*
X135636000Y-73787000D03*
X135636000Y-76327000D03*
X135636000Y-78867000D03*
X135636000Y-81407000D03*
X135636000Y-83947000D03*
X135636000Y-86487000D03*
X135636000Y-89027000D03*
X135636000Y-91567000D03*
X135636000Y-94107000D03*
X135636000Y-96647000D03*
X150856000Y-96647000D03*
X150856000Y-94107000D03*
X150856000Y-91567000D03*
X150856000Y-89027000D03*
X150856000Y-86487000D03*
X150856000Y-83947000D03*
X150856000Y-81407000D03*
X150856000Y-78867000D03*
X150856000Y-76327000D03*
X150856000Y-73787000D03*
X150856000Y-71247000D03*
X150856000Y-68707000D03*
X150856000Y-66167000D03*
X135636000Y-66167000D03*
D10*
X75145000Y-92329000D03*
D11*
X85645000Y-86779000D03*
D10*
X86145000Y-92329000D03*
D12*
X75645000Y-96129000D03*
D13*
X80645000Y-98229000D03*
D14*
X89281000Y-64516000D03*
D15*
X81661000Y-64516000D03*
D10*
X55924000Y-73161000D03*
D11*
X66424000Y-67611000D03*
D10*
X66924000Y-73161000D03*
D12*
X56424000Y-76961000D03*
D13*
X61424000Y-79061000D03*
D10*
X94234000Y-73161000D03*
D11*
X104734000Y-67611000D03*
D10*
X105234000Y-73161000D03*
D12*
X94734000Y-76961000D03*
D13*
X99734000Y-79061000D03*
D21*
X53340000Y-102870000D03*
D14*
X148590000Y-96901000D03*
D15*
X140970000Y-96901000D03*
D10*
X94275000Y-92291000D03*
D11*
X104775000Y-86741000D03*
D10*
X105275000Y-92291000D03*
D12*
X94775000Y-96091000D03*
D13*
X99775000Y-98191000D03*
D21*
X52705000Y-62484000D03*
D14*
X70104000Y-100965000D03*
D15*
X62484000Y-100965000D03*
D14*
X153543000Y-97282000D03*
D15*
X153543000Y-104902000D03*
D21*
X107442000Y-62484000D03*
D17*
X137362000Y-62484000D03*
X130862000Y-62484000D03*
D23*
X131953000Y-90233500D03*
X133042500Y-90243500D03*
X75692000Y-94742000D03*
X94825000Y-94615000D03*
X152293012Y-98459000D03*
X144780000Y-98425000D03*
X150856000Y-98459000D03*
X147320000Y-95758000D03*
X149733000Y-95377000D03*
D24*
X135636000Y-83947000D02*
X127759000Y-83947000D01*
X127759000Y-83947000D02*
X127505000Y-83693000D01*
X131953000Y-90233500D02*
X135699500Y-86487000D01*
X135001000Y-89027000D02*
X135529000Y-89027000D01*
D25*
X135636000Y-73787000D02*
X135636000Y-76327000D01*
X137033000Y-73787000D02*
X139573000Y-71247000D01*
X134620000Y-114300000D02*
X129921000Y-114300000D01*
X135636000Y-73787000D02*
X137033000Y-73787000D01*
X142869500Y-106050500D02*
X134620000Y-114300000D01*
X128582000Y-112961000D02*
X128582000Y-106718657D01*
X154691500Y-105377725D02*
X154018725Y-106050500D01*
X135636000Y-66167000D02*
X134424000Y-67379000D01*
X154691500Y-75082500D02*
X154691500Y-105377725D01*
X133700657Y-101600000D02*
X137541000Y-101600000D01*
X123039550Y-73787000D02*
X135636000Y-73787000D01*
X134424000Y-72575000D02*
X135636000Y-73787000D01*
X118953732Y-77872818D02*
X123039550Y-73787000D01*
X128582000Y-106718657D02*
X133700657Y-101600000D01*
X150856000Y-71247000D02*
X154691500Y-75082500D01*
X129921000Y-114300000D02*
X128582000Y-112961000D01*
X139573000Y-71247000D02*
X150856000Y-71247000D01*
X134424000Y-67379000D02*
X134424000Y-72575000D01*
X154018725Y-106050500D02*
X142869500Y-106050500D01*
D24*
X117303219Y-95194219D02*
X128091781Y-95194219D01*
X77089000Y-94742000D02*
X77724000Y-95377000D01*
X128091781Y-95194219D02*
X133042500Y-90243500D01*
X149639500Y-90243500D02*
X150856000Y-89027000D01*
X112012604Y-93726000D02*
X115835000Y-93726000D01*
X97409000Y-95181000D02*
X110557604Y-95181000D01*
X115835000Y-93726000D02*
X117303219Y-95194219D01*
X110557604Y-95181000D02*
X112012604Y-93726000D01*
X96118000Y-93890000D02*
X97409000Y-95181000D01*
X92075000Y-95377000D02*
X93562000Y-93890000D01*
X77724000Y-95377000D02*
X92075000Y-95377000D01*
X133042500Y-90243500D02*
X149639500Y-90243500D01*
X75692000Y-94742000D02*
X77089000Y-94742000D01*
X93562000Y-93890000D02*
X96118000Y-93890000D01*
X128949781Y-95644219D02*
X131940000Y-92654000D01*
X96038950Y-94615000D02*
X97054950Y-95631000D01*
X94825000Y-94615000D02*
X96038950Y-94615000D01*
X149769000Y-92654000D02*
X150856000Y-91567000D01*
X110744000Y-95631000D02*
X112141000Y-94234000D01*
X112141000Y-94234000D02*
X115571396Y-94234000D01*
X152293012Y-98459000D02*
X152293012Y-93004012D01*
X131940000Y-92654000D02*
X149769000Y-92654000D01*
X97054950Y-95631000D02*
X110744000Y-95631000D01*
X152293012Y-93004012D02*
X150856000Y-91567000D01*
X115571396Y-94234000D02*
X116981615Y-95644219D01*
X116981615Y-95644219D02*
X128949781Y-95644219D01*
X110872396Y-96139000D02*
X94823000Y-96139000D01*
X135720251Y-95560000D02*
X129820219Y-95560000D01*
X137173251Y-94107000D02*
X135720251Y-95560000D01*
X129820219Y-95560000D02*
X129286000Y-96094219D01*
X115470219Y-94769219D02*
X112242177Y-94769219D01*
X112242177Y-94769219D02*
X110872396Y-96139000D01*
X150856000Y-94107000D02*
X137173251Y-94107000D01*
X129286000Y-96094219D02*
X116795219Y-96094219D01*
X94823000Y-96139000D02*
X94775000Y-96091000D01*
X116795219Y-96094219D02*
X115470219Y-94769219D01*
X135876749Y-98425000D02*
X144780000Y-98425000D01*
X113919000Y-96088200D02*
X114928051Y-97097251D01*
X114928051Y-97097251D02*
X134549000Y-97097251D01*
X134549000Y-97097251D02*
X135876749Y-98425000D01*
X150856000Y-98459000D02*
X150856000Y-96647000D01*
X144780000Y-100203000D02*
X141478000Y-100203000D01*
X141478000Y-100203000D02*
X140081000Y-101600000D01*
X147320000Y-97663000D02*
X144780000Y-100203000D01*
X147320000Y-95758000D02*
X147320000Y-97663000D01*
X135778000Y-111760000D02*
X149733000Y-97805000D01*
X129921000Y-111760000D02*
X135778000Y-111760000D01*
X149733000Y-97805000D02*
X149733000Y-95377000D01*
M02*
